G04 #@! TF.GenerationSoftware,KiCad,Pcbnew,(5.1.2-1)-1*
G04 #@! TF.CreationDate,2019-08-17T07:29:06+01:00*
G04 #@! TF.ProjectId,led_controller,6c65645f-636f-46e7-9472-6f6c6c65722e,rev?*
G04 #@! TF.SameCoordinates,Original*
G04 #@! TF.FileFunction,Legend,Top*
G04 #@! TF.FilePolarity,Positive*
%FSLAX46Y46*%
G04 Gerber Fmt 4.6, Leading zero omitted, Abs format (unit mm)*
G04 Created by KiCad (PCBNEW (5.1.2-1)-1) date 2019-08-17 07:29:06*
%MOMM*%
%LPD*%
G04 APERTURE LIST*
%ADD10C,0.300000*%
%ADD11C,0.500000*%
%ADD12C,0.120000*%
%ADD13C,0.002540*%
%ADD14C,0.127000*%
%ADD15C,0.150000*%
%ADD16C,0.050000*%
G04 APERTURE END LIST*
D10*
X121064285Y-45903571D02*
X120349999Y-45903571D01*
X120349999Y-44403571D01*
X121564285Y-45117857D02*
X122064285Y-45117857D01*
X122278571Y-45903571D02*
X121564285Y-45903571D01*
X121564285Y-44403571D01*
X122278571Y-44403571D01*
X122921428Y-45903571D02*
X122921428Y-44403571D01*
X123278571Y-44403571D01*
X123492857Y-44475000D01*
X123635714Y-44617857D01*
X123707142Y-44760714D01*
X123778571Y-45046428D01*
X123778571Y-45260714D01*
X123707142Y-45546428D01*
X123635714Y-45689285D01*
X123492857Y-45832142D01*
X123278571Y-45903571D01*
X122921428Y-45903571D01*
X126421428Y-45760714D02*
X126349999Y-45832142D01*
X126135714Y-45903571D01*
X125992857Y-45903571D01*
X125778571Y-45832142D01*
X125635714Y-45689285D01*
X125564285Y-45546428D01*
X125492857Y-45260714D01*
X125492857Y-45046428D01*
X125564285Y-44760714D01*
X125635714Y-44617857D01*
X125778571Y-44475000D01*
X125992857Y-44403571D01*
X126135714Y-44403571D01*
X126349999Y-44475000D01*
X126421428Y-44546428D01*
X127278571Y-45903571D02*
X127135714Y-45832142D01*
X127064285Y-45760714D01*
X126992857Y-45617857D01*
X126992857Y-45189285D01*
X127064285Y-45046428D01*
X127135714Y-44975000D01*
X127278571Y-44903571D01*
X127492857Y-44903571D01*
X127635714Y-44975000D01*
X127707142Y-45046428D01*
X127778571Y-45189285D01*
X127778571Y-45617857D01*
X127707142Y-45760714D01*
X127635714Y-45832142D01*
X127492857Y-45903571D01*
X127278571Y-45903571D01*
X128421428Y-44903571D02*
X128421428Y-45903571D01*
X128421428Y-45046428D02*
X128492857Y-44975000D01*
X128635714Y-44903571D01*
X128849999Y-44903571D01*
X128992857Y-44975000D01*
X129064285Y-45117857D01*
X129064285Y-45903571D01*
X129564285Y-44903571D02*
X130135714Y-44903571D01*
X129778571Y-44403571D02*
X129778571Y-45689285D01*
X129849999Y-45832142D01*
X129992857Y-45903571D01*
X130135714Y-45903571D01*
X130635714Y-45903571D02*
X130635714Y-44903571D01*
X130635714Y-45189285D02*
X130707142Y-45046428D01*
X130778571Y-44975000D01*
X130921428Y-44903571D01*
X131064285Y-44903571D01*
X131778571Y-45903571D02*
X131635714Y-45832142D01*
X131564285Y-45760714D01*
X131492857Y-45617857D01*
X131492857Y-45189285D01*
X131564285Y-45046428D01*
X131635714Y-44975000D01*
X131778571Y-44903571D01*
X131992857Y-44903571D01*
X132135714Y-44975000D01*
X132207142Y-45046428D01*
X132278571Y-45189285D01*
X132278571Y-45617857D01*
X132207142Y-45760714D01*
X132135714Y-45832142D01*
X131992857Y-45903571D01*
X131778571Y-45903571D01*
X133135714Y-45903571D02*
X132992857Y-45832142D01*
X132921428Y-45689285D01*
X132921428Y-44403571D01*
X133921428Y-45903571D02*
X133778571Y-45832142D01*
X133707142Y-45689285D01*
X133707142Y-44403571D01*
X135064285Y-45832142D02*
X134921428Y-45903571D01*
X134635714Y-45903571D01*
X134492857Y-45832142D01*
X134421428Y-45689285D01*
X134421428Y-45117857D01*
X134492857Y-44975000D01*
X134635714Y-44903571D01*
X134921428Y-44903571D01*
X135064285Y-44975000D01*
X135135714Y-45117857D01*
X135135714Y-45260714D01*
X134421428Y-45403571D01*
X135778571Y-45903571D02*
X135778571Y-44903571D01*
X135778571Y-45189285D02*
X135850000Y-45046428D01*
X135921428Y-44975000D01*
X136064285Y-44903571D01*
X136207142Y-44903571D01*
X137707142Y-44903571D02*
X138064285Y-45903571D01*
X138421428Y-44903571D01*
X139778571Y-45903571D02*
X138921428Y-45903571D01*
X139350000Y-45903571D02*
X139350000Y-44403571D01*
X139207142Y-44617857D01*
X139064285Y-44760714D01*
X138921428Y-44832142D01*
X140421428Y-45760714D02*
X140492857Y-45832142D01*
X140421428Y-45903571D01*
X140350000Y-45832142D01*
X140421428Y-45760714D01*
X140421428Y-45903571D01*
X141421428Y-44403571D02*
X141564285Y-44403571D01*
X141707142Y-44475000D01*
X141778571Y-44546428D01*
X141850000Y-44689285D01*
X141921428Y-44975000D01*
X141921428Y-45332142D01*
X141850000Y-45617857D01*
X141778571Y-45760714D01*
X141707142Y-45832142D01*
X141564285Y-45903571D01*
X141421428Y-45903571D01*
X141278571Y-45832142D01*
X141207142Y-45760714D01*
X141135714Y-45617857D01*
X141064285Y-45332142D01*
X141064285Y-44975000D01*
X141135714Y-44689285D01*
X141207142Y-44546428D01*
X141278571Y-44475000D01*
X141421428Y-44403571D01*
X121032142Y-49453571D02*
X121032142Y-50667857D01*
X120960714Y-50810714D01*
X120889285Y-50882142D01*
X120746428Y-50953571D01*
X120532142Y-50953571D01*
X120389285Y-50882142D01*
X121032142Y-50382142D02*
X120889285Y-50453571D01*
X120603571Y-50453571D01*
X120460714Y-50382142D01*
X120389285Y-50310714D01*
X120317857Y-50167857D01*
X120317857Y-49739285D01*
X120389285Y-49596428D01*
X120460714Y-49525000D01*
X120603571Y-49453571D01*
X120889285Y-49453571D01*
X121032142Y-49525000D01*
X121746428Y-50453571D02*
X121746428Y-49453571D01*
X121746428Y-48953571D02*
X121675000Y-49025000D01*
X121746428Y-49096428D01*
X121817857Y-49025000D01*
X121746428Y-48953571D01*
X121746428Y-49096428D01*
X122246428Y-49453571D02*
X122817857Y-49453571D01*
X122460714Y-48953571D02*
X122460714Y-50239285D01*
X122532142Y-50382142D01*
X122675000Y-50453571D01*
X122817857Y-50453571D01*
X123317857Y-50453571D02*
X123317857Y-48953571D01*
X123960714Y-50453571D02*
X123960714Y-49667857D01*
X123889285Y-49525000D01*
X123746428Y-49453571D01*
X123532142Y-49453571D01*
X123389285Y-49525000D01*
X123317857Y-49596428D01*
X125317857Y-49453571D02*
X125317857Y-50453571D01*
X124675000Y-49453571D02*
X124675000Y-50239285D01*
X124746428Y-50382142D01*
X124889285Y-50453571D01*
X125103571Y-50453571D01*
X125246428Y-50382142D01*
X125317857Y-50310714D01*
X126032142Y-50453571D02*
X126032142Y-48953571D01*
X126032142Y-49525000D02*
X126175000Y-49453571D01*
X126460714Y-49453571D01*
X126603571Y-49525000D01*
X126675000Y-49596428D01*
X126746428Y-49739285D01*
X126746428Y-50167857D01*
X126675000Y-50310714D01*
X126603571Y-50382142D01*
X126460714Y-50453571D01*
X126175000Y-50453571D01*
X126032142Y-50382142D01*
X127389285Y-50310714D02*
X127460714Y-50382142D01*
X127389285Y-50453571D01*
X127317857Y-50382142D01*
X127389285Y-50310714D01*
X127389285Y-50453571D01*
X128746428Y-50382142D02*
X128603571Y-50453571D01*
X128317857Y-50453571D01*
X128175000Y-50382142D01*
X128103571Y-50310714D01*
X128032142Y-50167857D01*
X128032142Y-49739285D01*
X128103571Y-49596428D01*
X128175000Y-49525000D01*
X128317857Y-49453571D01*
X128603571Y-49453571D01*
X128746428Y-49525000D01*
X129603571Y-50453571D02*
X129460714Y-50382142D01*
X129389285Y-50310714D01*
X129317857Y-50167857D01*
X129317857Y-49739285D01*
X129389285Y-49596428D01*
X129460714Y-49525000D01*
X129603571Y-49453571D01*
X129817857Y-49453571D01*
X129960714Y-49525000D01*
X130032142Y-49596428D01*
X130103571Y-49739285D01*
X130103571Y-50167857D01*
X130032142Y-50310714D01*
X129960714Y-50382142D01*
X129817857Y-50453571D01*
X129603571Y-50453571D01*
X130746428Y-50453571D02*
X130746428Y-49453571D01*
X130746428Y-49596428D02*
X130817857Y-49525000D01*
X130960714Y-49453571D01*
X131175000Y-49453571D01*
X131317857Y-49525000D01*
X131389285Y-49667857D01*
X131389285Y-50453571D01*
X131389285Y-49667857D02*
X131460714Y-49525000D01*
X131603571Y-49453571D01*
X131817857Y-49453571D01*
X131960714Y-49525000D01*
X132032142Y-49667857D01*
X132032142Y-50453571D01*
X133817857Y-48882142D02*
X132532142Y-50810714D01*
X134175000Y-49453571D02*
X134460714Y-50453571D01*
X134746428Y-49739285D01*
X135032142Y-50453571D01*
X135317857Y-49453571D01*
X135889285Y-50453571D02*
X135889285Y-49453571D01*
X135889285Y-48953571D02*
X135817857Y-49025000D01*
X135889285Y-49096428D01*
X135960714Y-49025000D01*
X135889285Y-48953571D01*
X135889285Y-49096428D01*
X136817857Y-50453571D02*
X136675000Y-50382142D01*
X136603571Y-50239285D01*
X136603571Y-48953571D01*
X137603571Y-50453571D02*
X137460714Y-50382142D01*
X137389285Y-50239285D01*
X137389285Y-48953571D01*
X138175000Y-49453571D02*
X138175000Y-50953571D01*
X138175000Y-49525000D02*
X138317857Y-49453571D01*
X138603571Y-49453571D01*
X138746428Y-49525000D01*
X138817857Y-49596428D01*
X138889285Y-49739285D01*
X138889285Y-50167857D01*
X138817857Y-50310714D01*
X138746428Y-50382142D01*
X138603571Y-50453571D01*
X138317857Y-50453571D01*
X138175000Y-50382142D01*
X139746428Y-50453571D02*
X139603571Y-50382142D01*
X139532142Y-50239285D01*
X139532142Y-48953571D01*
X140960714Y-50453571D02*
X140960714Y-49667857D01*
X140889285Y-49525000D01*
X140746428Y-49453571D01*
X140460714Y-49453571D01*
X140317857Y-49525000D01*
X140960714Y-50382142D02*
X140817857Y-50453571D01*
X140460714Y-50453571D01*
X140317857Y-50382142D01*
X140246428Y-50239285D01*
X140246428Y-50096428D01*
X140317857Y-49953571D01*
X140460714Y-49882142D01*
X140817857Y-49882142D01*
X140960714Y-49810714D01*
X141460714Y-49453571D02*
X142032142Y-49453571D01*
X141675000Y-48953571D02*
X141675000Y-50239285D01*
X141746428Y-50382142D01*
X141889285Y-50453571D01*
X142032142Y-50453571D01*
X142317857Y-49453571D02*
X142889285Y-49453571D01*
X142532142Y-48953571D02*
X142532142Y-50239285D01*
X142603571Y-50382142D01*
X142746428Y-50453571D01*
X142889285Y-50453571D01*
X143317857Y-50382142D02*
X143460714Y-50453571D01*
X143746428Y-50453571D01*
X143889285Y-50382142D01*
X143960714Y-50239285D01*
X143960714Y-50167857D01*
X143889285Y-50025000D01*
X143746428Y-49953571D01*
X143532142Y-49953571D01*
X143389285Y-49882142D01*
X143317857Y-49739285D01*
X143317857Y-49667857D01*
X143389285Y-49525000D01*
X143532142Y-49453571D01*
X143746428Y-49453571D01*
X143889285Y-49525000D01*
X145675000Y-48882142D02*
X144389285Y-50810714D01*
X146389285Y-50453571D02*
X146246428Y-50382142D01*
X146175000Y-50239285D01*
X146175000Y-48953571D01*
X147532142Y-50382142D02*
X147389285Y-50453571D01*
X147103571Y-50453571D01*
X146960714Y-50382142D01*
X146889285Y-50239285D01*
X146889285Y-49667857D01*
X146960714Y-49525000D01*
X147103571Y-49453571D01*
X147389285Y-49453571D01*
X147532142Y-49525000D01*
X147603571Y-49667857D01*
X147603571Y-49810714D01*
X146889285Y-49953571D01*
X148889285Y-50453571D02*
X148889285Y-48953571D01*
X148889285Y-50382142D02*
X148746428Y-50453571D01*
X148460714Y-50453571D01*
X148317857Y-50382142D01*
X148246428Y-50310714D01*
X148175000Y-50167857D01*
X148175000Y-49739285D01*
X148246428Y-49596428D01*
X148317857Y-49525000D01*
X148460714Y-49453571D01*
X148746428Y-49453571D01*
X148889285Y-49525000D01*
X149246428Y-50596428D02*
X150389285Y-50596428D01*
X151389285Y-50382142D02*
X151246428Y-50453571D01*
X150960714Y-50453571D01*
X150817857Y-50382142D01*
X150746428Y-50310714D01*
X150675000Y-50167857D01*
X150675000Y-49739285D01*
X150746428Y-49596428D01*
X150817857Y-49525000D01*
X150960714Y-49453571D01*
X151246428Y-49453571D01*
X151389285Y-49525000D01*
X152246428Y-50453571D02*
X152103571Y-50382142D01*
X152032142Y-50310714D01*
X151960714Y-50167857D01*
X151960714Y-49739285D01*
X152032142Y-49596428D01*
X152103571Y-49525000D01*
X152246428Y-49453571D01*
X152460714Y-49453571D01*
X152603571Y-49525000D01*
X152675000Y-49596428D01*
X152746428Y-49739285D01*
X152746428Y-50167857D01*
X152675000Y-50310714D01*
X152603571Y-50382142D01*
X152460714Y-50453571D01*
X152246428Y-50453571D01*
X153389285Y-49453571D02*
X153389285Y-50453571D01*
X153389285Y-49596428D02*
X153460714Y-49525000D01*
X153603571Y-49453571D01*
X153817857Y-49453571D01*
X153960714Y-49525000D01*
X154032142Y-49667857D01*
X154032142Y-50453571D01*
X154532142Y-49453571D02*
X155103571Y-49453571D01*
X154746428Y-48953571D02*
X154746428Y-50239285D01*
X154817857Y-50382142D01*
X154960714Y-50453571D01*
X155103571Y-50453571D01*
X155603571Y-50453571D02*
X155603571Y-49453571D01*
X155603571Y-49739285D02*
X155675000Y-49596428D01*
X155746428Y-49525000D01*
X155889285Y-49453571D01*
X156032142Y-49453571D01*
X156746428Y-50453571D02*
X156603571Y-50382142D01*
X156532142Y-50310714D01*
X156460714Y-50167857D01*
X156460714Y-49739285D01*
X156532142Y-49596428D01*
X156603571Y-49525000D01*
X156746428Y-49453571D01*
X156960714Y-49453571D01*
X157103571Y-49525000D01*
X157175000Y-49596428D01*
X157246428Y-49739285D01*
X157246428Y-50167857D01*
X157175000Y-50310714D01*
X157103571Y-50382142D01*
X156960714Y-50453571D01*
X156746428Y-50453571D01*
X158103571Y-50453571D02*
X157960714Y-50382142D01*
X157889285Y-50239285D01*
X157889285Y-48953571D01*
X158889285Y-50453571D02*
X158746428Y-50382142D01*
X158675000Y-50239285D01*
X158675000Y-48953571D01*
X160032142Y-50382142D02*
X159889285Y-50453571D01*
X159603571Y-50453571D01*
X159460714Y-50382142D01*
X159389285Y-50239285D01*
X159389285Y-49667857D01*
X159460714Y-49525000D01*
X159603571Y-49453571D01*
X159889285Y-49453571D01*
X160032142Y-49525000D01*
X160103571Y-49667857D01*
X160103571Y-49810714D01*
X159389285Y-49953571D01*
X160746428Y-50453571D02*
X160746428Y-49453571D01*
X160746428Y-49739285D02*
X160817857Y-49596428D01*
X160889285Y-49525000D01*
X161032142Y-49453571D01*
X161175000Y-49453571D01*
X184675000Y-93678571D02*
X184675000Y-92178571D01*
X185246428Y-92178571D01*
X185389285Y-92250000D01*
X185460714Y-92321428D01*
X185532142Y-92464285D01*
X185532142Y-92678571D01*
X185460714Y-92821428D01*
X185389285Y-92892857D01*
X185246428Y-92964285D01*
X184675000Y-92964285D01*
X186032142Y-92178571D02*
X186389285Y-93678571D01*
X186675000Y-92607142D01*
X186960714Y-93678571D01*
X187317857Y-92178571D01*
X188746428Y-93678571D02*
X188246428Y-92964285D01*
X187889285Y-93678571D02*
X187889285Y-92178571D01*
X188460714Y-92178571D01*
X188603571Y-92250000D01*
X188675000Y-92321428D01*
X188746428Y-92464285D01*
X188746428Y-92678571D01*
X188675000Y-92821428D01*
X188603571Y-92892857D01*
X188460714Y-92964285D01*
X187889285Y-92964285D01*
X185746428Y-96228571D02*
X184889285Y-96228571D01*
X185317857Y-96228571D02*
X185317857Y-94728571D01*
X185175000Y-94942857D01*
X185032142Y-95085714D01*
X184889285Y-95157142D01*
X186317857Y-94871428D02*
X186389285Y-94800000D01*
X186532142Y-94728571D01*
X186889285Y-94728571D01*
X187032142Y-94800000D01*
X187103571Y-94871428D01*
X187175000Y-95014285D01*
X187175000Y-95157142D01*
X187103571Y-95371428D01*
X186246428Y-96228571D01*
X187175000Y-96228571D01*
X187603571Y-94728571D02*
X188103571Y-96228571D01*
X188603571Y-94728571D01*
D11*
X193863095Y-101292857D02*
X195386904Y-101292857D01*
X193863095Y-104792857D02*
X195386904Y-104792857D01*
X194625000Y-105554761D02*
X194625000Y-104030952D01*
D10*
X168628571Y-109678571D02*
X167914285Y-109678571D01*
X167914285Y-108178571D01*
X169414285Y-108178571D02*
X169700000Y-108178571D01*
X169842857Y-108250000D01*
X169985714Y-108392857D01*
X170057142Y-108678571D01*
X170057142Y-109178571D01*
X169985714Y-109464285D01*
X169842857Y-109607142D01*
X169700000Y-109678571D01*
X169414285Y-109678571D01*
X169271428Y-109607142D01*
X169128571Y-109464285D01*
X169057142Y-109178571D01*
X169057142Y-108678571D01*
X169128571Y-108392857D01*
X169271428Y-108250000D01*
X169414285Y-108178571D01*
X170985714Y-108178571D02*
X171271428Y-108178571D01*
X171414285Y-108250000D01*
X171557142Y-108392857D01*
X171628571Y-108678571D01*
X171628571Y-109178571D01*
X171557142Y-109464285D01*
X171414285Y-109607142D01*
X171271428Y-109678571D01*
X170985714Y-109678571D01*
X170842857Y-109607142D01*
X170700000Y-109464285D01*
X170628571Y-109178571D01*
X170628571Y-108678571D01*
X170700000Y-108392857D01*
X170842857Y-108250000D01*
X170985714Y-108178571D01*
X172271428Y-109678571D02*
X172271428Y-108178571D01*
X172842857Y-108178571D01*
X172985714Y-108250000D01*
X173057142Y-108321428D01*
X173128571Y-108464285D01*
X173128571Y-108678571D01*
X173057142Y-108821428D01*
X172985714Y-108892857D01*
X172842857Y-108964285D01*
X172271428Y-108964285D01*
X175200000Y-108178571D02*
X175485714Y-108178571D01*
X175628571Y-108250000D01*
X175771428Y-108392857D01*
X175842857Y-108678571D01*
X175842857Y-109178571D01*
X175771428Y-109464285D01*
X175628571Y-109607142D01*
X175485714Y-109678571D01*
X175200000Y-109678571D01*
X175057142Y-109607142D01*
X174914285Y-109464285D01*
X174842857Y-109178571D01*
X174842857Y-108678571D01*
X174914285Y-108392857D01*
X175057142Y-108250000D01*
X175200000Y-108178571D01*
X176485714Y-108178571D02*
X176485714Y-109392857D01*
X176557142Y-109535714D01*
X176628571Y-109607142D01*
X176771428Y-109678571D01*
X177057142Y-109678571D01*
X177200000Y-109607142D01*
X177271428Y-109535714D01*
X177342857Y-109392857D01*
X177342857Y-108178571D01*
X177842857Y-108178571D02*
X178700000Y-108178571D01*
X178271428Y-109678571D02*
X178271428Y-108178571D01*
X170153571Y-103153571D02*
X169439285Y-103153571D01*
X169439285Y-101653571D01*
X170939285Y-101653571D02*
X171225000Y-101653571D01*
X171367857Y-101725000D01*
X171510714Y-101867857D01*
X171582142Y-102153571D01*
X171582142Y-102653571D01*
X171510714Y-102939285D01*
X171367857Y-103082142D01*
X171225000Y-103153571D01*
X170939285Y-103153571D01*
X170796428Y-103082142D01*
X170653571Y-102939285D01*
X170582142Y-102653571D01*
X170582142Y-102153571D01*
X170653571Y-101867857D01*
X170796428Y-101725000D01*
X170939285Y-101653571D01*
X172510714Y-101653571D02*
X172796428Y-101653571D01*
X172939285Y-101725000D01*
X173082142Y-101867857D01*
X173153571Y-102153571D01*
X173153571Y-102653571D01*
X173082142Y-102939285D01*
X172939285Y-103082142D01*
X172796428Y-103153571D01*
X172510714Y-103153571D01*
X172367857Y-103082142D01*
X172225000Y-102939285D01*
X172153571Y-102653571D01*
X172153571Y-102153571D01*
X172225000Y-101867857D01*
X172367857Y-101725000D01*
X172510714Y-101653571D01*
X173796428Y-103153571D02*
X173796428Y-101653571D01*
X174367857Y-101653571D01*
X174510714Y-101725000D01*
X174582142Y-101796428D01*
X174653571Y-101939285D01*
X174653571Y-102153571D01*
X174582142Y-102296428D01*
X174510714Y-102367857D01*
X174367857Y-102439285D01*
X173796428Y-102439285D01*
X176439285Y-103153571D02*
X176439285Y-101653571D01*
X177153571Y-103153571D02*
X177153571Y-101653571D01*
X178010714Y-103153571D01*
X178010714Y-101653571D01*
D12*
X147887500Y-90285000D02*
X150087500Y-90285000D01*
X147887500Y-90285000D02*
X145687500Y-90285000D01*
X147887500Y-83265000D02*
X150087500Y-83265000D01*
X147887500Y-83265000D02*
X144237500Y-83265000D01*
D13*
G36*
X105703400Y-54238620D02*
G01*
X105782140Y-54195440D01*
X105957400Y-54086220D01*
X106208860Y-53921120D01*
X106503500Y-53723000D01*
X106800680Y-53522340D01*
X107044520Y-53359780D01*
X107217240Y-53250560D01*
X107288360Y-53209920D01*
X107326460Y-53222620D01*
X107468700Y-53291200D01*
X107671900Y-53397880D01*
X107791280Y-53458840D01*
X107979240Y-53540120D01*
X108073220Y-53557900D01*
X108088460Y-53532500D01*
X108157040Y-53387720D01*
X108266260Y-53141340D01*
X108405960Y-52816220D01*
X108568520Y-52435220D01*
X108741240Y-52026280D01*
X108916500Y-51607180D01*
X109081600Y-51208400D01*
X109228920Y-50847720D01*
X109345760Y-50555620D01*
X109424500Y-50354960D01*
X109452440Y-50266060D01*
X109444820Y-50248280D01*
X109350840Y-50156840D01*
X109185740Y-50032380D01*
X108832680Y-49745360D01*
X108482160Y-49308480D01*
X108266260Y-48810640D01*
X108197680Y-48259460D01*
X108256100Y-47748920D01*
X108459300Y-47253620D01*
X108799660Y-46811660D01*
X109216220Y-46484000D01*
X109703900Y-46275720D01*
X110250000Y-46207140D01*
X110773240Y-46268100D01*
X111276160Y-46466220D01*
X111718120Y-46801500D01*
X111903540Y-47017400D01*
X112162620Y-47466980D01*
X112307400Y-47947040D01*
X112325180Y-48068960D01*
X112302320Y-48594740D01*
X112147380Y-49100200D01*
X111867980Y-49552320D01*
X111481900Y-49923160D01*
X111433640Y-49956180D01*
X111255840Y-50090800D01*
X111133920Y-50182240D01*
X111042480Y-50258440D01*
X111713040Y-51873880D01*
X111819720Y-52130420D01*
X112002600Y-52572380D01*
X112165160Y-52953380D01*
X112294700Y-53255640D01*
X112383600Y-53456300D01*
X112424240Y-53537580D01*
X112426780Y-53542660D01*
X112485200Y-53552820D01*
X112609660Y-53509640D01*
X112835720Y-53397880D01*
X112983040Y-53321680D01*
X113155760Y-53240400D01*
X113231960Y-53209920D01*
X113298000Y-53245480D01*
X113463100Y-53352160D01*
X113701860Y-53512180D01*
X113991420Y-53707760D01*
X114265740Y-53895720D01*
X114519740Y-54063360D01*
X114705160Y-54180200D01*
X114791520Y-54228460D01*
X114806760Y-54228460D01*
X114888040Y-54182740D01*
X115030280Y-54063360D01*
X115251260Y-53855080D01*
X115563680Y-53547740D01*
X115609400Y-53502020D01*
X115865940Y-53240400D01*
X116074220Y-53021960D01*
X116213920Y-52867020D01*
X116262180Y-52795900D01*
X116216460Y-52707000D01*
X116102160Y-52524120D01*
X115934520Y-52267580D01*
X115728780Y-51967860D01*
X115195380Y-51190620D01*
X115487480Y-50459100D01*
X115578920Y-50233040D01*
X115693220Y-49961260D01*
X115777040Y-49768220D01*
X115820220Y-49681860D01*
X115901500Y-49653920D01*
X116102160Y-49605660D01*
X116391720Y-49544700D01*
X116739700Y-49481200D01*
X117069900Y-49420240D01*
X117369620Y-49364360D01*
X117585520Y-49321180D01*
X117682040Y-49303400D01*
X117704900Y-49288160D01*
X117725220Y-49242440D01*
X117737920Y-49140840D01*
X117745540Y-48957960D01*
X117748080Y-48673480D01*
X117748080Y-48259460D01*
X117748080Y-48213740D01*
X117745540Y-47820040D01*
X117737920Y-47505080D01*
X117725220Y-47299340D01*
X117712520Y-47218060D01*
X117618540Y-47195200D01*
X117407720Y-47149480D01*
X117110540Y-47091060D01*
X116752400Y-47025020D01*
X116732080Y-47019940D01*
X116376480Y-46951360D01*
X116079300Y-46887860D01*
X115871020Y-46842140D01*
X115784660Y-46814200D01*
X115764340Y-46788800D01*
X115693220Y-46649100D01*
X115591620Y-46430660D01*
X115474780Y-46161420D01*
X115357940Y-45882020D01*
X115258880Y-45633100D01*
X115190300Y-45445140D01*
X115169980Y-45361320D01*
X115172520Y-45358780D01*
X115225860Y-45272420D01*
X115347780Y-45089540D01*
X115520500Y-44835540D01*
X115726240Y-44533280D01*
X115741480Y-44510420D01*
X115944680Y-44210700D01*
X116112320Y-43956700D01*
X116221540Y-43776360D01*
X116262180Y-43695080D01*
X116262180Y-43690000D01*
X116193600Y-43598560D01*
X116041200Y-43428380D01*
X115822760Y-43199780D01*
X115561140Y-42935620D01*
X115477320Y-42854340D01*
X115185220Y-42569860D01*
X114982020Y-42384440D01*
X114857560Y-42282840D01*
X114796600Y-42262520D01*
X114794060Y-42262520D01*
X114705160Y-42318400D01*
X114514660Y-42440320D01*
X114258120Y-42615580D01*
X113953320Y-42821320D01*
X113933000Y-42836560D01*
X113633280Y-43039760D01*
X113381820Y-43209940D01*
X113206560Y-43326780D01*
X113127820Y-43372500D01*
X113115120Y-43372500D01*
X112993200Y-43336940D01*
X112779840Y-43263280D01*
X112518220Y-43161680D01*
X112238820Y-43049920D01*
X111987360Y-42943240D01*
X111799400Y-42856880D01*
X111710500Y-42806080D01*
X111707960Y-42803540D01*
X111674940Y-42694320D01*
X111624140Y-42470800D01*
X111560640Y-42160920D01*
X111489520Y-41795160D01*
X111479360Y-41736740D01*
X111410780Y-41378600D01*
X111354900Y-41083960D01*
X111311720Y-40878220D01*
X111291400Y-40794400D01*
X111240600Y-40784240D01*
X111065340Y-40771540D01*
X110798640Y-40763920D01*
X110476060Y-40761380D01*
X110135700Y-40761380D01*
X109805500Y-40769000D01*
X109521020Y-40779160D01*
X109320360Y-40794400D01*
X109234000Y-40809640D01*
X109231460Y-40814720D01*
X109200980Y-40926480D01*
X109150180Y-41150000D01*
X109086680Y-41462420D01*
X109018100Y-41828180D01*
X109005400Y-41894220D01*
X108936820Y-42249820D01*
X108878400Y-42541920D01*
X108835220Y-42745120D01*
X108812360Y-42823860D01*
X108779340Y-42839100D01*
X108632020Y-42905140D01*
X108393260Y-43004200D01*
X108098620Y-43123580D01*
X107410280Y-43400440D01*
X106569540Y-42823860D01*
X106493340Y-42770520D01*
X106188540Y-42564780D01*
X105939620Y-42399680D01*
X105766900Y-42287920D01*
X105695780Y-42247280D01*
X105690700Y-42249820D01*
X105606880Y-42323480D01*
X105439240Y-42480960D01*
X105213180Y-42701940D01*
X104946480Y-42966100D01*
X104750900Y-43161680D01*
X104519760Y-43397900D01*
X104372440Y-43557920D01*
X104291160Y-43659520D01*
X104263220Y-43720480D01*
X104270840Y-43761120D01*
X104324180Y-43847480D01*
X104448640Y-44032900D01*
X104621360Y-44289440D01*
X104827100Y-44586620D01*
X104994740Y-44835540D01*
X105177620Y-45117480D01*
X105297000Y-45320680D01*
X105337640Y-45417200D01*
X105327480Y-45457840D01*
X105269060Y-45622940D01*
X105167460Y-45871860D01*
X105043000Y-46169040D01*
X104748360Y-46834520D01*
X104311480Y-46920880D01*
X104047320Y-46969140D01*
X103679020Y-47040260D01*
X103323420Y-47108840D01*
X102769700Y-47218060D01*
X102751920Y-49250060D01*
X102835740Y-49288160D01*
X102917020Y-49308480D01*
X103122760Y-49354200D01*
X103414860Y-49412620D01*
X103760300Y-49478660D01*
X104054940Y-49532000D01*
X104352120Y-49587880D01*
X104562940Y-49631060D01*
X104656920Y-49651380D01*
X104682320Y-49681860D01*
X104755980Y-49826640D01*
X104860120Y-50052700D01*
X104979500Y-50327020D01*
X105098880Y-50614040D01*
X105203020Y-50875660D01*
X105274140Y-51073780D01*
X105302080Y-51177920D01*
X105261440Y-51256660D01*
X105149680Y-51431920D01*
X104987120Y-51678300D01*
X104783920Y-51972940D01*
X104583260Y-52267580D01*
X104413080Y-52519040D01*
X104293700Y-52701920D01*
X104245440Y-52783200D01*
X104270840Y-52839080D01*
X104387680Y-52981320D01*
X104611200Y-53212460D01*
X104941400Y-53540120D01*
X104994740Y-53590920D01*
X105258900Y-53844920D01*
X105479880Y-54048120D01*
X105634820Y-54187820D01*
X105703400Y-54238620D01*
X105703400Y-54238620D01*
G37*
X105703400Y-54238620D02*
X105782140Y-54195440D01*
X105957400Y-54086220D01*
X106208860Y-53921120D01*
X106503500Y-53723000D01*
X106800680Y-53522340D01*
X107044520Y-53359780D01*
X107217240Y-53250560D01*
X107288360Y-53209920D01*
X107326460Y-53222620D01*
X107468700Y-53291200D01*
X107671900Y-53397880D01*
X107791280Y-53458840D01*
X107979240Y-53540120D01*
X108073220Y-53557900D01*
X108088460Y-53532500D01*
X108157040Y-53387720D01*
X108266260Y-53141340D01*
X108405960Y-52816220D01*
X108568520Y-52435220D01*
X108741240Y-52026280D01*
X108916500Y-51607180D01*
X109081600Y-51208400D01*
X109228920Y-50847720D01*
X109345760Y-50555620D01*
X109424500Y-50354960D01*
X109452440Y-50266060D01*
X109444820Y-50248280D01*
X109350840Y-50156840D01*
X109185740Y-50032380D01*
X108832680Y-49745360D01*
X108482160Y-49308480D01*
X108266260Y-48810640D01*
X108197680Y-48259460D01*
X108256100Y-47748920D01*
X108459300Y-47253620D01*
X108799660Y-46811660D01*
X109216220Y-46484000D01*
X109703900Y-46275720D01*
X110250000Y-46207140D01*
X110773240Y-46268100D01*
X111276160Y-46466220D01*
X111718120Y-46801500D01*
X111903540Y-47017400D01*
X112162620Y-47466980D01*
X112307400Y-47947040D01*
X112325180Y-48068960D01*
X112302320Y-48594740D01*
X112147380Y-49100200D01*
X111867980Y-49552320D01*
X111481900Y-49923160D01*
X111433640Y-49956180D01*
X111255840Y-50090800D01*
X111133920Y-50182240D01*
X111042480Y-50258440D01*
X111713040Y-51873880D01*
X111819720Y-52130420D01*
X112002600Y-52572380D01*
X112165160Y-52953380D01*
X112294700Y-53255640D01*
X112383600Y-53456300D01*
X112424240Y-53537580D01*
X112426780Y-53542660D01*
X112485200Y-53552820D01*
X112609660Y-53509640D01*
X112835720Y-53397880D01*
X112983040Y-53321680D01*
X113155760Y-53240400D01*
X113231960Y-53209920D01*
X113298000Y-53245480D01*
X113463100Y-53352160D01*
X113701860Y-53512180D01*
X113991420Y-53707760D01*
X114265740Y-53895720D01*
X114519740Y-54063360D01*
X114705160Y-54180200D01*
X114791520Y-54228460D01*
X114806760Y-54228460D01*
X114888040Y-54182740D01*
X115030280Y-54063360D01*
X115251260Y-53855080D01*
X115563680Y-53547740D01*
X115609400Y-53502020D01*
X115865940Y-53240400D01*
X116074220Y-53021960D01*
X116213920Y-52867020D01*
X116262180Y-52795900D01*
X116216460Y-52707000D01*
X116102160Y-52524120D01*
X115934520Y-52267580D01*
X115728780Y-51967860D01*
X115195380Y-51190620D01*
X115487480Y-50459100D01*
X115578920Y-50233040D01*
X115693220Y-49961260D01*
X115777040Y-49768220D01*
X115820220Y-49681860D01*
X115901500Y-49653920D01*
X116102160Y-49605660D01*
X116391720Y-49544700D01*
X116739700Y-49481200D01*
X117069900Y-49420240D01*
X117369620Y-49364360D01*
X117585520Y-49321180D01*
X117682040Y-49303400D01*
X117704900Y-49288160D01*
X117725220Y-49242440D01*
X117737920Y-49140840D01*
X117745540Y-48957960D01*
X117748080Y-48673480D01*
X117748080Y-48259460D01*
X117748080Y-48213740D01*
X117745540Y-47820040D01*
X117737920Y-47505080D01*
X117725220Y-47299340D01*
X117712520Y-47218060D01*
X117618540Y-47195200D01*
X117407720Y-47149480D01*
X117110540Y-47091060D01*
X116752400Y-47025020D01*
X116732080Y-47019940D01*
X116376480Y-46951360D01*
X116079300Y-46887860D01*
X115871020Y-46842140D01*
X115784660Y-46814200D01*
X115764340Y-46788800D01*
X115693220Y-46649100D01*
X115591620Y-46430660D01*
X115474780Y-46161420D01*
X115357940Y-45882020D01*
X115258880Y-45633100D01*
X115190300Y-45445140D01*
X115169980Y-45361320D01*
X115172520Y-45358780D01*
X115225860Y-45272420D01*
X115347780Y-45089540D01*
X115520500Y-44835540D01*
X115726240Y-44533280D01*
X115741480Y-44510420D01*
X115944680Y-44210700D01*
X116112320Y-43956700D01*
X116221540Y-43776360D01*
X116262180Y-43695080D01*
X116262180Y-43690000D01*
X116193600Y-43598560D01*
X116041200Y-43428380D01*
X115822760Y-43199780D01*
X115561140Y-42935620D01*
X115477320Y-42854340D01*
X115185220Y-42569860D01*
X114982020Y-42384440D01*
X114857560Y-42282840D01*
X114796600Y-42262520D01*
X114794060Y-42262520D01*
X114705160Y-42318400D01*
X114514660Y-42440320D01*
X114258120Y-42615580D01*
X113953320Y-42821320D01*
X113933000Y-42836560D01*
X113633280Y-43039760D01*
X113381820Y-43209940D01*
X113206560Y-43326780D01*
X113127820Y-43372500D01*
X113115120Y-43372500D01*
X112993200Y-43336940D01*
X112779840Y-43263280D01*
X112518220Y-43161680D01*
X112238820Y-43049920D01*
X111987360Y-42943240D01*
X111799400Y-42856880D01*
X111710500Y-42806080D01*
X111707960Y-42803540D01*
X111674940Y-42694320D01*
X111624140Y-42470800D01*
X111560640Y-42160920D01*
X111489520Y-41795160D01*
X111479360Y-41736740D01*
X111410780Y-41378600D01*
X111354900Y-41083960D01*
X111311720Y-40878220D01*
X111291400Y-40794400D01*
X111240600Y-40784240D01*
X111065340Y-40771540D01*
X110798640Y-40763920D01*
X110476060Y-40761380D01*
X110135700Y-40761380D01*
X109805500Y-40769000D01*
X109521020Y-40779160D01*
X109320360Y-40794400D01*
X109234000Y-40809640D01*
X109231460Y-40814720D01*
X109200980Y-40926480D01*
X109150180Y-41150000D01*
X109086680Y-41462420D01*
X109018100Y-41828180D01*
X109005400Y-41894220D01*
X108936820Y-42249820D01*
X108878400Y-42541920D01*
X108835220Y-42745120D01*
X108812360Y-42823860D01*
X108779340Y-42839100D01*
X108632020Y-42905140D01*
X108393260Y-43004200D01*
X108098620Y-43123580D01*
X107410280Y-43400440D01*
X106569540Y-42823860D01*
X106493340Y-42770520D01*
X106188540Y-42564780D01*
X105939620Y-42399680D01*
X105766900Y-42287920D01*
X105695780Y-42247280D01*
X105690700Y-42249820D01*
X105606880Y-42323480D01*
X105439240Y-42480960D01*
X105213180Y-42701940D01*
X104946480Y-42966100D01*
X104750900Y-43161680D01*
X104519760Y-43397900D01*
X104372440Y-43557920D01*
X104291160Y-43659520D01*
X104263220Y-43720480D01*
X104270840Y-43761120D01*
X104324180Y-43847480D01*
X104448640Y-44032900D01*
X104621360Y-44289440D01*
X104827100Y-44586620D01*
X104994740Y-44835540D01*
X105177620Y-45117480D01*
X105297000Y-45320680D01*
X105337640Y-45417200D01*
X105327480Y-45457840D01*
X105269060Y-45622940D01*
X105167460Y-45871860D01*
X105043000Y-46169040D01*
X104748360Y-46834520D01*
X104311480Y-46920880D01*
X104047320Y-46969140D01*
X103679020Y-47040260D01*
X103323420Y-47108840D01*
X102769700Y-47218060D01*
X102751920Y-49250060D01*
X102835740Y-49288160D01*
X102917020Y-49308480D01*
X103122760Y-49354200D01*
X103414860Y-49412620D01*
X103760300Y-49478660D01*
X104054940Y-49532000D01*
X104352120Y-49587880D01*
X104562940Y-49631060D01*
X104656920Y-49651380D01*
X104682320Y-49681860D01*
X104755980Y-49826640D01*
X104860120Y-50052700D01*
X104979500Y-50327020D01*
X105098880Y-50614040D01*
X105203020Y-50875660D01*
X105274140Y-51073780D01*
X105302080Y-51177920D01*
X105261440Y-51256660D01*
X105149680Y-51431920D01*
X104987120Y-51678300D01*
X104783920Y-51972940D01*
X104583260Y-52267580D01*
X104413080Y-52519040D01*
X104293700Y-52701920D01*
X104245440Y-52783200D01*
X104270840Y-52839080D01*
X104387680Y-52981320D01*
X104611200Y-53212460D01*
X104941400Y-53540120D01*
X104994740Y-53590920D01*
X105258900Y-53844920D01*
X105479880Y-54048120D01*
X105634820Y-54187820D01*
X105703400Y-54238620D01*
D12*
X178905000Y-104520000D02*
X178905000Y-105850000D01*
X177575000Y-104520000D02*
X178905000Y-104520000D01*
X176305000Y-104520000D02*
X176305000Y-107180000D01*
X176305000Y-107180000D02*
X168625000Y-107180000D01*
X176305000Y-104520000D02*
X168625000Y-104520000D01*
X168625000Y-104520000D02*
X168625000Y-107180000D01*
X175547936Y-85310000D02*
X176752064Y-85310000D01*
X175547936Y-83490000D02*
X176752064Y-83490000D01*
X162514564Y-87110000D02*
X161310436Y-87110000D01*
X162514564Y-85290000D02*
X161310436Y-85290000D01*
X162671267Y-87740000D02*
X162328733Y-87740000D01*
X162671267Y-88760000D02*
X162328733Y-88760000D01*
X151635000Y-81302064D02*
X151635000Y-80097936D01*
X149815000Y-81302064D02*
X149815000Y-80097936D01*
X152140000Y-82477064D02*
X152140000Y-81272936D01*
X153960000Y-82477064D02*
X153960000Y-81272936D01*
X126221267Y-103435000D02*
X125878733Y-103435000D01*
X126221267Y-102415000D02*
X125878733Y-102415000D01*
X134765000Y-99996267D02*
X134765000Y-99653733D01*
X135785000Y-99996267D02*
X135785000Y-99653733D01*
X168700000Y-98270000D02*
X168700000Y-100930000D01*
X176380000Y-98270000D02*
X168700000Y-98270000D01*
X176380000Y-100930000D02*
X168700000Y-100930000D01*
X176380000Y-98270000D02*
X176380000Y-100930000D01*
X177650000Y-98270000D02*
X178980000Y-98270000D01*
X178980000Y-98270000D02*
X178980000Y-99600000D01*
X188509756Y-105116682D02*
G75*
G02X188655000Y-105800000I-1534756J-683318D01*
G01*
X186291958Y-104264574D02*
G75*
G02X187659000Y-104265000I683042J-1535426D01*
G01*
X185439574Y-106483042D02*
G75*
G02X185440000Y-105116000I1535426J683042D01*
G01*
X187658042Y-107335426D02*
G75*
G02X186291000Y-107335000I-683042J1535426D01*
G01*
X188655253Y-105771195D02*
G75*
G02X188510000Y-106484000I-1680253J-28805D01*
G01*
X188655000Y-100800000D02*
G75*
G03X188655000Y-100800000I-1680000J0D01*
G01*
X191075000Y-108360000D02*
X191075000Y-98240000D01*
X189575000Y-108360000D02*
X189575000Y-98240000D01*
X184674000Y-108360000D02*
X184674000Y-98240000D01*
X181714000Y-108360000D02*
X181714000Y-98240000D01*
X191635000Y-108360000D02*
X191635000Y-98240000D01*
X181714000Y-108360000D02*
X191635000Y-108360000D01*
X181714000Y-98240000D02*
X191635000Y-98240000D01*
X185906000Y-99525000D02*
X185952000Y-99572000D01*
X188214000Y-101834000D02*
X188249000Y-101869000D01*
X185700000Y-99730000D02*
X185736000Y-99765000D01*
X187998000Y-102027000D02*
X188044000Y-102074000D01*
X191135000Y-108600000D02*
X191875000Y-108600000D01*
X191875000Y-108600000D02*
X191875000Y-108100000D01*
X167170000Y-76300000D02*
X167992470Y-76300000D01*
X169877530Y-76300000D02*
X170700000Y-76300000D01*
X168607530Y-76300000D02*
X169262470Y-76300000D01*
X167170000Y-71285000D02*
X167170000Y-76300000D01*
X170700000Y-69830000D02*
X170700000Y-76300000D01*
X167170000Y-71285000D02*
X167736529Y-71285000D01*
X168863471Y-71285000D02*
X169006529Y-71285000D01*
X169060000Y-71231529D02*
X169060000Y-71088471D01*
X169060000Y-69961529D02*
X169060000Y-69830000D01*
X169060000Y-69830000D02*
X169262470Y-69830000D01*
X169877530Y-69830000D02*
X170700000Y-69830000D01*
X167170000Y-70525000D02*
X167170000Y-69765000D01*
X167170000Y-69765000D02*
X168300000Y-69765000D01*
X133855000Y-101165000D02*
X132925000Y-101165000D01*
X130695000Y-101165000D02*
X131625000Y-101165000D01*
X130695000Y-101165000D02*
X130695000Y-103325000D01*
X133855000Y-101165000D02*
X133855000Y-102625000D01*
X172810000Y-69428733D02*
X172810000Y-69771267D01*
X171790000Y-69428733D02*
X171790000Y-69771267D01*
X168578733Y-77165000D02*
X168921267Y-77165000D01*
X168578733Y-78185000D02*
X168921267Y-78185000D01*
X175510000Y-94996267D02*
X175510000Y-94653733D01*
X174490000Y-94996267D02*
X174490000Y-94653733D01*
X172540000Y-94996267D02*
X172540000Y-94653733D01*
X173560000Y-94996267D02*
X173560000Y-94653733D01*
X145428733Y-82760000D02*
X145771267Y-82760000D01*
X145428733Y-81740000D02*
X145771267Y-81740000D01*
X124865000Y-99303733D02*
X124865000Y-99646267D01*
X125885000Y-99303733D02*
X125885000Y-99646267D01*
X128665000Y-101753733D02*
X128665000Y-102096267D01*
X129685000Y-101753733D02*
X129685000Y-102096267D01*
X128103733Y-98065000D02*
X128446267Y-98065000D01*
X128103733Y-99085000D02*
X128446267Y-99085000D01*
X132446267Y-99435000D02*
X132103733Y-99435000D01*
X132446267Y-98415000D02*
X132103733Y-98415000D01*
X168650000Y-82565000D02*
X166700000Y-82565000D01*
X168650000Y-82565000D02*
X170600000Y-82565000D01*
X168650000Y-91435000D02*
X166700000Y-91435000D01*
X168650000Y-91435000D02*
X172100000Y-91435000D01*
X186760436Y-109165000D02*
X187964564Y-109165000D01*
X186760436Y-110985000D02*
X187964564Y-110985000D01*
D14*
X123375000Y-101175000D02*
G75*
G03X123375000Y-101175000I-2000000J0D01*
G01*
D15*
X147188095Y-90652380D02*
X147188095Y-91461904D01*
X147235714Y-91557142D01*
X147283333Y-91604761D01*
X147378571Y-91652380D01*
X147569047Y-91652380D01*
X147664285Y-91604761D01*
X147711904Y-91557142D01*
X147759523Y-91461904D01*
X147759523Y-90652380D01*
X148188095Y-90747619D02*
X148235714Y-90700000D01*
X148330952Y-90652380D01*
X148569047Y-90652380D01*
X148664285Y-90700000D01*
X148711904Y-90747619D01*
X148759523Y-90842857D01*
X148759523Y-90938095D01*
X148711904Y-91080952D01*
X148140476Y-91652380D01*
X148759523Y-91652380D01*
X167002380Y-106258333D02*
X167716666Y-106258333D01*
X167859523Y-106305952D01*
X167954761Y-106401190D01*
X168002380Y-106544047D01*
X168002380Y-106639285D01*
X167097619Y-105829761D02*
X167050000Y-105782142D01*
X167002380Y-105686904D01*
X167002380Y-105448809D01*
X167050000Y-105353571D01*
X167097619Y-105305952D01*
X167192857Y-105258333D01*
X167288095Y-105258333D01*
X167430952Y-105305952D01*
X168002380Y-105877380D01*
X168002380Y-105258333D01*
X175983333Y-82937142D02*
X175935714Y-82984761D01*
X175792857Y-83032380D01*
X175697619Y-83032380D01*
X175554761Y-82984761D01*
X175459523Y-82889523D01*
X175411904Y-82794285D01*
X175364285Y-82603809D01*
X175364285Y-82460952D01*
X175411904Y-82270476D01*
X175459523Y-82175238D01*
X175554761Y-82080000D01*
X175697619Y-82032380D01*
X175792857Y-82032380D01*
X175935714Y-82080000D01*
X175983333Y-82127619D01*
X176935714Y-83032380D02*
X176364285Y-83032380D01*
X176650000Y-83032380D02*
X176650000Y-82032380D01*
X176554761Y-82175238D01*
X176459523Y-82270476D01*
X176364285Y-82318095D01*
X161858333Y-84507142D02*
X161810714Y-84554761D01*
X161667857Y-84602380D01*
X161572619Y-84602380D01*
X161429761Y-84554761D01*
X161334523Y-84459523D01*
X161286904Y-84364285D01*
X161239285Y-84173809D01*
X161239285Y-84030952D01*
X161286904Y-83840476D01*
X161334523Y-83745238D01*
X161429761Y-83650000D01*
X161572619Y-83602380D01*
X161667857Y-83602380D01*
X161810714Y-83650000D01*
X161858333Y-83697619D01*
X162239285Y-83697619D02*
X162286904Y-83650000D01*
X162382142Y-83602380D01*
X162620238Y-83602380D01*
X162715476Y-83650000D01*
X162763095Y-83697619D01*
X162810714Y-83792857D01*
X162810714Y-83888095D01*
X162763095Y-84030952D01*
X162191666Y-84602380D01*
X162810714Y-84602380D01*
X162108333Y-90057142D02*
X162060714Y-90104761D01*
X161917857Y-90152380D01*
X161822619Y-90152380D01*
X161679761Y-90104761D01*
X161584523Y-90009523D01*
X161536904Y-89914285D01*
X161489285Y-89723809D01*
X161489285Y-89580952D01*
X161536904Y-89390476D01*
X161584523Y-89295238D01*
X161679761Y-89200000D01*
X161822619Y-89152380D01*
X161917857Y-89152380D01*
X162060714Y-89200000D01*
X162108333Y-89247619D01*
X162441666Y-89152380D02*
X163060714Y-89152380D01*
X162727380Y-89533333D01*
X162870238Y-89533333D01*
X162965476Y-89580952D01*
X163013095Y-89628571D01*
X163060714Y-89723809D01*
X163060714Y-89961904D01*
X163013095Y-90057142D01*
X162965476Y-90104761D01*
X162870238Y-90152380D01*
X162584523Y-90152380D01*
X162489285Y-90104761D01*
X162441666Y-90057142D01*
X149457142Y-79891666D02*
X149504761Y-79939285D01*
X149552380Y-80082142D01*
X149552380Y-80177380D01*
X149504761Y-80320238D01*
X149409523Y-80415476D01*
X149314285Y-80463095D01*
X149123809Y-80510714D01*
X148980952Y-80510714D01*
X148790476Y-80463095D01*
X148695238Y-80415476D01*
X148600000Y-80320238D01*
X148552380Y-80177380D01*
X148552380Y-80082142D01*
X148600000Y-79939285D01*
X148647619Y-79891666D01*
X148885714Y-79034523D02*
X149552380Y-79034523D01*
X148504761Y-79272619D02*
X149219047Y-79510714D01*
X149219047Y-78891666D01*
X155382142Y-81441666D02*
X155429761Y-81489285D01*
X155477380Y-81632142D01*
X155477380Y-81727380D01*
X155429761Y-81870238D01*
X155334523Y-81965476D01*
X155239285Y-82013095D01*
X155048809Y-82060714D01*
X154905952Y-82060714D01*
X154715476Y-82013095D01*
X154620238Y-81965476D01*
X154525000Y-81870238D01*
X154477380Y-81727380D01*
X154477380Y-81632142D01*
X154525000Y-81489285D01*
X154572619Y-81441666D01*
X154477380Y-80536904D02*
X154477380Y-81013095D01*
X154953571Y-81060714D01*
X154905952Y-81013095D01*
X154858333Y-80917857D01*
X154858333Y-80679761D01*
X154905952Y-80584523D01*
X154953571Y-80536904D01*
X155048809Y-80489285D01*
X155286904Y-80489285D01*
X155382142Y-80536904D01*
X155429761Y-80584523D01*
X155477380Y-80679761D01*
X155477380Y-80917857D01*
X155429761Y-81013095D01*
X155382142Y-81060714D01*
X126533333Y-104982142D02*
X126485714Y-105029761D01*
X126342857Y-105077380D01*
X126247619Y-105077380D01*
X126104761Y-105029761D01*
X126009523Y-104934523D01*
X125961904Y-104839285D01*
X125914285Y-104648809D01*
X125914285Y-104505952D01*
X125961904Y-104315476D01*
X126009523Y-104220238D01*
X126104761Y-104125000D01*
X126247619Y-104077380D01*
X126342857Y-104077380D01*
X126485714Y-104125000D01*
X126533333Y-104172619D01*
X127390476Y-104077380D02*
X127200000Y-104077380D01*
X127104761Y-104125000D01*
X127057142Y-104172619D01*
X126961904Y-104315476D01*
X126914285Y-104505952D01*
X126914285Y-104886904D01*
X126961904Y-104982142D01*
X127009523Y-105029761D01*
X127104761Y-105077380D01*
X127295238Y-105077380D01*
X127390476Y-105029761D01*
X127438095Y-104982142D01*
X127485714Y-104886904D01*
X127485714Y-104648809D01*
X127438095Y-104553571D01*
X127390476Y-104505952D01*
X127295238Y-104458333D01*
X127104761Y-104458333D01*
X127009523Y-104505952D01*
X126961904Y-104553571D01*
X126914285Y-104648809D01*
X137257142Y-100041666D02*
X137304761Y-100089285D01*
X137352380Y-100232142D01*
X137352380Y-100327380D01*
X137304761Y-100470238D01*
X137209523Y-100565476D01*
X137114285Y-100613095D01*
X136923809Y-100660714D01*
X136780952Y-100660714D01*
X136590476Y-100613095D01*
X136495238Y-100565476D01*
X136400000Y-100470238D01*
X136352380Y-100327380D01*
X136352380Y-100232142D01*
X136400000Y-100089285D01*
X136447619Y-100041666D01*
X136352380Y-99708333D02*
X136352380Y-99041666D01*
X137352380Y-99470238D01*
X167127380Y-99983333D02*
X167841666Y-99983333D01*
X167984523Y-100030952D01*
X168079761Y-100126190D01*
X168127380Y-100269047D01*
X168127380Y-100364285D01*
X168127380Y-98983333D02*
X168127380Y-99554761D01*
X168127380Y-99269047D02*
X167127380Y-99269047D01*
X167270238Y-99364285D01*
X167365476Y-99459523D01*
X167413095Y-99554761D01*
X186491666Y-96852380D02*
X186491666Y-97566666D01*
X186444047Y-97709523D01*
X186348809Y-97804761D01*
X186205952Y-97852380D01*
X186110714Y-97852380D01*
X186872619Y-96852380D02*
X187491666Y-96852380D01*
X187158333Y-97233333D01*
X187301190Y-97233333D01*
X187396428Y-97280952D01*
X187444047Y-97328571D01*
X187491666Y-97423809D01*
X187491666Y-97661904D01*
X187444047Y-97757142D01*
X187396428Y-97804761D01*
X187301190Y-97852380D01*
X187015476Y-97852380D01*
X186920238Y-97804761D01*
X186872619Y-97757142D01*
X168601666Y-68282380D02*
X168601666Y-68996666D01*
X168554047Y-69139523D01*
X168458809Y-69234761D01*
X168315952Y-69282380D01*
X168220714Y-69282380D01*
X169506428Y-68615714D02*
X169506428Y-69282380D01*
X169268333Y-68234761D02*
X169030238Y-68949047D01*
X169649285Y-68949047D01*
X135297619Y-103720238D02*
X135250000Y-103815476D01*
X135154761Y-103910714D01*
X135011904Y-104053571D01*
X134964285Y-104148809D01*
X134964285Y-104244047D01*
X135202380Y-104196428D02*
X135154761Y-104291666D01*
X135059523Y-104386904D01*
X134869047Y-104434523D01*
X134535714Y-104434523D01*
X134345238Y-104386904D01*
X134250000Y-104291666D01*
X134202380Y-104196428D01*
X134202380Y-104005952D01*
X134250000Y-103910714D01*
X134345238Y-103815476D01*
X134535714Y-103767857D01*
X134869047Y-103767857D01*
X135059523Y-103815476D01*
X135154761Y-103910714D01*
X135202380Y-104005952D01*
X135202380Y-104196428D01*
X135202380Y-102815476D02*
X135202380Y-103386904D01*
X135202380Y-103101190D02*
X134202380Y-103101190D01*
X134345238Y-103196428D01*
X134440476Y-103291666D01*
X134488095Y-103386904D01*
X171177380Y-69491666D02*
X170701190Y-69825000D01*
X171177380Y-70063095D02*
X170177380Y-70063095D01*
X170177380Y-69682142D01*
X170225000Y-69586904D01*
X170272619Y-69539285D01*
X170367857Y-69491666D01*
X170510714Y-69491666D01*
X170605952Y-69539285D01*
X170653571Y-69586904D01*
X170701190Y-69682142D01*
X170701190Y-70063095D01*
X171177380Y-68539285D02*
X171177380Y-69110714D01*
X171177380Y-68825000D02*
X170177380Y-68825000D01*
X170320238Y-68920238D01*
X170415476Y-69015476D01*
X170463095Y-69110714D01*
X168683333Y-79577380D02*
X168350000Y-79101190D01*
X168111904Y-79577380D02*
X168111904Y-78577380D01*
X168492857Y-78577380D01*
X168588095Y-78625000D01*
X168635714Y-78672619D01*
X168683333Y-78767857D01*
X168683333Y-78910714D01*
X168635714Y-79005952D01*
X168588095Y-79053571D01*
X168492857Y-79101190D01*
X168111904Y-79101190D01*
X169064285Y-78672619D02*
X169111904Y-78625000D01*
X169207142Y-78577380D01*
X169445238Y-78577380D01*
X169540476Y-78625000D01*
X169588095Y-78672619D01*
X169635714Y-78767857D01*
X169635714Y-78863095D01*
X169588095Y-79005952D01*
X169016666Y-79577380D01*
X169635714Y-79577380D01*
X177002380Y-95791666D02*
X176526190Y-96125000D01*
X177002380Y-96363095D02*
X176002380Y-96363095D01*
X176002380Y-95982142D01*
X176050000Y-95886904D01*
X176097619Y-95839285D01*
X176192857Y-95791666D01*
X176335714Y-95791666D01*
X176430952Y-95839285D01*
X176478571Y-95886904D01*
X176526190Y-95982142D01*
X176526190Y-96363095D01*
X176002380Y-95458333D02*
X176002380Y-94839285D01*
X176383333Y-95172619D01*
X176383333Y-95029761D01*
X176430952Y-94934523D01*
X176478571Y-94886904D01*
X176573809Y-94839285D01*
X176811904Y-94839285D01*
X176907142Y-94886904D01*
X176954761Y-94934523D01*
X177002380Y-95029761D01*
X177002380Y-95315476D01*
X176954761Y-95410714D01*
X176907142Y-95458333D01*
X172072380Y-95641666D02*
X171596190Y-95975000D01*
X172072380Y-96213095D02*
X171072380Y-96213095D01*
X171072380Y-95832142D01*
X171120000Y-95736904D01*
X171167619Y-95689285D01*
X171262857Y-95641666D01*
X171405714Y-95641666D01*
X171500952Y-95689285D01*
X171548571Y-95736904D01*
X171596190Y-95832142D01*
X171596190Y-96213095D01*
X171405714Y-94784523D02*
X172072380Y-94784523D01*
X171024761Y-95022619D02*
X171739047Y-95260714D01*
X171739047Y-94641666D01*
X145433333Y-81272380D02*
X145100000Y-80796190D01*
X144861904Y-81272380D02*
X144861904Y-80272380D01*
X145242857Y-80272380D01*
X145338095Y-80320000D01*
X145385714Y-80367619D01*
X145433333Y-80462857D01*
X145433333Y-80605714D01*
X145385714Y-80700952D01*
X145338095Y-80748571D01*
X145242857Y-80796190D01*
X144861904Y-80796190D01*
X146338095Y-80272380D02*
X145861904Y-80272380D01*
X145814285Y-80748571D01*
X145861904Y-80700952D01*
X145957142Y-80653333D01*
X146195238Y-80653333D01*
X146290476Y-80700952D01*
X146338095Y-80748571D01*
X146385714Y-80843809D01*
X146385714Y-81081904D01*
X146338095Y-81177142D01*
X146290476Y-81224761D01*
X146195238Y-81272380D01*
X145957142Y-81272380D01*
X145861904Y-81224761D01*
X145814285Y-81177142D01*
X124983333Y-97277380D02*
X124650000Y-96801190D01*
X124411904Y-97277380D02*
X124411904Y-96277380D01*
X124792857Y-96277380D01*
X124888095Y-96325000D01*
X124935714Y-96372619D01*
X124983333Y-96467857D01*
X124983333Y-96610714D01*
X124935714Y-96705952D01*
X124888095Y-96753571D01*
X124792857Y-96801190D01*
X124411904Y-96801190D01*
X125840476Y-96277380D02*
X125650000Y-96277380D01*
X125554761Y-96325000D01*
X125507142Y-96372619D01*
X125411904Y-96515476D01*
X125364285Y-96705952D01*
X125364285Y-97086904D01*
X125411904Y-97182142D01*
X125459523Y-97229761D01*
X125554761Y-97277380D01*
X125745238Y-97277380D01*
X125840476Y-97229761D01*
X125888095Y-97182142D01*
X125935714Y-97086904D01*
X125935714Y-96848809D01*
X125888095Y-96753571D01*
X125840476Y-96705952D01*
X125745238Y-96658333D01*
X125554761Y-96658333D01*
X125459523Y-96705952D01*
X125411904Y-96753571D01*
X125364285Y-96848809D01*
X129852380Y-104866666D02*
X129376190Y-105200000D01*
X129852380Y-105438095D02*
X128852380Y-105438095D01*
X128852380Y-105057142D01*
X128900000Y-104961904D01*
X128947619Y-104914285D01*
X129042857Y-104866666D01*
X129185714Y-104866666D01*
X129280952Y-104914285D01*
X129328571Y-104961904D01*
X129376190Y-105057142D01*
X129376190Y-105438095D01*
X128852380Y-104533333D02*
X128852380Y-103866666D01*
X129852380Y-104295238D01*
X127933333Y-97127380D02*
X127600000Y-96651190D01*
X127361904Y-97127380D02*
X127361904Y-96127380D01*
X127742857Y-96127380D01*
X127838095Y-96175000D01*
X127885714Y-96222619D01*
X127933333Y-96317857D01*
X127933333Y-96460714D01*
X127885714Y-96555952D01*
X127838095Y-96603571D01*
X127742857Y-96651190D01*
X127361904Y-96651190D01*
X128504761Y-96555952D02*
X128409523Y-96508333D01*
X128361904Y-96460714D01*
X128314285Y-96365476D01*
X128314285Y-96317857D01*
X128361904Y-96222619D01*
X128409523Y-96175000D01*
X128504761Y-96127380D01*
X128695238Y-96127380D01*
X128790476Y-96175000D01*
X128838095Y-96222619D01*
X128885714Y-96317857D01*
X128885714Y-96365476D01*
X128838095Y-96460714D01*
X128790476Y-96508333D01*
X128695238Y-96555952D01*
X128504761Y-96555952D01*
X128409523Y-96603571D01*
X128361904Y-96651190D01*
X128314285Y-96746428D01*
X128314285Y-96936904D01*
X128361904Y-97032142D01*
X128409523Y-97079761D01*
X128504761Y-97127380D01*
X128695238Y-97127380D01*
X128790476Y-97079761D01*
X128838095Y-97032142D01*
X128885714Y-96936904D01*
X128885714Y-96746428D01*
X128838095Y-96651190D01*
X128790476Y-96603571D01*
X128695238Y-96555952D01*
X131983333Y-97877380D02*
X131650000Y-97401190D01*
X131411904Y-97877380D02*
X131411904Y-96877380D01*
X131792857Y-96877380D01*
X131888095Y-96925000D01*
X131935714Y-96972619D01*
X131983333Y-97067857D01*
X131983333Y-97210714D01*
X131935714Y-97305952D01*
X131888095Y-97353571D01*
X131792857Y-97401190D01*
X131411904Y-97401190D01*
X132459523Y-97877380D02*
X132650000Y-97877380D01*
X132745238Y-97829761D01*
X132792857Y-97782142D01*
X132888095Y-97639285D01*
X132935714Y-97448809D01*
X132935714Y-97067857D01*
X132888095Y-96972619D01*
X132840476Y-96925000D01*
X132745238Y-96877380D01*
X132554761Y-96877380D01*
X132459523Y-96925000D01*
X132411904Y-96972619D01*
X132364285Y-97067857D01*
X132364285Y-97305952D01*
X132411904Y-97401190D01*
X132459523Y-97448809D01*
X132554761Y-97496428D01*
X132745238Y-97496428D01*
X132840476Y-97448809D01*
X132888095Y-97401190D01*
X132935714Y-97305952D01*
X167888095Y-91732380D02*
X167888095Y-92541904D01*
X167935714Y-92637142D01*
X167983333Y-92684761D01*
X168078571Y-92732380D01*
X168269047Y-92732380D01*
X168364285Y-92684761D01*
X168411904Y-92637142D01*
X168459523Y-92541904D01*
X168459523Y-91732380D01*
X169459523Y-92732380D02*
X168888095Y-92732380D01*
X169173809Y-92732380D02*
X169173809Y-91732380D01*
X169078571Y-91875238D01*
X168983333Y-91970476D01*
X168888095Y-92018095D01*
X187029166Y-108183571D02*
X186695833Y-108183571D01*
X186695833Y-108707380D02*
X186695833Y-107707380D01*
X187172023Y-107707380D01*
X188076785Y-108707380D02*
X187505357Y-108707380D01*
X187791071Y-108707380D02*
X187791071Y-107707380D01*
X187695833Y-107850238D01*
X187600595Y-107945476D01*
X187505357Y-107993095D01*
D16*
X118952380Y-102309523D02*
X117952380Y-102309523D01*
X118666666Y-101976190D01*
X117952380Y-101642857D01*
X118952380Y-101642857D01*
X118952380Y-101166666D02*
X117952380Y-101166666D01*
X118952380Y-100595238D02*
X118380952Y-101023809D01*
X117952380Y-100595238D02*
X118523809Y-101166666D01*
X118952380Y-99642857D02*
X118952380Y-100214285D01*
X118952380Y-99928571D02*
X117952380Y-99928571D01*
X118095238Y-100023809D01*
X118190476Y-100119047D01*
X118238095Y-100214285D01*
X122646428Y-104855952D02*
X122646428Y-104094047D01*
X123027380Y-104475000D02*
X122265476Y-104475000D01*
X122646428Y-99255952D02*
X122646428Y-98494047D01*
M02*
