M48
INCH,TZ
T1C0.0118
T2C0.0157
T3C0.0217
T4C0.0256
T5C0.0394
T6C0.0512
T7C0.1260
%
G90
G05
T1
X57712Y-33140
X57712Y-33652
X57712Y-34163
X57712Y-34675
X57712Y-35187
X58223Y-33140
X58223Y-33652
X58223Y-34163
X58223Y-34675
X58223Y-35187
X58735Y-33140
X58735Y-33652
X58735Y-34163
X58735Y-34675
X58735Y-35187
T2
X39616Y-26565
X39665Y-47451
X39686Y-52647
X39703Y-16276
X39734Y-42382
X39754Y-21368
X40187Y-34390
X40187Y-39734
X40197Y-45856
X40197Y-50896
X40217Y-23474
X40217Y-29262
X40256Y-18219
X45591Y-45856
X45591Y-50896
X45600Y-18219
X45600Y-23474
X45600Y-29331
X45610Y-39941
X45679Y-34596
X50266Y-45797
X50384Y-50896
X50640Y-18219
X50719Y-29262
X50758Y-23730
X52461Y-40965
X53120Y-34646
X53268Y-40098
X53287Y-38415
X54911Y-32824
X55335Y-32382
X55433Y-40394
X55541Y-45974
X55719Y-18179
X55719Y-51073
X55758Y-32825
X55778Y-23583
X56388Y-33051
X56437Y-40404
X56919Y-31191
X57126Y-37362
X57146Y-36703
X57431Y-40453
X57451Y-31191
X57667Y-31870
X58150Y-15413
X58937Y-40374
X59350Y-30571
X59665Y-40423
X60256Y-30945
X60768Y-40335
X60778Y-46024
X60837Y-18179
X60837Y-50827
X60856Y-41024
X61033Y-23366
X61220Y-41427
X61476Y-30167
X61654Y-37362
X61850Y-35886
X61949Y-29449
X62451Y-30167
X62520Y-33937
X63159Y-34744
X63278Y-33081
X63711Y-33081
X64341Y-40010
X64724Y-32746
X65482Y-50778
X65758Y-45856
X65896Y-18219
X66112Y-34252
X66142Y-23317
X69587Y-36900
X70531Y-33219
X70906Y-45797
X71004Y-29232
X71014Y-50827
X71181Y-34665
X71211Y-23366
X71240Y-18258
X75974Y-29232
X76043Y-50886
X76161Y-45856
X76319Y-23317
X76339Y-18297
X76594Y-42185
X76762Y-47313
X76791Y-24911
X76801Y-19892
X76837Y-52617
X76977Y-16288
T3
X47963Y-39557
X47963Y-40108
T4
X66260Y-27766
X66260Y-28266
X66260Y-28766
X66260Y-29266
X66260Y-29766
X66760Y-27766
X66760Y-28266
X66760Y-28766
X66760Y-29266
X66760Y-29766
T5
X66941Y-39213
X67941Y-39213
X68941Y-39213
X69941Y-39213
X66911Y-41673
X67911Y-41673
X68911Y-41673
X69911Y-41673
T6
X73612Y-39685
X73612Y-41654
T7
X40354Y-37087
X40374Y-31850
X76181Y-37008
X76211Y-31860
T0
M30
