G04 #@! TF.GenerationSoftware,KiCad,Pcbnew,(5.1.2-1)-1*
G04 #@! TF.CreationDate,2019-08-17T07:29:06+01:00*
G04 #@! TF.ProjectId,led_controller,6c65645f-636f-46e7-9472-6f6c6c65722e,rev?*
G04 #@! TF.SameCoordinates,Original*
G04 #@! TF.FileFunction,Soldermask,Top*
G04 #@! TF.FilePolarity,Negative*
%FSLAX46Y46*%
G04 Gerber Fmt 4.6, Leading zero omitted, Abs format (unit mm)*
G04 Created by KiCad (PCBNEW (5.1.2-1)-1) date 2019-08-17 07:29:06*
%MOMM*%
%LPD*%
G04 APERTURE LIST*
%ADD10C,0.100000*%
G04 APERTURE END LIST*
D10*
G36*
X189463062Y-109153181D02*
G01*
X189497981Y-109163774D01*
X189530163Y-109180976D01*
X189558373Y-109204127D01*
X189581524Y-109232337D01*
X189598726Y-109264519D01*
X189609319Y-109299438D01*
X189613500Y-109341895D01*
X189613500Y-110808105D01*
X189609319Y-110850562D01*
X189598726Y-110885481D01*
X189581524Y-110917663D01*
X189558373Y-110945873D01*
X189530163Y-110969024D01*
X189497981Y-110986226D01*
X189463062Y-110996819D01*
X189420605Y-111001000D01*
X188279395Y-111001000D01*
X188236938Y-110996819D01*
X188202019Y-110986226D01*
X188169837Y-110969024D01*
X188141627Y-110945873D01*
X188118476Y-110917663D01*
X188101274Y-110885481D01*
X188090681Y-110850562D01*
X188086500Y-110808105D01*
X188086500Y-109341895D01*
X188090681Y-109299438D01*
X188101274Y-109264519D01*
X188118476Y-109232337D01*
X188141627Y-109204127D01*
X188169837Y-109180976D01*
X188202019Y-109163774D01*
X188236938Y-109153181D01*
X188279395Y-109149000D01*
X189420605Y-109149000D01*
X189463062Y-109153181D01*
X189463062Y-109153181D01*
G37*
G36*
X186488062Y-109153181D02*
G01*
X186522981Y-109163774D01*
X186555163Y-109180976D01*
X186583373Y-109204127D01*
X186606524Y-109232337D01*
X186623726Y-109264519D01*
X186634319Y-109299438D01*
X186638500Y-109341895D01*
X186638500Y-110808105D01*
X186634319Y-110850562D01*
X186623726Y-110885481D01*
X186606524Y-110917663D01*
X186583373Y-110945873D01*
X186555163Y-110969024D01*
X186522981Y-110986226D01*
X186488062Y-110996819D01*
X186445605Y-111001000D01*
X185304395Y-111001000D01*
X185261938Y-110996819D01*
X185227019Y-110986226D01*
X185194837Y-110969024D01*
X185166627Y-110945873D01*
X185143476Y-110917663D01*
X185126274Y-110885481D01*
X185115681Y-110850562D01*
X185111500Y-110808105D01*
X185111500Y-109341895D01*
X185115681Y-109299438D01*
X185126274Y-109264519D01*
X185143476Y-109232337D01*
X185166627Y-109204127D01*
X185194837Y-109180976D01*
X185227019Y-109163774D01*
X185261938Y-109153181D01*
X185304395Y-109149000D01*
X186445605Y-109149000D01*
X186488062Y-109153181D01*
X186488062Y-109153181D01*
G37*
G36*
X188326000Y-107151000D02*
G01*
X185624000Y-107151000D01*
X185624000Y-104449000D01*
X188326000Y-104449000D01*
X188326000Y-107151000D01*
X188326000Y-107151000D01*
G37*
G36*
X170065442Y-104955518D02*
G01*
X170131627Y-104962037D01*
X170301466Y-105013557D01*
X170457991Y-105097222D01*
X170493729Y-105126552D01*
X170595186Y-105209814D01*
X170678448Y-105311271D01*
X170707778Y-105347009D01*
X170791443Y-105503534D01*
X170842963Y-105673373D01*
X170860359Y-105850000D01*
X170842963Y-106026627D01*
X170791443Y-106196466D01*
X170707778Y-106352991D01*
X170678448Y-106388729D01*
X170595186Y-106490186D01*
X170493729Y-106573448D01*
X170457991Y-106602778D01*
X170301466Y-106686443D01*
X170131627Y-106737963D01*
X170065443Y-106744481D01*
X169999260Y-106751000D01*
X169910740Y-106751000D01*
X169844557Y-106744481D01*
X169778373Y-106737963D01*
X169608534Y-106686443D01*
X169452009Y-106602778D01*
X169416271Y-106573448D01*
X169314814Y-106490186D01*
X169231552Y-106388729D01*
X169202222Y-106352991D01*
X169118557Y-106196466D01*
X169067037Y-106026627D01*
X169049641Y-105850000D01*
X169067037Y-105673373D01*
X169118557Y-105503534D01*
X169202222Y-105347009D01*
X169231552Y-105311271D01*
X169314814Y-105209814D01*
X169416271Y-105126552D01*
X169452009Y-105097222D01*
X169608534Y-105013557D01*
X169778373Y-104962037D01*
X169844558Y-104955518D01*
X169910740Y-104949000D01*
X169999260Y-104949000D01*
X170065442Y-104955518D01*
X170065442Y-104955518D01*
G37*
G36*
X172605442Y-104955518D02*
G01*
X172671627Y-104962037D01*
X172841466Y-105013557D01*
X172997991Y-105097222D01*
X173033729Y-105126552D01*
X173135186Y-105209814D01*
X173218448Y-105311271D01*
X173247778Y-105347009D01*
X173331443Y-105503534D01*
X173382963Y-105673373D01*
X173400359Y-105850000D01*
X173382963Y-106026627D01*
X173331443Y-106196466D01*
X173247778Y-106352991D01*
X173218448Y-106388729D01*
X173135186Y-106490186D01*
X173033729Y-106573448D01*
X172997991Y-106602778D01*
X172841466Y-106686443D01*
X172671627Y-106737963D01*
X172605443Y-106744481D01*
X172539260Y-106751000D01*
X172450740Y-106751000D01*
X172384557Y-106744481D01*
X172318373Y-106737963D01*
X172148534Y-106686443D01*
X171992009Y-106602778D01*
X171956271Y-106573448D01*
X171854814Y-106490186D01*
X171771552Y-106388729D01*
X171742222Y-106352991D01*
X171658557Y-106196466D01*
X171607037Y-106026627D01*
X171589641Y-105850000D01*
X171607037Y-105673373D01*
X171658557Y-105503534D01*
X171742222Y-105347009D01*
X171771552Y-105311271D01*
X171854814Y-105209814D01*
X171956271Y-105126552D01*
X171992009Y-105097222D01*
X172148534Y-105013557D01*
X172318373Y-104962037D01*
X172384558Y-104955518D01*
X172450740Y-104949000D01*
X172539260Y-104949000D01*
X172605442Y-104955518D01*
X172605442Y-104955518D01*
G37*
G36*
X175145442Y-104955518D02*
G01*
X175211627Y-104962037D01*
X175381466Y-105013557D01*
X175537991Y-105097222D01*
X175573729Y-105126552D01*
X175675186Y-105209814D01*
X175758448Y-105311271D01*
X175787778Y-105347009D01*
X175871443Y-105503534D01*
X175922963Y-105673373D01*
X175940359Y-105850000D01*
X175922963Y-106026627D01*
X175871443Y-106196466D01*
X175787778Y-106352991D01*
X175758448Y-106388729D01*
X175675186Y-106490186D01*
X175573729Y-106573448D01*
X175537991Y-106602778D01*
X175381466Y-106686443D01*
X175211627Y-106737963D01*
X175145443Y-106744481D01*
X175079260Y-106751000D01*
X174990740Y-106751000D01*
X174924557Y-106744481D01*
X174858373Y-106737963D01*
X174688534Y-106686443D01*
X174532009Y-106602778D01*
X174496271Y-106573448D01*
X174394814Y-106490186D01*
X174311552Y-106388729D01*
X174282222Y-106352991D01*
X174198557Y-106196466D01*
X174147037Y-106026627D01*
X174129641Y-105850000D01*
X174147037Y-105673373D01*
X174198557Y-105503534D01*
X174282222Y-105347009D01*
X174311552Y-105311271D01*
X174394814Y-105209814D01*
X174496271Y-105126552D01*
X174532009Y-105097222D01*
X174688534Y-105013557D01*
X174858373Y-104962037D01*
X174924558Y-104955518D01*
X174990740Y-104949000D01*
X175079260Y-104949000D01*
X175145442Y-104955518D01*
X175145442Y-104955518D01*
G37*
G36*
X178476000Y-106751000D02*
G01*
X176674000Y-106751000D01*
X176674000Y-104949000D01*
X178476000Y-104949000D01*
X178476000Y-106751000D01*
X178476000Y-106751000D01*
G37*
G36*
X127339499Y-102403445D02*
G01*
X127376995Y-102414820D01*
X127411554Y-102433292D01*
X127441847Y-102458153D01*
X127466708Y-102488446D01*
X127485180Y-102523005D01*
X127496555Y-102560501D01*
X127501000Y-102605638D01*
X127501000Y-103244362D01*
X127496555Y-103289499D01*
X127485180Y-103326995D01*
X127466708Y-103361554D01*
X127441847Y-103391847D01*
X127411554Y-103416708D01*
X127376995Y-103435180D01*
X127339499Y-103446555D01*
X127294362Y-103451000D01*
X126555638Y-103451000D01*
X126510501Y-103446555D01*
X126473005Y-103435180D01*
X126438446Y-103416708D01*
X126408153Y-103391847D01*
X126383292Y-103361554D01*
X126364820Y-103326995D01*
X126353445Y-103289499D01*
X126349000Y-103244362D01*
X126349000Y-102605638D01*
X126353445Y-102560501D01*
X126364820Y-102523005D01*
X126383292Y-102488446D01*
X126408153Y-102458153D01*
X126438446Y-102433292D01*
X126473005Y-102414820D01*
X126510501Y-102403445D01*
X126555638Y-102399000D01*
X127294362Y-102399000D01*
X127339499Y-102403445D01*
X127339499Y-102403445D01*
G37*
G36*
X125589499Y-102403445D02*
G01*
X125626995Y-102414820D01*
X125661554Y-102433292D01*
X125691847Y-102458153D01*
X125716708Y-102488446D01*
X125735180Y-102523005D01*
X125746555Y-102560501D01*
X125751000Y-102605638D01*
X125751000Y-103244362D01*
X125746555Y-103289499D01*
X125735180Y-103326995D01*
X125716708Y-103361554D01*
X125691847Y-103391847D01*
X125661554Y-103416708D01*
X125626995Y-103435180D01*
X125589499Y-103446555D01*
X125544362Y-103451000D01*
X124805638Y-103451000D01*
X124760501Y-103446555D01*
X124723005Y-103435180D01*
X124688446Y-103416708D01*
X124658153Y-103391847D01*
X124633292Y-103361554D01*
X124614820Y-103326995D01*
X124603445Y-103289499D01*
X124599000Y-103244362D01*
X124599000Y-102605638D01*
X124603445Y-102560501D01*
X124614820Y-102523005D01*
X124633292Y-102488446D01*
X124658153Y-102458153D01*
X124688446Y-102433292D01*
X124723005Y-102414820D01*
X124760501Y-102403445D01*
X124805638Y-102399000D01*
X125544362Y-102399000D01*
X125589499Y-102403445D01*
X125589499Y-102403445D01*
G37*
G36*
X133676000Y-103426000D02*
G01*
X132774000Y-103426000D01*
X132774000Y-102424000D01*
X133676000Y-102424000D01*
X133676000Y-103426000D01*
X133676000Y-103426000D01*
G37*
G36*
X131776000Y-103426000D02*
G01*
X130874000Y-103426000D01*
X130874000Y-102424000D01*
X131776000Y-102424000D01*
X131776000Y-103426000D01*
X131776000Y-103426000D01*
G37*
G36*
X129539499Y-102228445D02*
G01*
X129576995Y-102239820D01*
X129611554Y-102258292D01*
X129641847Y-102283153D01*
X129666708Y-102313446D01*
X129685180Y-102348005D01*
X129696555Y-102385501D01*
X129701000Y-102430638D01*
X129701000Y-103169362D01*
X129696555Y-103214499D01*
X129685180Y-103251995D01*
X129666708Y-103286554D01*
X129641847Y-103316847D01*
X129611554Y-103341708D01*
X129576995Y-103360180D01*
X129539499Y-103371555D01*
X129494362Y-103376000D01*
X128855638Y-103376000D01*
X128810501Y-103371555D01*
X128773005Y-103360180D01*
X128738446Y-103341708D01*
X128708153Y-103316847D01*
X128683292Y-103286554D01*
X128664820Y-103251995D01*
X128653445Y-103214499D01*
X128649000Y-103169362D01*
X128649000Y-102430638D01*
X128653445Y-102385501D01*
X128664820Y-102348005D01*
X128683292Y-102313446D01*
X128708153Y-102283153D01*
X128738446Y-102258292D01*
X128773005Y-102239820D01*
X128810501Y-102228445D01*
X128855638Y-102224000D01*
X129494362Y-102224000D01*
X129539499Y-102228445D01*
X129539499Y-102228445D01*
G37*
G36*
X121922740Y-101383626D02*
G01*
X121971136Y-101393253D01*
X122008902Y-101408896D01*
X122062311Y-101431019D01*
X122103062Y-101458248D01*
X122144369Y-101485848D01*
X122214152Y-101555631D01*
X122214153Y-101555633D01*
X122268981Y-101637689D01*
X122306747Y-101728865D01*
X122326000Y-101825655D01*
X122326000Y-101924345D01*
X122306747Y-102021135D01*
X122268981Y-102112311D01*
X122268980Y-102112312D01*
X122214152Y-102194369D01*
X122144369Y-102264152D01*
X122103062Y-102291752D01*
X122062311Y-102318981D01*
X122009430Y-102340885D01*
X121971136Y-102356747D01*
X121922740Y-102366373D01*
X121874345Y-102376000D01*
X121775655Y-102376000D01*
X121727260Y-102366373D01*
X121678864Y-102356747D01*
X121640570Y-102340885D01*
X121587689Y-102318981D01*
X121546938Y-102291752D01*
X121505631Y-102264152D01*
X121435848Y-102194369D01*
X121381020Y-102112312D01*
X121381019Y-102112311D01*
X121343253Y-102021135D01*
X121324000Y-101924345D01*
X121324000Y-101825655D01*
X121343253Y-101728865D01*
X121381019Y-101637689D01*
X121435847Y-101555633D01*
X121435848Y-101555631D01*
X121505631Y-101485848D01*
X121546938Y-101458248D01*
X121587689Y-101431019D01*
X121641098Y-101408896D01*
X121678864Y-101393253D01*
X121727260Y-101383627D01*
X121775655Y-101374000D01*
X121874345Y-101374000D01*
X121922740Y-101383626D01*
X121922740Y-101383626D01*
G37*
G36*
X187369072Y-99500918D02*
G01*
X187608279Y-99600000D01*
X187614939Y-99602759D01*
X187726328Y-99677187D01*
X187836211Y-99750609D01*
X188024391Y-99938789D01*
X188055730Y-99985691D01*
X188161523Y-100144020D01*
X188172242Y-100160063D01*
X188274082Y-100405928D01*
X188326000Y-100666937D01*
X188326000Y-100933063D01*
X188274082Y-101194072D01*
X188172242Y-101439937D01*
X188040109Y-101637688D01*
X188024390Y-101661212D01*
X187836212Y-101849390D01*
X187614939Y-101997241D01*
X187614938Y-101997242D01*
X187614937Y-101997242D01*
X187369072Y-102099082D01*
X187108063Y-102151000D01*
X186841937Y-102151000D01*
X186580928Y-102099082D01*
X186335063Y-101997242D01*
X186335062Y-101997242D01*
X186335061Y-101997241D01*
X186113788Y-101849390D01*
X185925610Y-101661212D01*
X185909892Y-101637688D01*
X185777758Y-101439937D01*
X185675918Y-101194072D01*
X185624000Y-100933063D01*
X185624000Y-100666937D01*
X185675918Y-100405928D01*
X185777758Y-100160063D01*
X185788478Y-100144020D01*
X185894270Y-99985691D01*
X185925609Y-99938789D01*
X186113789Y-99750609D01*
X186223672Y-99677187D01*
X186335061Y-99602759D01*
X186341722Y-99600000D01*
X186580928Y-99500918D01*
X186841937Y-99449000D01*
X187108063Y-99449000D01*
X187369072Y-99500918D01*
X187369072Y-99500918D01*
G37*
G36*
X129539499Y-100478445D02*
G01*
X129576995Y-100489820D01*
X129611554Y-100508292D01*
X129641847Y-100533153D01*
X129666708Y-100563446D01*
X129685180Y-100598005D01*
X129696555Y-100635501D01*
X129701000Y-100680638D01*
X129701000Y-101419362D01*
X129696555Y-101464499D01*
X129685180Y-101501995D01*
X129666708Y-101536554D01*
X129641847Y-101566847D01*
X129611554Y-101591708D01*
X129576995Y-101610180D01*
X129539499Y-101621555D01*
X129494362Y-101626000D01*
X128855638Y-101626000D01*
X128810501Y-101621555D01*
X128773005Y-101610180D01*
X128738446Y-101591708D01*
X128708153Y-101566847D01*
X128683292Y-101536554D01*
X128664820Y-101501995D01*
X128653445Y-101464499D01*
X128649000Y-101419362D01*
X128649000Y-100680638D01*
X128653445Y-100635501D01*
X128664820Y-100598005D01*
X128683292Y-100563446D01*
X128708153Y-100533153D01*
X128738446Y-100508292D01*
X128773005Y-100489820D01*
X128810501Y-100478445D01*
X128855638Y-100474000D01*
X129494362Y-100474000D01*
X129539499Y-100478445D01*
X129539499Y-100478445D01*
G37*
G36*
X132726000Y-101426000D02*
G01*
X131824000Y-101426000D01*
X131824000Y-100424000D01*
X132726000Y-100424000D01*
X132726000Y-101426000D01*
X132726000Y-101426000D01*
G37*
G36*
X135639499Y-100128445D02*
G01*
X135676995Y-100139820D01*
X135711554Y-100158292D01*
X135741847Y-100183153D01*
X135766708Y-100213446D01*
X135785180Y-100248005D01*
X135796555Y-100285501D01*
X135801000Y-100330638D01*
X135801000Y-101069362D01*
X135796555Y-101114499D01*
X135785180Y-101151995D01*
X135766708Y-101186554D01*
X135741847Y-101216847D01*
X135711554Y-101241708D01*
X135676995Y-101260180D01*
X135639499Y-101271555D01*
X135594362Y-101276000D01*
X134955638Y-101276000D01*
X134910501Y-101271555D01*
X134873005Y-101260180D01*
X134838446Y-101241708D01*
X134808153Y-101216847D01*
X134783292Y-101186554D01*
X134764820Y-101151995D01*
X134753445Y-101114499D01*
X134749000Y-101069362D01*
X134749000Y-100330638D01*
X134753445Y-100285501D01*
X134764820Y-100248005D01*
X134783292Y-100213446D01*
X134808153Y-100183153D01*
X134838446Y-100158292D01*
X134873005Y-100139820D01*
X134910501Y-100128445D01*
X134955638Y-100124000D01*
X135594362Y-100124000D01*
X135639499Y-100128445D01*
X135639499Y-100128445D01*
G37*
G36*
X121907716Y-99980638D02*
G01*
X121971136Y-99993253D01*
X122008902Y-100008896D01*
X122062311Y-100031019D01*
X122062312Y-100031020D01*
X122144369Y-100085848D01*
X122214152Y-100155631D01*
X122214153Y-100155633D01*
X122268981Y-100237689D01*
X122291104Y-100291098D01*
X122306747Y-100328864D01*
X122326000Y-100425656D01*
X122326000Y-100524344D01*
X122306747Y-100621136D01*
X122300443Y-100636354D01*
X122268981Y-100712311D01*
X122252484Y-100737000D01*
X122214152Y-100794369D01*
X122144369Y-100864152D01*
X122103128Y-100891708D01*
X122062311Y-100918981D01*
X122008902Y-100941104D01*
X121971136Y-100956747D01*
X121922740Y-100966374D01*
X121874345Y-100976000D01*
X121775655Y-100976000D01*
X121727260Y-100966374D01*
X121678864Y-100956747D01*
X121641098Y-100941104D01*
X121587689Y-100918981D01*
X121546872Y-100891708D01*
X121505631Y-100864152D01*
X121435848Y-100794369D01*
X121397516Y-100737000D01*
X121381019Y-100712311D01*
X121349557Y-100636354D01*
X121343253Y-100621136D01*
X121324000Y-100524344D01*
X121324000Y-100425656D01*
X121343253Y-100328864D01*
X121358896Y-100291098D01*
X121381019Y-100237689D01*
X121435847Y-100155633D01*
X121435848Y-100155631D01*
X121505631Y-100085848D01*
X121587688Y-100031020D01*
X121587689Y-100031019D01*
X121641098Y-100008896D01*
X121678864Y-99993253D01*
X121742284Y-99980638D01*
X121775655Y-99974000D01*
X121874345Y-99974000D01*
X121907716Y-99980638D01*
X121907716Y-99980638D01*
G37*
G36*
X125739499Y-99778445D02*
G01*
X125776995Y-99789820D01*
X125811554Y-99808292D01*
X125841847Y-99833153D01*
X125866708Y-99863446D01*
X125885180Y-99898005D01*
X125896555Y-99935501D01*
X125901000Y-99980638D01*
X125901000Y-100719362D01*
X125896555Y-100764499D01*
X125885180Y-100801995D01*
X125866708Y-100836554D01*
X125841847Y-100866847D01*
X125811554Y-100891708D01*
X125776995Y-100910180D01*
X125739499Y-100921555D01*
X125694362Y-100926000D01*
X125055638Y-100926000D01*
X125010501Y-100921555D01*
X124973005Y-100910180D01*
X124938446Y-100891708D01*
X124908153Y-100866847D01*
X124883292Y-100836554D01*
X124864820Y-100801995D01*
X124853445Y-100764499D01*
X124849000Y-100719362D01*
X124849000Y-99980638D01*
X124853445Y-99935501D01*
X124864820Y-99898005D01*
X124883292Y-99863446D01*
X124908153Y-99833153D01*
X124938446Y-99808292D01*
X124973005Y-99789820D01*
X125010501Y-99778445D01*
X125055638Y-99774000D01*
X125694362Y-99774000D01*
X125739499Y-99778445D01*
X125739499Y-99778445D01*
G37*
G36*
X178551000Y-100501000D02*
G01*
X176749000Y-100501000D01*
X176749000Y-98699000D01*
X178551000Y-98699000D01*
X178551000Y-100501000D01*
X178551000Y-100501000D01*
G37*
G36*
X175220443Y-98705519D02*
G01*
X175286627Y-98712037D01*
X175456466Y-98763557D01*
X175612991Y-98847222D01*
X175648729Y-98876552D01*
X175750186Y-98959814D01*
X175825836Y-99051995D01*
X175862778Y-99097009D01*
X175946443Y-99253534D01*
X175997963Y-99423373D01*
X176015359Y-99600000D01*
X175997963Y-99776627D01*
X175946443Y-99946466D01*
X175862778Y-100102991D01*
X175845536Y-100124000D01*
X175750186Y-100240186D01*
X175648729Y-100323448D01*
X175612991Y-100352778D01*
X175456466Y-100436443D01*
X175286627Y-100487963D01*
X175225128Y-100494020D01*
X175154260Y-100501000D01*
X175065740Y-100501000D01*
X174994872Y-100494020D01*
X174933373Y-100487963D01*
X174763534Y-100436443D01*
X174607009Y-100352778D01*
X174571271Y-100323448D01*
X174469814Y-100240186D01*
X174374464Y-100124000D01*
X174357222Y-100102991D01*
X174273557Y-99946466D01*
X174222037Y-99776627D01*
X174204641Y-99600000D01*
X174222037Y-99423373D01*
X174273557Y-99253534D01*
X174357222Y-99097009D01*
X174394164Y-99051995D01*
X174469814Y-98959814D01*
X174571271Y-98876552D01*
X174607009Y-98847222D01*
X174763534Y-98763557D01*
X174933373Y-98712037D01*
X174999558Y-98705518D01*
X175065740Y-98699000D01*
X175154260Y-98699000D01*
X175220443Y-98705519D01*
X175220443Y-98705519D01*
G37*
G36*
X172680443Y-98705519D02*
G01*
X172746627Y-98712037D01*
X172916466Y-98763557D01*
X173072991Y-98847222D01*
X173108729Y-98876552D01*
X173210186Y-98959814D01*
X173285836Y-99051995D01*
X173322778Y-99097009D01*
X173406443Y-99253534D01*
X173457963Y-99423373D01*
X173475359Y-99600000D01*
X173457963Y-99776627D01*
X173406443Y-99946466D01*
X173322778Y-100102991D01*
X173305536Y-100124000D01*
X173210186Y-100240186D01*
X173108729Y-100323448D01*
X173072991Y-100352778D01*
X172916466Y-100436443D01*
X172746627Y-100487963D01*
X172685128Y-100494020D01*
X172614260Y-100501000D01*
X172525740Y-100501000D01*
X172454872Y-100494020D01*
X172393373Y-100487963D01*
X172223534Y-100436443D01*
X172067009Y-100352778D01*
X172031271Y-100323448D01*
X171929814Y-100240186D01*
X171834464Y-100124000D01*
X171817222Y-100102991D01*
X171733557Y-99946466D01*
X171682037Y-99776627D01*
X171664641Y-99600000D01*
X171682037Y-99423373D01*
X171733557Y-99253534D01*
X171817222Y-99097009D01*
X171854164Y-99051995D01*
X171929814Y-98959814D01*
X172031271Y-98876552D01*
X172067009Y-98847222D01*
X172223534Y-98763557D01*
X172393373Y-98712037D01*
X172459558Y-98705518D01*
X172525740Y-98699000D01*
X172614260Y-98699000D01*
X172680443Y-98705519D01*
X172680443Y-98705519D01*
G37*
G36*
X170140443Y-98705519D02*
G01*
X170206627Y-98712037D01*
X170376466Y-98763557D01*
X170532991Y-98847222D01*
X170568729Y-98876552D01*
X170670186Y-98959814D01*
X170745836Y-99051995D01*
X170782778Y-99097009D01*
X170866443Y-99253534D01*
X170917963Y-99423373D01*
X170935359Y-99600000D01*
X170917963Y-99776627D01*
X170866443Y-99946466D01*
X170782778Y-100102991D01*
X170765536Y-100124000D01*
X170670186Y-100240186D01*
X170568729Y-100323448D01*
X170532991Y-100352778D01*
X170376466Y-100436443D01*
X170206627Y-100487963D01*
X170145128Y-100494020D01*
X170074260Y-100501000D01*
X169985740Y-100501000D01*
X169914872Y-100494020D01*
X169853373Y-100487963D01*
X169683534Y-100436443D01*
X169527009Y-100352778D01*
X169491271Y-100323448D01*
X169389814Y-100240186D01*
X169294464Y-100124000D01*
X169277222Y-100102991D01*
X169193557Y-99946466D01*
X169142037Y-99776627D01*
X169124641Y-99600000D01*
X169142037Y-99423373D01*
X169193557Y-99253534D01*
X169277222Y-99097009D01*
X169314164Y-99051995D01*
X169389814Y-98959814D01*
X169491271Y-98876552D01*
X169527009Y-98847222D01*
X169683534Y-98763557D01*
X169853373Y-98712037D01*
X169919558Y-98705518D01*
X169985740Y-98699000D01*
X170074260Y-98699000D01*
X170140443Y-98705519D01*
X170140443Y-98705519D01*
G37*
G36*
X135639499Y-98378445D02*
G01*
X135676995Y-98389820D01*
X135711554Y-98408292D01*
X135741847Y-98433153D01*
X135766708Y-98463446D01*
X135785180Y-98498005D01*
X135796555Y-98535501D01*
X135801000Y-98580638D01*
X135801000Y-99319362D01*
X135796555Y-99364499D01*
X135785180Y-99401995D01*
X135766708Y-99436554D01*
X135741847Y-99466847D01*
X135711554Y-99491708D01*
X135676995Y-99510180D01*
X135639499Y-99521555D01*
X135594362Y-99526000D01*
X134955638Y-99526000D01*
X134910501Y-99521555D01*
X134873005Y-99510180D01*
X134838446Y-99491708D01*
X134808153Y-99466847D01*
X134783292Y-99436554D01*
X134764820Y-99401995D01*
X134753445Y-99364499D01*
X134749000Y-99319362D01*
X134749000Y-98580638D01*
X134753445Y-98535501D01*
X134764820Y-98498005D01*
X134783292Y-98463446D01*
X134808153Y-98433153D01*
X134838446Y-98408292D01*
X134873005Y-98389820D01*
X134910501Y-98378445D01*
X134955638Y-98374000D01*
X135594362Y-98374000D01*
X135639499Y-98378445D01*
X135639499Y-98378445D01*
G37*
G36*
X131814499Y-98403445D02*
G01*
X131851995Y-98414820D01*
X131886554Y-98433292D01*
X131916847Y-98458153D01*
X131941708Y-98488446D01*
X131960180Y-98523005D01*
X131971555Y-98560501D01*
X131976000Y-98605638D01*
X131976000Y-99244362D01*
X131971555Y-99289499D01*
X131960180Y-99326995D01*
X131941708Y-99361554D01*
X131916847Y-99391847D01*
X131886554Y-99416708D01*
X131851995Y-99435180D01*
X131814499Y-99446555D01*
X131769362Y-99451000D01*
X131030638Y-99451000D01*
X130985501Y-99446555D01*
X130948005Y-99435180D01*
X130913446Y-99416708D01*
X130883153Y-99391847D01*
X130858292Y-99361554D01*
X130839820Y-99326995D01*
X130828445Y-99289499D01*
X130824000Y-99244362D01*
X130824000Y-98605638D01*
X130828445Y-98560501D01*
X130839820Y-98523005D01*
X130858292Y-98488446D01*
X130883153Y-98458153D01*
X130913446Y-98433292D01*
X130948005Y-98414820D01*
X130985501Y-98403445D01*
X131030638Y-98399000D01*
X131769362Y-98399000D01*
X131814499Y-98403445D01*
X131814499Y-98403445D01*
G37*
G36*
X133564499Y-98403445D02*
G01*
X133601995Y-98414820D01*
X133636554Y-98433292D01*
X133666847Y-98458153D01*
X133691708Y-98488446D01*
X133710180Y-98523005D01*
X133721555Y-98560501D01*
X133726000Y-98605638D01*
X133726000Y-99244362D01*
X133721555Y-99289499D01*
X133710180Y-99326995D01*
X133691708Y-99361554D01*
X133666847Y-99391847D01*
X133636554Y-99416708D01*
X133601995Y-99435180D01*
X133564499Y-99446555D01*
X133519362Y-99451000D01*
X132780638Y-99451000D01*
X132735501Y-99446555D01*
X132698005Y-99435180D01*
X132663446Y-99416708D01*
X132633153Y-99391847D01*
X132608292Y-99361554D01*
X132589820Y-99326995D01*
X132578445Y-99289499D01*
X132574000Y-99244362D01*
X132574000Y-98605638D01*
X132578445Y-98560501D01*
X132589820Y-98523005D01*
X132608292Y-98488446D01*
X132633153Y-98458153D01*
X132663446Y-98433292D01*
X132698005Y-98414820D01*
X132735501Y-98403445D01*
X132780638Y-98399000D01*
X133519362Y-98399000D01*
X133564499Y-98403445D01*
X133564499Y-98403445D01*
G37*
G36*
X125739499Y-98028445D02*
G01*
X125776995Y-98039820D01*
X125811554Y-98058292D01*
X125841847Y-98083153D01*
X125866708Y-98113446D01*
X125885180Y-98148005D01*
X125896555Y-98185501D01*
X125901000Y-98230638D01*
X125901000Y-98969362D01*
X125896555Y-99014499D01*
X125885180Y-99051995D01*
X125866708Y-99086554D01*
X125841847Y-99116847D01*
X125811554Y-99141708D01*
X125776995Y-99160180D01*
X125739499Y-99171555D01*
X125694362Y-99176000D01*
X125055638Y-99176000D01*
X125010501Y-99171555D01*
X124973005Y-99160180D01*
X124938446Y-99141708D01*
X124908153Y-99116847D01*
X124883292Y-99086554D01*
X124864820Y-99051995D01*
X124853445Y-99014499D01*
X124849000Y-98969362D01*
X124849000Y-98230638D01*
X124853445Y-98185501D01*
X124864820Y-98148005D01*
X124883292Y-98113446D01*
X124908153Y-98083153D01*
X124938446Y-98058292D01*
X124973005Y-98039820D01*
X125010501Y-98028445D01*
X125055638Y-98024000D01*
X125694362Y-98024000D01*
X125739499Y-98028445D01*
X125739499Y-98028445D01*
G37*
G36*
X127814499Y-98053445D02*
G01*
X127851995Y-98064820D01*
X127886554Y-98083292D01*
X127916847Y-98108153D01*
X127941708Y-98138446D01*
X127960180Y-98173005D01*
X127971555Y-98210501D01*
X127976000Y-98255638D01*
X127976000Y-98894362D01*
X127971555Y-98939499D01*
X127960180Y-98976995D01*
X127941708Y-99011554D01*
X127916847Y-99041847D01*
X127886554Y-99066708D01*
X127851995Y-99085180D01*
X127814499Y-99096555D01*
X127769362Y-99101000D01*
X127030638Y-99101000D01*
X126985501Y-99096555D01*
X126948005Y-99085180D01*
X126913446Y-99066708D01*
X126883153Y-99041847D01*
X126858292Y-99011554D01*
X126839820Y-98976995D01*
X126828445Y-98939499D01*
X126824000Y-98894362D01*
X126824000Y-98255638D01*
X126828445Y-98210501D01*
X126839820Y-98173005D01*
X126858292Y-98138446D01*
X126883153Y-98108153D01*
X126913446Y-98083292D01*
X126948005Y-98064820D01*
X126985501Y-98053445D01*
X127030638Y-98049000D01*
X127769362Y-98049000D01*
X127814499Y-98053445D01*
X127814499Y-98053445D01*
G37*
G36*
X129564499Y-98053445D02*
G01*
X129601995Y-98064820D01*
X129636554Y-98083292D01*
X129666847Y-98108153D01*
X129691708Y-98138446D01*
X129710180Y-98173005D01*
X129721555Y-98210501D01*
X129726000Y-98255638D01*
X129726000Y-98894362D01*
X129721555Y-98939499D01*
X129710180Y-98976995D01*
X129691708Y-99011554D01*
X129666847Y-99041847D01*
X129636554Y-99066708D01*
X129601995Y-99085180D01*
X129564499Y-99096555D01*
X129519362Y-99101000D01*
X128780638Y-99101000D01*
X128735501Y-99096555D01*
X128698005Y-99085180D01*
X128663446Y-99066708D01*
X128633153Y-99041847D01*
X128608292Y-99011554D01*
X128589820Y-98976995D01*
X128578445Y-98939499D01*
X128574000Y-98894362D01*
X128574000Y-98255638D01*
X128578445Y-98210501D01*
X128589820Y-98173005D01*
X128608292Y-98138446D01*
X128633153Y-98108153D01*
X128663446Y-98083292D01*
X128698005Y-98064820D01*
X128735501Y-98053445D01*
X128780638Y-98049000D01*
X129519362Y-98049000D01*
X129564499Y-98053445D01*
X129564499Y-98053445D01*
G37*
G36*
X173414499Y-95128445D02*
G01*
X173451995Y-95139820D01*
X173486554Y-95158292D01*
X173516847Y-95183153D01*
X173541708Y-95213446D01*
X173560180Y-95248005D01*
X173571555Y-95285501D01*
X173576000Y-95330638D01*
X173576000Y-96069362D01*
X173571555Y-96114499D01*
X173560180Y-96151995D01*
X173541708Y-96186554D01*
X173516847Y-96216847D01*
X173486554Y-96241708D01*
X173451995Y-96260180D01*
X173414499Y-96271555D01*
X173369362Y-96276000D01*
X172730638Y-96276000D01*
X172685501Y-96271555D01*
X172648005Y-96260180D01*
X172613446Y-96241708D01*
X172583153Y-96216847D01*
X172558292Y-96186554D01*
X172539820Y-96151995D01*
X172528445Y-96114499D01*
X172524000Y-96069362D01*
X172524000Y-95330638D01*
X172528445Y-95285501D01*
X172539820Y-95248005D01*
X172558292Y-95213446D01*
X172583153Y-95183153D01*
X172613446Y-95158292D01*
X172648005Y-95139820D01*
X172685501Y-95128445D01*
X172730638Y-95124000D01*
X173369362Y-95124000D01*
X173414499Y-95128445D01*
X173414499Y-95128445D01*
G37*
G36*
X175364499Y-95128445D02*
G01*
X175401995Y-95139820D01*
X175436554Y-95158292D01*
X175466847Y-95183153D01*
X175491708Y-95213446D01*
X175510180Y-95248005D01*
X175521555Y-95285501D01*
X175526000Y-95330638D01*
X175526000Y-96069362D01*
X175521555Y-96114499D01*
X175510180Y-96151995D01*
X175491708Y-96186554D01*
X175466847Y-96216847D01*
X175436554Y-96241708D01*
X175401995Y-96260180D01*
X175364499Y-96271555D01*
X175319362Y-96276000D01*
X174680638Y-96276000D01*
X174635501Y-96271555D01*
X174598005Y-96260180D01*
X174563446Y-96241708D01*
X174533153Y-96216847D01*
X174508292Y-96186554D01*
X174489820Y-96151995D01*
X174478445Y-96114499D01*
X174474000Y-96069362D01*
X174474000Y-95330638D01*
X174478445Y-95285501D01*
X174489820Y-95248005D01*
X174508292Y-95213446D01*
X174533153Y-95183153D01*
X174563446Y-95158292D01*
X174598005Y-95139820D01*
X174635501Y-95128445D01*
X174680638Y-95124000D01*
X175319362Y-95124000D01*
X175364499Y-95128445D01*
X175364499Y-95128445D01*
G37*
G36*
X102875256Y-92591298D02*
G01*
X102981579Y-92612447D01*
X103282042Y-92736903D01*
X103552451Y-92917585D01*
X103782415Y-93147549D01*
X103947102Y-93394020D01*
X103963098Y-93417960D01*
X104087553Y-93718422D01*
X104151000Y-94037389D01*
X104151000Y-94362611D01*
X104127316Y-94481677D01*
X104087553Y-94681579D01*
X103963097Y-94982042D01*
X103782415Y-95252451D01*
X103552451Y-95482415D01*
X103282042Y-95663097D01*
X102981579Y-95787553D01*
X102875256Y-95808702D01*
X102662611Y-95851000D01*
X102337389Y-95851000D01*
X102124744Y-95808702D01*
X102018421Y-95787553D01*
X101717958Y-95663097D01*
X101447549Y-95482415D01*
X101217585Y-95252451D01*
X101036903Y-94982042D01*
X100912447Y-94681579D01*
X100872684Y-94481677D01*
X100849000Y-94362611D01*
X100849000Y-94037389D01*
X100912447Y-93718422D01*
X101036902Y-93417960D01*
X101052898Y-93394020D01*
X101217585Y-93147549D01*
X101447549Y-92917585D01*
X101717958Y-92736903D01*
X102018421Y-92612447D01*
X102124744Y-92591298D01*
X102337389Y-92549000D01*
X102662611Y-92549000D01*
X102875256Y-92591298D01*
X102875256Y-92591298D01*
G37*
G36*
X193875256Y-92391298D02*
G01*
X193981579Y-92412447D01*
X194282042Y-92536903D01*
X194552451Y-92717585D01*
X194782415Y-92947549D01*
X194963097Y-93217958D01*
X195064782Y-93463446D01*
X195087553Y-93518422D01*
X195127336Y-93718421D01*
X195151000Y-93837391D01*
X195151000Y-94162609D01*
X195087553Y-94481579D01*
X194963097Y-94782042D01*
X194782415Y-95052451D01*
X194552451Y-95282415D01*
X194282042Y-95463097D01*
X193981579Y-95587553D01*
X193875256Y-95608702D01*
X193662611Y-95651000D01*
X193337389Y-95651000D01*
X193124744Y-95608702D01*
X193018421Y-95587553D01*
X192717958Y-95463097D01*
X192447549Y-95282415D01*
X192217585Y-95052451D01*
X192036903Y-94782042D01*
X191912447Y-94481579D01*
X191849000Y-94162609D01*
X191849000Y-93837391D01*
X191872665Y-93718421D01*
X191912447Y-93518422D01*
X191935219Y-93463446D01*
X192036903Y-93217958D01*
X192217585Y-92947549D01*
X192447549Y-92717585D01*
X192717958Y-92536903D01*
X193018421Y-92412447D01*
X193124744Y-92391298D01*
X193337389Y-92349000D01*
X193662611Y-92349000D01*
X193875256Y-92391298D01*
X193875256Y-92391298D01*
G37*
G36*
X175364499Y-93378445D02*
G01*
X175401995Y-93389820D01*
X175436554Y-93408292D01*
X175466847Y-93433153D01*
X175491708Y-93463446D01*
X175510180Y-93498005D01*
X175521555Y-93535501D01*
X175526000Y-93580638D01*
X175526000Y-94319362D01*
X175521555Y-94364499D01*
X175510180Y-94401995D01*
X175491708Y-94436554D01*
X175466847Y-94466847D01*
X175436554Y-94491708D01*
X175401995Y-94510180D01*
X175364499Y-94521555D01*
X175319362Y-94526000D01*
X174680638Y-94526000D01*
X174635501Y-94521555D01*
X174598005Y-94510180D01*
X174563446Y-94491708D01*
X174533153Y-94466847D01*
X174508292Y-94436554D01*
X174489820Y-94401995D01*
X174478445Y-94364499D01*
X174474000Y-94319362D01*
X174474000Y-93580638D01*
X174478445Y-93535501D01*
X174489820Y-93498005D01*
X174508292Y-93463446D01*
X174533153Y-93433153D01*
X174563446Y-93408292D01*
X174598005Y-93389820D01*
X174635501Y-93378445D01*
X174680638Y-93374000D01*
X175319362Y-93374000D01*
X175364499Y-93378445D01*
X175364499Y-93378445D01*
G37*
G36*
X173414499Y-93378445D02*
G01*
X173451995Y-93389820D01*
X173486554Y-93408292D01*
X173516847Y-93433153D01*
X173541708Y-93463446D01*
X173560180Y-93498005D01*
X173571555Y-93535501D01*
X173576000Y-93580638D01*
X173576000Y-94319362D01*
X173571555Y-94364499D01*
X173560180Y-94401995D01*
X173541708Y-94436554D01*
X173516847Y-94466847D01*
X173486554Y-94491708D01*
X173451995Y-94510180D01*
X173414499Y-94521555D01*
X173369362Y-94526000D01*
X172730638Y-94526000D01*
X172685501Y-94521555D01*
X172648005Y-94510180D01*
X172613446Y-94491708D01*
X172583153Y-94466847D01*
X172558292Y-94436554D01*
X172539820Y-94401995D01*
X172528445Y-94364499D01*
X172524000Y-94319362D01*
X172524000Y-93580638D01*
X172528445Y-93535501D01*
X172539820Y-93498005D01*
X172558292Y-93463446D01*
X172583153Y-93433153D01*
X172613446Y-93408292D01*
X172648005Y-93389820D01*
X172685501Y-93378445D01*
X172730638Y-93374000D01*
X173369362Y-93374000D01*
X173414499Y-93378445D01*
X173414499Y-93378445D01*
G37*
G36*
X172059928Y-90461764D02*
G01*
X172081009Y-90468160D01*
X172100445Y-90478548D01*
X172117476Y-90492524D01*
X172131452Y-90509555D01*
X172141840Y-90528991D01*
X172148236Y-90550072D01*
X172151000Y-90578140D01*
X172151000Y-91041860D01*
X172148236Y-91069928D01*
X172141840Y-91091009D01*
X172131452Y-91110445D01*
X172117476Y-91127476D01*
X172100445Y-91141452D01*
X172081009Y-91151840D01*
X172059928Y-91158236D01*
X172031860Y-91161000D01*
X170218140Y-91161000D01*
X170190072Y-91158236D01*
X170168991Y-91151840D01*
X170149555Y-91141452D01*
X170132524Y-91127476D01*
X170118548Y-91110445D01*
X170108160Y-91091009D01*
X170101764Y-91069928D01*
X170099000Y-91041860D01*
X170099000Y-90578140D01*
X170101764Y-90550072D01*
X170108160Y-90528991D01*
X170118548Y-90509555D01*
X170132524Y-90492524D01*
X170149555Y-90478548D01*
X170168991Y-90468160D01*
X170190072Y-90461764D01*
X170218140Y-90459000D01*
X172031860Y-90459000D01*
X172059928Y-90461764D01*
X172059928Y-90461764D01*
G37*
G36*
X167109928Y-90461764D02*
G01*
X167131009Y-90468160D01*
X167150445Y-90478548D01*
X167167476Y-90492524D01*
X167181452Y-90509555D01*
X167191840Y-90528991D01*
X167198236Y-90550072D01*
X167201000Y-90578140D01*
X167201000Y-91041860D01*
X167198236Y-91069928D01*
X167191840Y-91091009D01*
X167181452Y-91110445D01*
X167167476Y-91127476D01*
X167150445Y-91141452D01*
X167131009Y-91151840D01*
X167109928Y-91158236D01*
X167081860Y-91161000D01*
X165268140Y-91161000D01*
X165240072Y-91158236D01*
X165218991Y-91151840D01*
X165199555Y-91141452D01*
X165182524Y-91127476D01*
X165168548Y-91110445D01*
X165158160Y-91091009D01*
X165151764Y-91069928D01*
X165149000Y-91041860D01*
X165149000Y-90578140D01*
X165151764Y-90550072D01*
X165158160Y-90528991D01*
X165168548Y-90509555D01*
X165182524Y-90492524D01*
X165199555Y-90478548D01*
X165218991Y-90468160D01*
X165240072Y-90461764D01*
X165268140Y-90459000D01*
X167081860Y-90459000D01*
X167109928Y-90461764D01*
X167109928Y-90461764D01*
G37*
G36*
X145812670Y-83600803D02*
G01*
X145824375Y-83604354D01*
X145835165Y-83610121D01*
X145844619Y-83617881D01*
X145852379Y-83627335D01*
X145858146Y-83638125D01*
X145861697Y-83649830D01*
X145863500Y-83668138D01*
X145863500Y-84031862D01*
X145861697Y-84050170D01*
X145858146Y-84061875D01*
X145852379Y-84072665D01*
X145840870Y-84086688D01*
X145831855Y-84095704D01*
X145818241Y-84116078D01*
X145808865Y-84138717D01*
X145804085Y-84162751D01*
X145804085Y-84187255D01*
X145808866Y-84211288D01*
X145818244Y-84233926D01*
X145831858Y-84254301D01*
X145840874Y-84263317D01*
X145852379Y-84277335D01*
X145858146Y-84288125D01*
X145861697Y-84299830D01*
X145863500Y-84318138D01*
X145863500Y-84681862D01*
X145861697Y-84700170D01*
X145858146Y-84711875D01*
X145852379Y-84722665D01*
X145840870Y-84736688D01*
X145831855Y-84745704D01*
X145818241Y-84766078D01*
X145808865Y-84788717D01*
X145804085Y-84812751D01*
X145804085Y-84837255D01*
X145808866Y-84861288D01*
X145818244Y-84883926D01*
X145831858Y-84904301D01*
X145840874Y-84913317D01*
X145852379Y-84927335D01*
X145858146Y-84938125D01*
X145861697Y-84949830D01*
X145863500Y-84968138D01*
X145863500Y-85331862D01*
X145861697Y-85350170D01*
X145858146Y-85361875D01*
X145852379Y-85372665D01*
X145840870Y-85386688D01*
X145831855Y-85395704D01*
X145818241Y-85416078D01*
X145808865Y-85438717D01*
X145804085Y-85462751D01*
X145804085Y-85487255D01*
X145808866Y-85511288D01*
X145818244Y-85533926D01*
X145831858Y-85554301D01*
X145840874Y-85563317D01*
X145852379Y-85577335D01*
X145858146Y-85588125D01*
X145861697Y-85599830D01*
X145863500Y-85618138D01*
X145863500Y-85981862D01*
X145861697Y-86000170D01*
X145858146Y-86011875D01*
X145852379Y-86022665D01*
X145840870Y-86036688D01*
X145831855Y-86045704D01*
X145818241Y-86066078D01*
X145808865Y-86088717D01*
X145804085Y-86112751D01*
X145804085Y-86137255D01*
X145808866Y-86161288D01*
X145818244Y-86183926D01*
X145831858Y-86204301D01*
X145840874Y-86213317D01*
X145852379Y-86227335D01*
X145858146Y-86238125D01*
X145861697Y-86249830D01*
X145863500Y-86268138D01*
X145863500Y-86631862D01*
X145861697Y-86650170D01*
X145858146Y-86661875D01*
X145852379Y-86672665D01*
X145840870Y-86686688D01*
X145831855Y-86695704D01*
X145818241Y-86716078D01*
X145808865Y-86738717D01*
X145804085Y-86762751D01*
X145804085Y-86787255D01*
X145808866Y-86811288D01*
X145818244Y-86833926D01*
X145831858Y-86854301D01*
X145840874Y-86863317D01*
X145852379Y-86877335D01*
X145858146Y-86888125D01*
X145861697Y-86899830D01*
X145863500Y-86918138D01*
X145863500Y-87281862D01*
X145861697Y-87300170D01*
X145858146Y-87311875D01*
X145852379Y-87322665D01*
X145840870Y-87336688D01*
X145831855Y-87345704D01*
X145818241Y-87366078D01*
X145808865Y-87388717D01*
X145804085Y-87412751D01*
X145804085Y-87437255D01*
X145808866Y-87461288D01*
X145818244Y-87483926D01*
X145831858Y-87504301D01*
X145840874Y-87513317D01*
X145852379Y-87527335D01*
X145858146Y-87538125D01*
X145861697Y-87549830D01*
X145863500Y-87568138D01*
X145863500Y-87931862D01*
X145861697Y-87950170D01*
X145858146Y-87961875D01*
X145852379Y-87972665D01*
X145840870Y-87986688D01*
X145831855Y-87995704D01*
X145818241Y-88016078D01*
X145808865Y-88038717D01*
X145804085Y-88062751D01*
X145804085Y-88087255D01*
X145808866Y-88111288D01*
X145818244Y-88133926D01*
X145831858Y-88154301D01*
X145840874Y-88163317D01*
X145852379Y-88177335D01*
X145858146Y-88188125D01*
X145861697Y-88199830D01*
X145863500Y-88218138D01*
X145863500Y-88581862D01*
X145861697Y-88600170D01*
X145858146Y-88611875D01*
X145852379Y-88622665D01*
X145840870Y-88636688D01*
X145831855Y-88645704D01*
X145818241Y-88666078D01*
X145808865Y-88688717D01*
X145804085Y-88712751D01*
X145804085Y-88737255D01*
X145808866Y-88761288D01*
X145818244Y-88783926D01*
X145831858Y-88804301D01*
X145840874Y-88813317D01*
X145852379Y-88827335D01*
X145858146Y-88838125D01*
X145861697Y-88849830D01*
X145863500Y-88868138D01*
X145863500Y-89231862D01*
X145861697Y-89250170D01*
X145858146Y-89261875D01*
X145852379Y-89272665D01*
X145840870Y-89286688D01*
X145831855Y-89295704D01*
X145818241Y-89316078D01*
X145808865Y-89338717D01*
X145804085Y-89362751D01*
X145804085Y-89387255D01*
X145808866Y-89411288D01*
X145818244Y-89433926D01*
X145831858Y-89454301D01*
X145840874Y-89463317D01*
X145852379Y-89477335D01*
X145858146Y-89488125D01*
X145861697Y-89499830D01*
X145863500Y-89518138D01*
X145863500Y-89881862D01*
X145861697Y-89900170D01*
X145858146Y-89911875D01*
X145852379Y-89922665D01*
X145844619Y-89932119D01*
X145835165Y-89939879D01*
X145824375Y-89945646D01*
X145812670Y-89949197D01*
X145794362Y-89951000D01*
X144255638Y-89951000D01*
X144237330Y-89949197D01*
X144225625Y-89945646D01*
X144214835Y-89939879D01*
X144205381Y-89932119D01*
X144197621Y-89922665D01*
X144191854Y-89911875D01*
X144188303Y-89900170D01*
X144186500Y-89881862D01*
X144186500Y-89518138D01*
X144188303Y-89499830D01*
X144191854Y-89488125D01*
X144197621Y-89477335D01*
X144209130Y-89463312D01*
X144218145Y-89454296D01*
X144231759Y-89433922D01*
X144241135Y-89411283D01*
X144245915Y-89387249D01*
X144245915Y-89362745D01*
X144241134Y-89338712D01*
X144231756Y-89316074D01*
X144218142Y-89295699D01*
X144209126Y-89286683D01*
X144197621Y-89272665D01*
X144191854Y-89261875D01*
X144188303Y-89250170D01*
X144186500Y-89231862D01*
X144186500Y-88868138D01*
X144188303Y-88849830D01*
X144191854Y-88838125D01*
X144197621Y-88827335D01*
X144209130Y-88813312D01*
X144218145Y-88804296D01*
X144231759Y-88783922D01*
X144241135Y-88761283D01*
X144245915Y-88737249D01*
X144245915Y-88712745D01*
X144241134Y-88688712D01*
X144231756Y-88666074D01*
X144218142Y-88645699D01*
X144209126Y-88636683D01*
X144197621Y-88622665D01*
X144191854Y-88611875D01*
X144188303Y-88600170D01*
X144186500Y-88581862D01*
X144186500Y-88218138D01*
X144188303Y-88199830D01*
X144191854Y-88188125D01*
X144197621Y-88177335D01*
X144209130Y-88163312D01*
X144218145Y-88154296D01*
X144231759Y-88133922D01*
X144241135Y-88111283D01*
X144245915Y-88087249D01*
X144245915Y-88062745D01*
X144241134Y-88038712D01*
X144231756Y-88016074D01*
X144218142Y-87995699D01*
X144209126Y-87986683D01*
X144197621Y-87972665D01*
X144191854Y-87961875D01*
X144188303Y-87950170D01*
X144186500Y-87931862D01*
X144186500Y-87568138D01*
X144188303Y-87549830D01*
X144191854Y-87538125D01*
X144197621Y-87527335D01*
X144209130Y-87513312D01*
X144218145Y-87504296D01*
X144231759Y-87483922D01*
X144241135Y-87461283D01*
X144245915Y-87437249D01*
X144245915Y-87412745D01*
X144241134Y-87388712D01*
X144231756Y-87366074D01*
X144218142Y-87345699D01*
X144209126Y-87336683D01*
X144197621Y-87322665D01*
X144191854Y-87311875D01*
X144188303Y-87300170D01*
X144186500Y-87281862D01*
X144186500Y-86918138D01*
X144188303Y-86899830D01*
X144191854Y-86888125D01*
X144197621Y-86877335D01*
X144209130Y-86863312D01*
X144218145Y-86854296D01*
X144231759Y-86833922D01*
X144241135Y-86811283D01*
X144245915Y-86787249D01*
X144245915Y-86762745D01*
X144241134Y-86738712D01*
X144231756Y-86716074D01*
X144218142Y-86695699D01*
X144209126Y-86686683D01*
X144197621Y-86672665D01*
X144191854Y-86661875D01*
X144188303Y-86650170D01*
X144186500Y-86631862D01*
X144186500Y-86268138D01*
X144188303Y-86249830D01*
X144191854Y-86238125D01*
X144197621Y-86227335D01*
X144209130Y-86213312D01*
X144218145Y-86204296D01*
X144231759Y-86183922D01*
X144241135Y-86161283D01*
X144245915Y-86137249D01*
X144245915Y-86112745D01*
X144241134Y-86088712D01*
X144231756Y-86066074D01*
X144218142Y-86045699D01*
X144209126Y-86036683D01*
X144197621Y-86022665D01*
X144191854Y-86011875D01*
X144188303Y-86000170D01*
X144186500Y-85981862D01*
X144186500Y-85618138D01*
X144188303Y-85599830D01*
X144191854Y-85588125D01*
X144197621Y-85577335D01*
X144209130Y-85563312D01*
X144218145Y-85554296D01*
X144231759Y-85533922D01*
X144241135Y-85511283D01*
X144245915Y-85487249D01*
X144245915Y-85462745D01*
X144241134Y-85438712D01*
X144231756Y-85416074D01*
X144218142Y-85395699D01*
X144209126Y-85386683D01*
X144197621Y-85372665D01*
X144191854Y-85361875D01*
X144188303Y-85350170D01*
X144186500Y-85331862D01*
X144186500Y-84968138D01*
X144188303Y-84949830D01*
X144191854Y-84938125D01*
X144197621Y-84927335D01*
X144209130Y-84913312D01*
X144218145Y-84904296D01*
X144231759Y-84883922D01*
X144241135Y-84861283D01*
X144245915Y-84837249D01*
X144245915Y-84812745D01*
X144241134Y-84788712D01*
X144231756Y-84766074D01*
X144218142Y-84745699D01*
X144209126Y-84736683D01*
X144197621Y-84722665D01*
X144191854Y-84711875D01*
X144188303Y-84700170D01*
X144186500Y-84681862D01*
X144186500Y-84318138D01*
X144188303Y-84299830D01*
X144191854Y-84288125D01*
X144197621Y-84277335D01*
X144209130Y-84263312D01*
X144218145Y-84254296D01*
X144231759Y-84233922D01*
X144241135Y-84211283D01*
X144245915Y-84187249D01*
X144245915Y-84162745D01*
X144241134Y-84138712D01*
X144231756Y-84116074D01*
X144218142Y-84095699D01*
X144209126Y-84086683D01*
X144197621Y-84072665D01*
X144191854Y-84061875D01*
X144188303Y-84050170D01*
X144186500Y-84031862D01*
X144186500Y-83668138D01*
X144188303Y-83649830D01*
X144191854Y-83638125D01*
X144197621Y-83627335D01*
X144205381Y-83617881D01*
X144214835Y-83610121D01*
X144225625Y-83604354D01*
X144237330Y-83600803D01*
X144255638Y-83599000D01*
X145794362Y-83599000D01*
X145812670Y-83600803D01*
X145812670Y-83600803D01*
G37*
G36*
X151537670Y-83600803D02*
G01*
X151549375Y-83604354D01*
X151560165Y-83610121D01*
X151569619Y-83617881D01*
X151577379Y-83627335D01*
X151583146Y-83638125D01*
X151586697Y-83649830D01*
X151588500Y-83668138D01*
X151588500Y-84031862D01*
X151586697Y-84050170D01*
X151583146Y-84061875D01*
X151577379Y-84072665D01*
X151565870Y-84086688D01*
X151556855Y-84095704D01*
X151543241Y-84116078D01*
X151533865Y-84138717D01*
X151529085Y-84162751D01*
X151529085Y-84187255D01*
X151533866Y-84211288D01*
X151543244Y-84233926D01*
X151556858Y-84254301D01*
X151565874Y-84263317D01*
X151577379Y-84277335D01*
X151583146Y-84288125D01*
X151586697Y-84299830D01*
X151588500Y-84318138D01*
X151588500Y-84681862D01*
X151586697Y-84700170D01*
X151583146Y-84711875D01*
X151577379Y-84722665D01*
X151565870Y-84736688D01*
X151556855Y-84745704D01*
X151543241Y-84766078D01*
X151533865Y-84788717D01*
X151529085Y-84812751D01*
X151529085Y-84837255D01*
X151533866Y-84861288D01*
X151543244Y-84883926D01*
X151556858Y-84904301D01*
X151565874Y-84913317D01*
X151577379Y-84927335D01*
X151583146Y-84938125D01*
X151586697Y-84949830D01*
X151588500Y-84968138D01*
X151588500Y-85331862D01*
X151586697Y-85350170D01*
X151583146Y-85361875D01*
X151577379Y-85372665D01*
X151565870Y-85386688D01*
X151556855Y-85395704D01*
X151543241Y-85416078D01*
X151533865Y-85438717D01*
X151529085Y-85462751D01*
X151529085Y-85487255D01*
X151533866Y-85511288D01*
X151543244Y-85533926D01*
X151556858Y-85554301D01*
X151565874Y-85563317D01*
X151577379Y-85577335D01*
X151583146Y-85588125D01*
X151586697Y-85599830D01*
X151588500Y-85618138D01*
X151588500Y-85981862D01*
X151586697Y-86000170D01*
X151583146Y-86011875D01*
X151577379Y-86022665D01*
X151565870Y-86036688D01*
X151556855Y-86045704D01*
X151543241Y-86066078D01*
X151533865Y-86088717D01*
X151529085Y-86112751D01*
X151529085Y-86137255D01*
X151533866Y-86161288D01*
X151543244Y-86183926D01*
X151556858Y-86204301D01*
X151565874Y-86213317D01*
X151577379Y-86227335D01*
X151583146Y-86238125D01*
X151586697Y-86249830D01*
X151588500Y-86268138D01*
X151588500Y-86631862D01*
X151586697Y-86650170D01*
X151583146Y-86661875D01*
X151577379Y-86672665D01*
X151565870Y-86686688D01*
X151556855Y-86695704D01*
X151543241Y-86716078D01*
X151533865Y-86738717D01*
X151529085Y-86762751D01*
X151529085Y-86787255D01*
X151533866Y-86811288D01*
X151543244Y-86833926D01*
X151556858Y-86854301D01*
X151565874Y-86863317D01*
X151577379Y-86877335D01*
X151583146Y-86888125D01*
X151586697Y-86899830D01*
X151588500Y-86918138D01*
X151588500Y-87281862D01*
X151586697Y-87300170D01*
X151583146Y-87311875D01*
X151577379Y-87322665D01*
X151565870Y-87336688D01*
X151556855Y-87345704D01*
X151543241Y-87366078D01*
X151533865Y-87388717D01*
X151529085Y-87412751D01*
X151529085Y-87437255D01*
X151533866Y-87461288D01*
X151543244Y-87483926D01*
X151556858Y-87504301D01*
X151565874Y-87513317D01*
X151577379Y-87527335D01*
X151583146Y-87538125D01*
X151586697Y-87549830D01*
X151588500Y-87568138D01*
X151588500Y-87931862D01*
X151586697Y-87950170D01*
X151583146Y-87961875D01*
X151577379Y-87972665D01*
X151565870Y-87986688D01*
X151556855Y-87995704D01*
X151543241Y-88016078D01*
X151533865Y-88038717D01*
X151529085Y-88062751D01*
X151529085Y-88087255D01*
X151533866Y-88111288D01*
X151543244Y-88133926D01*
X151556858Y-88154301D01*
X151565874Y-88163317D01*
X151577379Y-88177335D01*
X151583146Y-88188125D01*
X151586697Y-88199830D01*
X151588500Y-88218138D01*
X151588500Y-88581862D01*
X151586697Y-88600170D01*
X151583146Y-88611875D01*
X151577379Y-88622665D01*
X151565870Y-88636688D01*
X151556855Y-88645704D01*
X151543241Y-88666078D01*
X151533865Y-88688717D01*
X151529085Y-88712751D01*
X151529085Y-88737255D01*
X151533866Y-88761288D01*
X151543244Y-88783926D01*
X151556858Y-88804301D01*
X151565874Y-88813317D01*
X151577379Y-88827335D01*
X151583146Y-88838125D01*
X151586697Y-88849830D01*
X151588500Y-88868138D01*
X151588500Y-89231862D01*
X151586697Y-89250170D01*
X151583146Y-89261875D01*
X151577379Y-89272665D01*
X151565870Y-89286688D01*
X151556855Y-89295704D01*
X151543241Y-89316078D01*
X151533865Y-89338717D01*
X151529085Y-89362751D01*
X151529085Y-89387255D01*
X151533866Y-89411288D01*
X151543244Y-89433926D01*
X151556858Y-89454301D01*
X151565874Y-89463317D01*
X151577379Y-89477335D01*
X151583146Y-89488125D01*
X151586697Y-89499830D01*
X151588500Y-89518138D01*
X151588500Y-89881862D01*
X151586697Y-89900170D01*
X151583146Y-89911875D01*
X151577379Y-89922665D01*
X151569619Y-89932119D01*
X151560165Y-89939879D01*
X151549375Y-89945646D01*
X151537670Y-89949197D01*
X151519362Y-89951000D01*
X149980638Y-89951000D01*
X149962330Y-89949197D01*
X149950625Y-89945646D01*
X149939835Y-89939879D01*
X149930381Y-89932119D01*
X149922621Y-89922665D01*
X149916854Y-89911875D01*
X149913303Y-89900170D01*
X149911500Y-89881862D01*
X149911500Y-89518138D01*
X149913303Y-89499830D01*
X149916854Y-89488125D01*
X149922621Y-89477335D01*
X149934130Y-89463312D01*
X149943145Y-89454296D01*
X149956759Y-89433922D01*
X149966135Y-89411283D01*
X149970915Y-89387249D01*
X149970915Y-89362745D01*
X149966134Y-89338712D01*
X149956756Y-89316074D01*
X149943142Y-89295699D01*
X149934126Y-89286683D01*
X149922621Y-89272665D01*
X149916854Y-89261875D01*
X149913303Y-89250170D01*
X149911500Y-89231862D01*
X149911500Y-88868138D01*
X149913303Y-88849830D01*
X149916854Y-88838125D01*
X149922621Y-88827335D01*
X149934130Y-88813312D01*
X149943145Y-88804296D01*
X149956759Y-88783922D01*
X149966135Y-88761283D01*
X149970915Y-88737249D01*
X149970915Y-88712745D01*
X149966134Y-88688712D01*
X149956756Y-88666074D01*
X149943142Y-88645699D01*
X149934126Y-88636683D01*
X149922621Y-88622665D01*
X149916854Y-88611875D01*
X149913303Y-88600170D01*
X149911500Y-88581862D01*
X149911500Y-88218138D01*
X149913303Y-88199830D01*
X149916854Y-88188125D01*
X149922621Y-88177335D01*
X149934130Y-88163312D01*
X149943145Y-88154296D01*
X149956759Y-88133922D01*
X149966135Y-88111283D01*
X149970915Y-88087249D01*
X149970915Y-88062745D01*
X149966134Y-88038712D01*
X149956756Y-88016074D01*
X149943142Y-87995699D01*
X149934126Y-87986683D01*
X149922621Y-87972665D01*
X149916854Y-87961875D01*
X149913303Y-87950170D01*
X149911500Y-87931862D01*
X149911500Y-87568138D01*
X149913303Y-87549830D01*
X149916854Y-87538125D01*
X149922621Y-87527335D01*
X149934130Y-87513312D01*
X149943145Y-87504296D01*
X149956759Y-87483922D01*
X149966135Y-87461283D01*
X149970915Y-87437249D01*
X149970915Y-87412745D01*
X149966134Y-87388712D01*
X149956756Y-87366074D01*
X149943142Y-87345699D01*
X149934126Y-87336683D01*
X149922621Y-87322665D01*
X149916854Y-87311875D01*
X149913303Y-87300170D01*
X149911500Y-87281862D01*
X149911500Y-86918138D01*
X149913303Y-86899830D01*
X149916854Y-86888125D01*
X149922621Y-86877335D01*
X149934130Y-86863312D01*
X149943145Y-86854296D01*
X149956759Y-86833922D01*
X149966135Y-86811283D01*
X149970915Y-86787249D01*
X149970915Y-86762745D01*
X149966134Y-86738712D01*
X149956756Y-86716074D01*
X149943142Y-86695699D01*
X149934126Y-86686683D01*
X149922621Y-86672665D01*
X149916854Y-86661875D01*
X149913303Y-86650170D01*
X149911500Y-86631862D01*
X149911500Y-86268138D01*
X149913303Y-86249830D01*
X149916854Y-86238125D01*
X149922621Y-86227335D01*
X149934130Y-86213312D01*
X149943145Y-86204296D01*
X149956759Y-86183922D01*
X149966135Y-86161283D01*
X149970915Y-86137249D01*
X149970915Y-86112745D01*
X149966134Y-86088712D01*
X149956756Y-86066074D01*
X149943142Y-86045699D01*
X149934126Y-86036683D01*
X149922621Y-86022665D01*
X149916854Y-86011875D01*
X149913303Y-86000170D01*
X149911500Y-85981862D01*
X149911500Y-85618138D01*
X149913303Y-85599830D01*
X149916854Y-85588125D01*
X149922621Y-85577335D01*
X149934130Y-85563312D01*
X149943145Y-85554296D01*
X149956759Y-85533922D01*
X149966135Y-85511283D01*
X149970915Y-85487249D01*
X149970915Y-85462745D01*
X149966134Y-85438712D01*
X149956756Y-85416074D01*
X149943142Y-85395699D01*
X149934126Y-85386683D01*
X149922621Y-85372665D01*
X149916854Y-85361875D01*
X149913303Y-85350170D01*
X149911500Y-85331862D01*
X149911500Y-84968138D01*
X149913303Y-84949830D01*
X149916854Y-84938125D01*
X149922621Y-84927335D01*
X149934130Y-84913312D01*
X149943145Y-84904296D01*
X149956759Y-84883922D01*
X149966135Y-84861283D01*
X149970915Y-84837249D01*
X149970915Y-84812745D01*
X149966134Y-84788712D01*
X149956756Y-84766074D01*
X149943142Y-84745699D01*
X149934126Y-84736683D01*
X149922621Y-84722665D01*
X149916854Y-84711875D01*
X149913303Y-84700170D01*
X149911500Y-84681862D01*
X149911500Y-84318138D01*
X149913303Y-84299830D01*
X149916854Y-84288125D01*
X149922621Y-84277335D01*
X149934130Y-84263312D01*
X149943145Y-84254296D01*
X149956759Y-84233922D01*
X149966135Y-84211283D01*
X149970915Y-84187249D01*
X149970915Y-84162745D01*
X149966134Y-84138712D01*
X149956756Y-84116074D01*
X149943142Y-84095699D01*
X149934126Y-84086683D01*
X149922621Y-84072665D01*
X149916854Y-84061875D01*
X149913303Y-84050170D01*
X149911500Y-84031862D01*
X149911500Y-83668138D01*
X149913303Y-83649830D01*
X149916854Y-83638125D01*
X149922621Y-83627335D01*
X149930381Y-83617881D01*
X149939835Y-83610121D01*
X149950625Y-83604354D01*
X149962330Y-83600803D01*
X149980638Y-83599000D01*
X151519362Y-83599000D01*
X151537670Y-83600803D01*
X151537670Y-83600803D01*
G37*
G36*
X172059928Y-89191764D02*
G01*
X172081009Y-89198160D01*
X172100445Y-89208548D01*
X172117476Y-89222524D01*
X172131452Y-89239555D01*
X172141840Y-89258991D01*
X172148236Y-89280072D01*
X172151000Y-89308140D01*
X172151000Y-89771860D01*
X172148236Y-89799928D01*
X172141840Y-89821009D01*
X172131452Y-89840445D01*
X172117476Y-89857476D01*
X172100445Y-89871452D01*
X172081009Y-89881840D01*
X172059928Y-89888236D01*
X172031860Y-89891000D01*
X170218140Y-89891000D01*
X170190072Y-89888236D01*
X170168991Y-89881840D01*
X170149555Y-89871452D01*
X170132524Y-89857476D01*
X170118548Y-89840445D01*
X170108160Y-89821009D01*
X170101764Y-89799928D01*
X170099000Y-89771860D01*
X170099000Y-89308140D01*
X170101764Y-89280072D01*
X170108160Y-89258991D01*
X170118548Y-89239555D01*
X170132524Y-89222524D01*
X170149555Y-89208548D01*
X170168991Y-89198160D01*
X170190072Y-89191764D01*
X170218140Y-89189000D01*
X172031860Y-89189000D01*
X172059928Y-89191764D01*
X172059928Y-89191764D01*
G37*
G36*
X167109928Y-89191764D02*
G01*
X167131009Y-89198160D01*
X167150445Y-89208548D01*
X167167476Y-89222524D01*
X167181452Y-89239555D01*
X167191840Y-89258991D01*
X167198236Y-89280072D01*
X167201000Y-89308140D01*
X167201000Y-89771860D01*
X167198236Y-89799928D01*
X167191840Y-89821009D01*
X167181452Y-89840445D01*
X167167476Y-89857476D01*
X167150445Y-89871452D01*
X167131009Y-89881840D01*
X167109928Y-89888236D01*
X167081860Y-89891000D01*
X165268140Y-89891000D01*
X165240072Y-89888236D01*
X165218991Y-89881840D01*
X165199555Y-89871452D01*
X165182524Y-89857476D01*
X165168548Y-89840445D01*
X165158160Y-89821009D01*
X165151764Y-89799928D01*
X165149000Y-89771860D01*
X165149000Y-89308140D01*
X165151764Y-89280072D01*
X165158160Y-89258991D01*
X165168548Y-89239555D01*
X165182524Y-89222524D01*
X165199555Y-89208548D01*
X165218991Y-89198160D01*
X165240072Y-89191764D01*
X165268140Y-89189000D01*
X167081860Y-89189000D01*
X167109928Y-89191764D01*
X167109928Y-89191764D01*
G37*
G36*
X162039499Y-87728445D02*
G01*
X162076995Y-87739820D01*
X162111554Y-87758292D01*
X162141847Y-87783153D01*
X162166708Y-87813446D01*
X162185180Y-87848005D01*
X162196555Y-87885501D01*
X162201000Y-87930638D01*
X162201000Y-88569362D01*
X162196555Y-88614499D01*
X162185180Y-88651995D01*
X162166708Y-88686554D01*
X162141847Y-88716847D01*
X162111554Y-88741708D01*
X162076995Y-88760180D01*
X162039499Y-88771555D01*
X161994362Y-88776000D01*
X161255638Y-88776000D01*
X161210501Y-88771555D01*
X161173005Y-88760180D01*
X161138446Y-88741708D01*
X161108153Y-88716847D01*
X161083292Y-88686554D01*
X161064820Y-88651995D01*
X161053445Y-88614499D01*
X161049000Y-88569362D01*
X161049000Y-87930638D01*
X161053445Y-87885501D01*
X161064820Y-87848005D01*
X161083292Y-87813446D01*
X161108153Y-87783153D01*
X161138446Y-87758292D01*
X161173005Y-87739820D01*
X161210501Y-87728445D01*
X161255638Y-87724000D01*
X161994362Y-87724000D01*
X162039499Y-87728445D01*
X162039499Y-87728445D01*
G37*
G36*
X163789499Y-87728445D02*
G01*
X163826995Y-87739820D01*
X163861554Y-87758292D01*
X163891847Y-87783153D01*
X163916708Y-87813446D01*
X163935180Y-87848005D01*
X163946555Y-87885501D01*
X163951000Y-87930638D01*
X163951000Y-88569362D01*
X163946555Y-88614499D01*
X163935180Y-88651995D01*
X163916708Y-88686554D01*
X163891847Y-88716847D01*
X163861554Y-88741708D01*
X163826995Y-88760180D01*
X163789499Y-88771555D01*
X163744362Y-88776000D01*
X163005638Y-88776000D01*
X162960501Y-88771555D01*
X162923005Y-88760180D01*
X162888446Y-88741708D01*
X162858153Y-88716847D01*
X162833292Y-88686554D01*
X162814820Y-88651995D01*
X162803445Y-88614499D01*
X162799000Y-88569362D01*
X162799000Y-87930638D01*
X162803445Y-87885501D01*
X162814820Y-87848005D01*
X162833292Y-87813446D01*
X162858153Y-87783153D01*
X162888446Y-87758292D01*
X162923005Y-87739820D01*
X162960501Y-87728445D01*
X163005638Y-87724000D01*
X163744362Y-87724000D01*
X163789499Y-87728445D01*
X163789499Y-87728445D01*
G37*
G36*
X167109928Y-87921764D02*
G01*
X167131009Y-87928160D01*
X167150445Y-87938548D01*
X167167476Y-87952524D01*
X167181452Y-87969555D01*
X167191840Y-87988991D01*
X167198236Y-88010072D01*
X167201000Y-88038140D01*
X167201000Y-88501860D01*
X167198236Y-88529928D01*
X167191840Y-88551009D01*
X167181452Y-88570445D01*
X167167476Y-88587476D01*
X167150445Y-88601452D01*
X167131009Y-88611840D01*
X167109928Y-88618236D01*
X167081860Y-88621000D01*
X165268140Y-88621000D01*
X165240072Y-88618236D01*
X165218991Y-88611840D01*
X165199555Y-88601452D01*
X165182524Y-88587476D01*
X165168548Y-88570445D01*
X165158160Y-88551009D01*
X165151764Y-88529928D01*
X165149000Y-88501860D01*
X165149000Y-88038140D01*
X165151764Y-88010072D01*
X165158160Y-87988991D01*
X165168548Y-87969555D01*
X165182524Y-87952524D01*
X165199555Y-87938548D01*
X165218991Y-87928160D01*
X165240072Y-87921764D01*
X165268140Y-87919000D01*
X167081860Y-87919000D01*
X167109928Y-87921764D01*
X167109928Y-87921764D01*
G37*
G36*
X172059928Y-87921764D02*
G01*
X172081009Y-87928160D01*
X172100445Y-87938548D01*
X172117476Y-87952524D01*
X172131452Y-87969555D01*
X172141840Y-87988991D01*
X172148236Y-88010072D01*
X172151000Y-88038140D01*
X172151000Y-88501860D01*
X172148236Y-88529928D01*
X172141840Y-88551009D01*
X172131452Y-88570445D01*
X172117476Y-88587476D01*
X172100445Y-88601452D01*
X172081009Y-88611840D01*
X172059928Y-88618236D01*
X172031860Y-88621000D01*
X170218140Y-88621000D01*
X170190072Y-88618236D01*
X170168991Y-88611840D01*
X170149555Y-88601452D01*
X170132524Y-88587476D01*
X170118548Y-88570445D01*
X170108160Y-88551009D01*
X170101764Y-88529928D01*
X170099000Y-88501860D01*
X170099000Y-88038140D01*
X170101764Y-88010072D01*
X170108160Y-87988991D01*
X170118548Y-87969555D01*
X170132524Y-87952524D01*
X170149555Y-87938548D01*
X170168991Y-87928160D01*
X170190072Y-87921764D01*
X170218140Y-87919000D01*
X172031860Y-87919000D01*
X172059928Y-87921764D01*
X172059928Y-87921764D01*
G37*
G36*
X149143476Y-85063431D02*
G01*
X149171073Y-85071803D01*
X149196505Y-85085397D01*
X149218803Y-85103697D01*
X149237103Y-85125995D01*
X149250697Y-85151427D01*
X149259069Y-85179024D01*
X149262500Y-85213865D01*
X149262500Y-88336135D01*
X149259069Y-88370976D01*
X149250697Y-88398573D01*
X149237103Y-88424005D01*
X149218803Y-88446303D01*
X149196505Y-88464603D01*
X149171073Y-88478197D01*
X149143476Y-88486569D01*
X149108635Y-88490000D01*
X146666365Y-88490000D01*
X146631524Y-88486569D01*
X146603927Y-88478197D01*
X146578495Y-88464603D01*
X146556197Y-88446303D01*
X146537897Y-88424005D01*
X146524303Y-88398573D01*
X146515931Y-88370976D01*
X146512500Y-88336135D01*
X146512500Y-85213865D01*
X146515931Y-85179024D01*
X146524303Y-85151427D01*
X146537897Y-85125995D01*
X146556197Y-85103697D01*
X146578495Y-85085397D01*
X146603927Y-85071803D01*
X146631524Y-85063431D01*
X146666365Y-85060000D01*
X149108635Y-85060000D01*
X149143476Y-85063431D01*
X149143476Y-85063431D01*
G37*
G36*
X167109928Y-86651764D02*
G01*
X167131009Y-86658160D01*
X167150445Y-86668548D01*
X167167476Y-86682524D01*
X167181452Y-86699555D01*
X167191840Y-86718991D01*
X167198236Y-86740072D01*
X167201000Y-86768140D01*
X167201000Y-87231860D01*
X167198236Y-87259928D01*
X167191840Y-87281009D01*
X167181452Y-87300445D01*
X167167476Y-87317476D01*
X167150445Y-87331452D01*
X167131009Y-87341840D01*
X167109928Y-87348236D01*
X167081860Y-87351000D01*
X165268140Y-87351000D01*
X165240072Y-87348236D01*
X165218991Y-87341840D01*
X165199555Y-87331452D01*
X165182524Y-87317476D01*
X165168548Y-87300445D01*
X165158160Y-87281009D01*
X165151764Y-87259928D01*
X165149000Y-87231860D01*
X165149000Y-86768140D01*
X165151764Y-86740072D01*
X165158160Y-86718991D01*
X165168548Y-86699555D01*
X165182524Y-86682524D01*
X165199555Y-86668548D01*
X165218991Y-86658160D01*
X165240072Y-86651764D01*
X165268140Y-86649000D01*
X167081860Y-86649000D01*
X167109928Y-86651764D01*
X167109928Y-86651764D01*
G37*
G36*
X172059928Y-86651764D02*
G01*
X172081009Y-86658160D01*
X172100445Y-86668548D01*
X172117476Y-86682524D01*
X172131452Y-86699555D01*
X172141840Y-86718991D01*
X172148236Y-86740072D01*
X172151000Y-86768140D01*
X172151000Y-87231860D01*
X172148236Y-87259928D01*
X172141840Y-87281009D01*
X172131452Y-87300445D01*
X172117476Y-87317476D01*
X172100445Y-87331452D01*
X172081009Y-87341840D01*
X172059928Y-87348236D01*
X172031860Y-87351000D01*
X170218140Y-87351000D01*
X170190072Y-87348236D01*
X170168991Y-87341840D01*
X170149555Y-87331452D01*
X170132524Y-87317476D01*
X170118548Y-87300445D01*
X170108160Y-87281009D01*
X170101764Y-87259928D01*
X170099000Y-87231860D01*
X170099000Y-86768140D01*
X170101764Y-86740072D01*
X170108160Y-86718991D01*
X170118548Y-86699555D01*
X170132524Y-86682524D01*
X170149555Y-86668548D01*
X170168991Y-86658160D01*
X170190072Y-86651764D01*
X170218140Y-86649000D01*
X172031860Y-86649000D01*
X172059928Y-86651764D01*
X172059928Y-86651764D01*
G37*
G36*
X164013062Y-85278181D02*
G01*
X164047981Y-85288774D01*
X164080163Y-85305976D01*
X164108373Y-85329127D01*
X164131524Y-85357337D01*
X164148726Y-85389519D01*
X164159319Y-85424438D01*
X164163500Y-85466895D01*
X164163500Y-86933105D01*
X164159319Y-86975562D01*
X164148726Y-87010481D01*
X164131524Y-87042663D01*
X164108373Y-87070873D01*
X164080163Y-87094024D01*
X164047981Y-87111226D01*
X164013062Y-87121819D01*
X163970605Y-87126000D01*
X162829395Y-87126000D01*
X162786938Y-87121819D01*
X162752019Y-87111226D01*
X162719837Y-87094024D01*
X162691627Y-87070873D01*
X162668476Y-87042663D01*
X162651274Y-87010481D01*
X162640681Y-86975562D01*
X162636500Y-86933105D01*
X162636500Y-85466895D01*
X162640681Y-85424438D01*
X162651274Y-85389519D01*
X162668476Y-85357337D01*
X162691627Y-85329127D01*
X162719837Y-85305976D01*
X162752019Y-85288774D01*
X162786938Y-85278181D01*
X162829395Y-85274000D01*
X163970605Y-85274000D01*
X164013062Y-85278181D01*
X164013062Y-85278181D01*
G37*
G36*
X161038062Y-85278181D02*
G01*
X161072981Y-85288774D01*
X161105163Y-85305976D01*
X161133373Y-85329127D01*
X161156524Y-85357337D01*
X161173726Y-85389519D01*
X161184319Y-85424438D01*
X161188500Y-85466895D01*
X161188500Y-86933105D01*
X161184319Y-86975562D01*
X161173726Y-87010481D01*
X161156524Y-87042663D01*
X161133373Y-87070873D01*
X161105163Y-87094024D01*
X161072981Y-87111226D01*
X161038062Y-87121819D01*
X160995605Y-87126000D01*
X159854395Y-87126000D01*
X159811938Y-87121819D01*
X159777019Y-87111226D01*
X159744837Y-87094024D01*
X159716627Y-87070873D01*
X159693476Y-87042663D01*
X159676274Y-87010481D01*
X159665681Y-86975562D01*
X159661500Y-86933105D01*
X159661500Y-85466895D01*
X159665681Y-85424438D01*
X159676274Y-85389519D01*
X159693476Y-85357337D01*
X159716627Y-85329127D01*
X159744837Y-85305976D01*
X159777019Y-85288774D01*
X159811938Y-85278181D01*
X159854395Y-85274000D01*
X160995605Y-85274000D01*
X161038062Y-85278181D01*
X161038062Y-85278181D01*
G37*
G36*
X167109928Y-85381764D02*
G01*
X167131009Y-85388160D01*
X167150445Y-85398548D01*
X167167476Y-85412524D01*
X167181452Y-85429555D01*
X167191840Y-85448991D01*
X167198236Y-85470072D01*
X167201000Y-85498140D01*
X167201000Y-85961860D01*
X167198236Y-85989928D01*
X167191840Y-86011009D01*
X167181452Y-86030445D01*
X167167476Y-86047476D01*
X167150445Y-86061452D01*
X167131009Y-86071840D01*
X167109928Y-86078236D01*
X167081860Y-86081000D01*
X165268140Y-86081000D01*
X165240072Y-86078236D01*
X165218991Y-86071840D01*
X165199555Y-86061452D01*
X165182524Y-86047476D01*
X165168548Y-86030445D01*
X165158160Y-86011009D01*
X165151764Y-85989928D01*
X165149000Y-85961860D01*
X165149000Y-85498140D01*
X165151764Y-85470072D01*
X165158160Y-85448991D01*
X165168548Y-85429555D01*
X165182524Y-85412524D01*
X165199555Y-85398548D01*
X165218991Y-85388160D01*
X165240072Y-85381764D01*
X165268140Y-85379000D01*
X167081860Y-85379000D01*
X167109928Y-85381764D01*
X167109928Y-85381764D01*
G37*
G36*
X172059928Y-85381764D02*
G01*
X172081009Y-85388160D01*
X172100445Y-85398548D01*
X172117476Y-85412524D01*
X172131452Y-85429555D01*
X172141840Y-85448991D01*
X172148236Y-85470072D01*
X172151000Y-85498140D01*
X172151000Y-85961860D01*
X172148236Y-85989928D01*
X172141840Y-86011009D01*
X172131452Y-86030445D01*
X172117476Y-86047476D01*
X172100445Y-86061452D01*
X172081009Y-86071840D01*
X172059928Y-86078236D01*
X172031860Y-86081000D01*
X170218140Y-86081000D01*
X170190072Y-86078236D01*
X170168991Y-86071840D01*
X170149555Y-86061452D01*
X170132524Y-86047476D01*
X170118548Y-86030445D01*
X170108160Y-86011009D01*
X170101764Y-85989928D01*
X170099000Y-85961860D01*
X170099000Y-85498140D01*
X170101764Y-85470072D01*
X170108160Y-85448991D01*
X170118548Y-85429555D01*
X170132524Y-85412524D01*
X170149555Y-85398548D01*
X170168991Y-85388160D01*
X170190072Y-85381764D01*
X170218140Y-85379000D01*
X172031860Y-85379000D01*
X172059928Y-85381764D01*
X172059928Y-85381764D01*
G37*
G36*
X175275562Y-83478181D02*
G01*
X175310481Y-83488774D01*
X175342663Y-83505976D01*
X175370873Y-83529127D01*
X175394024Y-83557337D01*
X175411226Y-83589519D01*
X175421819Y-83624438D01*
X175426000Y-83666895D01*
X175426000Y-85133105D01*
X175421819Y-85175562D01*
X175411226Y-85210481D01*
X175394024Y-85242663D01*
X175370873Y-85270873D01*
X175342663Y-85294024D01*
X175310481Y-85311226D01*
X175275562Y-85321819D01*
X175233105Y-85326000D01*
X174091895Y-85326000D01*
X174049438Y-85321819D01*
X174014519Y-85311226D01*
X173982337Y-85294024D01*
X173954127Y-85270873D01*
X173930976Y-85242663D01*
X173913774Y-85210481D01*
X173903181Y-85175562D01*
X173899000Y-85133105D01*
X173899000Y-83666895D01*
X173903181Y-83624438D01*
X173913774Y-83589519D01*
X173930976Y-83557337D01*
X173954127Y-83529127D01*
X173982337Y-83505976D01*
X174014519Y-83488774D01*
X174049438Y-83478181D01*
X174091895Y-83474000D01*
X175233105Y-83474000D01*
X175275562Y-83478181D01*
X175275562Y-83478181D01*
G37*
G36*
X178250562Y-83478181D02*
G01*
X178285481Y-83488774D01*
X178317663Y-83505976D01*
X178345873Y-83529127D01*
X178369024Y-83557337D01*
X178386226Y-83589519D01*
X178396819Y-83624438D01*
X178401000Y-83666895D01*
X178401000Y-85133105D01*
X178396819Y-85175562D01*
X178386226Y-85210481D01*
X178369024Y-85242663D01*
X178345873Y-85270873D01*
X178317663Y-85294024D01*
X178285481Y-85311226D01*
X178250562Y-85321819D01*
X178208105Y-85326000D01*
X177066895Y-85326000D01*
X177024438Y-85321819D01*
X176989519Y-85311226D01*
X176957337Y-85294024D01*
X176929127Y-85270873D01*
X176905976Y-85242663D01*
X176888774Y-85210481D01*
X176878181Y-85175562D01*
X176874000Y-85133105D01*
X176874000Y-83666895D01*
X176878181Y-83624438D01*
X176888774Y-83589519D01*
X176905976Y-83557337D01*
X176929127Y-83529127D01*
X176957337Y-83505976D01*
X176989519Y-83488774D01*
X177024438Y-83478181D01*
X177066895Y-83474000D01*
X178208105Y-83474000D01*
X178250562Y-83478181D01*
X178250562Y-83478181D01*
G37*
G36*
X167109928Y-84111764D02*
G01*
X167131009Y-84118160D01*
X167150445Y-84128548D01*
X167167476Y-84142524D01*
X167181452Y-84159555D01*
X167191840Y-84178991D01*
X167198236Y-84200072D01*
X167201000Y-84228140D01*
X167201000Y-84691860D01*
X167198236Y-84719928D01*
X167191840Y-84741009D01*
X167181452Y-84760445D01*
X167167476Y-84777476D01*
X167150445Y-84791452D01*
X167131009Y-84801840D01*
X167109928Y-84808236D01*
X167081860Y-84811000D01*
X165268140Y-84811000D01*
X165240072Y-84808236D01*
X165218991Y-84801840D01*
X165199555Y-84791452D01*
X165182524Y-84777476D01*
X165168548Y-84760445D01*
X165158160Y-84741009D01*
X165151764Y-84719928D01*
X165149000Y-84691860D01*
X165149000Y-84228140D01*
X165151764Y-84200072D01*
X165158160Y-84178991D01*
X165168548Y-84159555D01*
X165182524Y-84142524D01*
X165199555Y-84128548D01*
X165218991Y-84118160D01*
X165240072Y-84111764D01*
X165268140Y-84109000D01*
X167081860Y-84109000D01*
X167109928Y-84111764D01*
X167109928Y-84111764D01*
G37*
G36*
X172059928Y-84111764D02*
G01*
X172081009Y-84118160D01*
X172100445Y-84128548D01*
X172117476Y-84142524D01*
X172131452Y-84159555D01*
X172141840Y-84178991D01*
X172148236Y-84200072D01*
X172151000Y-84228140D01*
X172151000Y-84691860D01*
X172148236Y-84719928D01*
X172141840Y-84741009D01*
X172131452Y-84760445D01*
X172117476Y-84777476D01*
X172100445Y-84791452D01*
X172081009Y-84801840D01*
X172059928Y-84808236D01*
X172031860Y-84811000D01*
X170218140Y-84811000D01*
X170190072Y-84808236D01*
X170168991Y-84801840D01*
X170149555Y-84791452D01*
X170132524Y-84777476D01*
X170118548Y-84760445D01*
X170108160Y-84741009D01*
X170101764Y-84719928D01*
X170099000Y-84691860D01*
X170099000Y-84228140D01*
X170101764Y-84200072D01*
X170108160Y-84178991D01*
X170118548Y-84159555D01*
X170132524Y-84142524D01*
X170149555Y-84128548D01*
X170168991Y-84118160D01*
X170190072Y-84111764D01*
X170218140Y-84109000D01*
X172031860Y-84109000D01*
X172059928Y-84111764D01*
X172059928Y-84111764D01*
G37*
G36*
X153825562Y-82603181D02*
G01*
X153860481Y-82613774D01*
X153892663Y-82630976D01*
X153920873Y-82654127D01*
X153944024Y-82682337D01*
X153961226Y-82714519D01*
X153971819Y-82749438D01*
X153976000Y-82791895D01*
X153976000Y-83933105D01*
X153971819Y-83975562D01*
X153961226Y-84010481D01*
X153944024Y-84042663D01*
X153920873Y-84070873D01*
X153892663Y-84094024D01*
X153860481Y-84111226D01*
X153825562Y-84121819D01*
X153783105Y-84126000D01*
X152316895Y-84126000D01*
X152274438Y-84121819D01*
X152239519Y-84111226D01*
X152207337Y-84094024D01*
X152179127Y-84070873D01*
X152155976Y-84042663D01*
X152138774Y-84010481D01*
X152128181Y-83975562D01*
X152124000Y-83933105D01*
X152124000Y-82791895D01*
X152128181Y-82749438D01*
X152138774Y-82714519D01*
X152155976Y-82682337D01*
X152179127Y-82654127D01*
X152207337Y-82630976D01*
X152239519Y-82613774D01*
X152274438Y-82603181D01*
X152316895Y-82599000D01*
X153783105Y-82599000D01*
X153825562Y-82603181D01*
X153825562Y-82603181D01*
G37*
G36*
X167109928Y-82841764D02*
G01*
X167131009Y-82848160D01*
X167150445Y-82858548D01*
X167167476Y-82872524D01*
X167181452Y-82889555D01*
X167191840Y-82908991D01*
X167198236Y-82930072D01*
X167201000Y-82958140D01*
X167201000Y-83421860D01*
X167198236Y-83449928D01*
X167191840Y-83471009D01*
X167181452Y-83490445D01*
X167167476Y-83507476D01*
X167150445Y-83521452D01*
X167131009Y-83531840D01*
X167109928Y-83538236D01*
X167081860Y-83541000D01*
X165268140Y-83541000D01*
X165240072Y-83538236D01*
X165218991Y-83531840D01*
X165199555Y-83521452D01*
X165182524Y-83507476D01*
X165168548Y-83490445D01*
X165158160Y-83471009D01*
X165151764Y-83449928D01*
X165149000Y-83421860D01*
X165149000Y-82958140D01*
X165151764Y-82930072D01*
X165158160Y-82908991D01*
X165168548Y-82889555D01*
X165182524Y-82872524D01*
X165199555Y-82858548D01*
X165218991Y-82848160D01*
X165240072Y-82841764D01*
X165268140Y-82839000D01*
X167081860Y-82839000D01*
X167109928Y-82841764D01*
X167109928Y-82841764D01*
G37*
G36*
X172059928Y-82841764D02*
G01*
X172081009Y-82848160D01*
X172100445Y-82858548D01*
X172117476Y-82872524D01*
X172131452Y-82889555D01*
X172141840Y-82908991D01*
X172148236Y-82930072D01*
X172151000Y-82958140D01*
X172151000Y-83421860D01*
X172148236Y-83449928D01*
X172141840Y-83471009D01*
X172131452Y-83490445D01*
X172117476Y-83507476D01*
X172100445Y-83521452D01*
X172081009Y-83531840D01*
X172059928Y-83538236D01*
X172031860Y-83541000D01*
X170218140Y-83541000D01*
X170190072Y-83538236D01*
X170168991Y-83531840D01*
X170149555Y-83521452D01*
X170132524Y-83507476D01*
X170118548Y-83490445D01*
X170108160Y-83471009D01*
X170101764Y-83449928D01*
X170099000Y-83421860D01*
X170099000Y-82958140D01*
X170101764Y-82930072D01*
X170108160Y-82908991D01*
X170118548Y-82889555D01*
X170132524Y-82872524D01*
X170149555Y-82858548D01*
X170168991Y-82848160D01*
X170190072Y-82841764D01*
X170218140Y-82839000D01*
X172031860Y-82839000D01*
X172059928Y-82841764D01*
X172059928Y-82841764D01*
G37*
G36*
X151500562Y-81428181D02*
G01*
X151535481Y-81438774D01*
X151567663Y-81455976D01*
X151595873Y-81479127D01*
X151619024Y-81507337D01*
X151636226Y-81539519D01*
X151646819Y-81574438D01*
X151651000Y-81616895D01*
X151651000Y-82758105D01*
X151646819Y-82800562D01*
X151636226Y-82835481D01*
X151619024Y-82867663D01*
X151595873Y-82895873D01*
X151567663Y-82919024D01*
X151535481Y-82936226D01*
X151500562Y-82946819D01*
X151458105Y-82951000D01*
X149991895Y-82951000D01*
X149949438Y-82946819D01*
X149914519Y-82936226D01*
X149882337Y-82919024D01*
X149854127Y-82895873D01*
X149830976Y-82867663D01*
X149813774Y-82835481D01*
X149803181Y-82800562D01*
X149799000Y-82758105D01*
X149799000Y-81616895D01*
X149803181Y-81574438D01*
X149813774Y-81539519D01*
X149830976Y-81507337D01*
X149854127Y-81479127D01*
X149882337Y-81455976D01*
X149914519Y-81438774D01*
X149949438Y-81428181D01*
X149991895Y-81424000D01*
X151458105Y-81424000D01*
X151500562Y-81428181D01*
X151500562Y-81428181D01*
G37*
G36*
X146889499Y-81728445D02*
G01*
X146926995Y-81739820D01*
X146961554Y-81758292D01*
X146991847Y-81783153D01*
X147016708Y-81813446D01*
X147035180Y-81848005D01*
X147046555Y-81885501D01*
X147051000Y-81930638D01*
X147051000Y-82569362D01*
X147046555Y-82614499D01*
X147035180Y-82651995D01*
X147016708Y-82686554D01*
X146991847Y-82716847D01*
X146961554Y-82741708D01*
X146926995Y-82760180D01*
X146889499Y-82771555D01*
X146844362Y-82776000D01*
X146105638Y-82776000D01*
X146060501Y-82771555D01*
X146023005Y-82760180D01*
X145988446Y-82741708D01*
X145958153Y-82716847D01*
X145933292Y-82686554D01*
X145914820Y-82651995D01*
X145903445Y-82614499D01*
X145899000Y-82569362D01*
X145899000Y-81930638D01*
X145903445Y-81885501D01*
X145914820Y-81848005D01*
X145933292Y-81813446D01*
X145958153Y-81783153D01*
X145988446Y-81758292D01*
X146023005Y-81739820D01*
X146060501Y-81728445D01*
X146105638Y-81724000D01*
X146844362Y-81724000D01*
X146889499Y-81728445D01*
X146889499Y-81728445D01*
G37*
G36*
X145139499Y-81728445D02*
G01*
X145176995Y-81739820D01*
X145211554Y-81758292D01*
X145241847Y-81783153D01*
X145266708Y-81813446D01*
X145285180Y-81848005D01*
X145296555Y-81885501D01*
X145301000Y-81930638D01*
X145301000Y-82569362D01*
X145296555Y-82614499D01*
X145285180Y-82651995D01*
X145266708Y-82686554D01*
X145241847Y-82716847D01*
X145211554Y-82741708D01*
X145176995Y-82760180D01*
X145139499Y-82771555D01*
X145094362Y-82776000D01*
X144355638Y-82776000D01*
X144310501Y-82771555D01*
X144273005Y-82760180D01*
X144238446Y-82741708D01*
X144208153Y-82716847D01*
X144183292Y-82686554D01*
X144164820Y-82651995D01*
X144153445Y-82614499D01*
X144149000Y-82569362D01*
X144149000Y-81930638D01*
X144153445Y-81885501D01*
X144164820Y-81848005D01*
X144183292Y-81813446D01*
X144208153Y-81783153D01*
X144238446Y-81758292D01*
X144273005Y-81739820D01*
X144310501Y-81728445D01*
X144355638Y-81724000D01*
X145094362Y-81724000D01*
X145139499Y-81728445D01*
X145139499Y-81728445D01*
G37*
G36*
X193950257Y-79316299D02*
G01*
X194056580Y-79337448D01*
X194357043Y-79461904D01*
X194627452Y-79642586D01*
X194857416Y-79872550D01*
X195038098Y-80142959D01*
X195152199Y-80418422D01*
X195162554Y-80443423D01*
X195226001Y-80762390D01*
X195226001Y-81087612D01*
X195217448Y-81130608D01*
X195162554Y-81406580D01*
X195038098Y-81707043D01*
X194857416Y-81977452D01*
X194627452Y-82207416D01*
X194357043Y-82388098D01*
X194056580Y-82512554D01*
X193950257Y-82533703D01*
X193737612Y-82576001D01*
X193412390Y-82576001D01*
X193199745Y-82533703D01*
X193093422Y-82512554D01*
X192792959Y-82388098D01*
X192522550Y-82207416D01*
X192292586Y-81977452D01*
X192111904Y-81707043D01*
X191987448Y-81406580D01*
X191932554Y-81130608D01*
X191924001Y-81087612D01*
X191924001Y-80762390D01*
X191987448Y-80443423D01*
X191997804Y-80418422D01*
X192111904Y-80142959D01*
X192292586Y-79872550D01*
X192522550Y-79642586D01*
X192792959Y-79461904D01*
X193093422Y-79337448D01*
X193199745Y-79316299D01*
X193412390Y-79274001D01*
X193737612Y-79274001D01*
X193950257Y-79316299D01*
X193950257Y-79316299D01*
G37*
G36*
X102838298Y-79274001D02*
G01*
X103031579Y-79312447D01*
X103332042Y-79436903D01*
X103602451Y-79617585D01*
X103832415Y-79847549D01*
X103918243Y-79976000D01*
X104013098Y-80117960D01*
X104137553Y-80418422D01*
X104201000Y-80737389D01*
X104201000Y-81062611D01*
X104187474Y-81130608D01*
X104137553Y-81381579D01*
X104013097Y-81682042D01*
X103832415Y-81952451D01*
X103602451Y-82182415D01*
X103332042Y-82363097D01*
X103031579Y-82487553D01*
X102925256Y-82508702D01*
X102712611Y-82551000D01*
X102387389Y-82551000D01*
X102174744Y-82508702D01*
X102068421Y-82487553D01*
X101767958Y-82363097D01*
X101497549Y-82182415D01*
X101267585Y-81952451D01*
X101086903Y-81682042D01*
X100962447Y-81381579D01*
X100912526Y-81130608D01*
X100899000Y-81062611D01*
X100899000Y-80737389D01*
X100962447Y-80418422D01*
X101086902Y-80117960D01*
X101181757Y-79976000D01*
X101267585Y-79847549D01*
X101497549Y-79617585D01*
X101767958Y-79436903D01*
X102068421Y-79312447D01*
X102261702Y-79274001D01*
X102387389Y-79249000D01*
X102712611Y-79249000D01*
X102838298Y-79274001D01*
X102838298Y-79274001D01*
G37*
G36*
X153825562Y-79628181D02*
G01*
X153860481Y-79638774D01*
X153892663Y-79655976D01*
X153920873Y-79679127D01*
X153944024Y-79707337D01*
X153961226Y-79739519D01*
X153971819Y-79774438D01*
X153976000Y-79816895D01*
X153976000Y-80958105D01*
X153971819Y-81000562D01*
X153961226Y-81035481D01*
X153944024Y-81067663D01*
X153920873Y-81095873D01*
X153892663Y-81119024D01*
X153860481Y-81136226D01*
X153825562Y-81146819D01*
X153783105Y-81151000D01*
X152316895Y-81151000D01*
X152274438Y-81146819D01*
X152239519Y-81136226D01*
X152207337Y-81119024D01*
X152179127Y-81095873D01*
X152155976Y-81067663D01*
X152138774Y-81035481D01*
X152128181Y-81000562D01*
X152124000Y-80958105D01*
X152124000Y-79816895D01*
X152128181Y-79774438D01*
X152138774Y-79739519D01*
X152155976Y-79707337D01*
X152179127Y-79679127D01*
X152207337Y-79655976D01*
X152239519Y-79638774D01*
X152274438Y-79628181D01*
X152316895Y-79624000D01*
X153783105Y-79624000D01*
X153825562Y-79628181D01*
X153825562Y-79628181D01*
G37*
G36*
X151500562Y-78453181D02*
G01*
X151535481Y-78463774D01*
X151567663Y-78480976D01*
X151595873Y-78504127D01*
X151619024Y-78532337D01*
X151636226Y-78564519D01*
X151646819Y-78599438D01*
X151651000Y-78641895D01*
X151651000Y-79783105D01*
X151646819Y-79825562D01*
X151636226Y-79860481D01*
X151619024Y-79892663D01*
X151595873Y-79920873D01*
X151567663Y-79944024D01*
X151535481Y-79961226D01*
X151500562Y-79971819D01*
X151458105Y-79976000D01*
X149991895Y-79976000D01*
X149949438Y-79971819D01*
X149914519Y-79961226D01*
X149882337Y-79944024D01*
X149854127Y-79920873D01*
X149830976Y-79892663D01*
X149813774Y-79860481D01*
X149803181Y-79825562D01*
X149799000Y-79783105D01*
X149799000Y-78641895D01*
X149803181Y-78599438D01*
X149813774Y-78564519D01*
X149830976Y-78532337D01*
X149854127Y-78504127D01*
X149882337Y-78480976D01*
X149914519Y-78463774D01*
X149949438Y-78453181D01*
X149991895Y-78449000D01*
X151458105Y-78449000D01*
X151500562Y-78453181D01*
X151500562Y-78453181D01*
G37*
G36*
X168289499Y-77153445D02*
G01*
X168326995Y-77164820D01*
X168361554Y-77183292D01*
X168391847Y-77208153D01*
X168416708Y-77238446D01*
X168435180Y-77273005D01*
X168446555Y-77310501D01*
X168451000Y-77355638D01*
X168451000Y-77994362D01*
X168446555Y-78039499D01*
X168435180Y-78076995D01*
X168416708Y-78111554D01*
X168391847Y-78141847D01*
X168361554Y-78166708D01*
X168326995Y-78185180D01*
X168289499Y-78196555D01*
X168244362Y-78201000D01*
X167505638Y-78201000D01*
X167460501Y-78196555D01*
X167423005Y-78185180D01*
X167388446Y-78166708D01*
X167358153Y-78141847D01*
X167333292Y-78111554D01*
X167314820Y-78076995D01*
X167303445Y-78039499D01*
X167299000Y-77994362D01*
X167299000Y-77355638D01*
X167303445Y-77310501D01*
X167314820Y-77273005D01*
X167333292Y-77238446D01*
X167358153Y-77208153D01*
X167388446Y-77183292D01*
X167423005Y-77164820D01*
X167460501Y-77153445D01*
X167505638Y-77149000D01*
X168244362Y-77149000D01*
X168289499Y-77153445D01*
X168289499Y-77153445D01*
G37*
G36*
X170039499Y-77153445D02*
G01*
X170076995Y-77164820D01*
X170111554Y-77183292D01*
X170141847Y-77208153D01*
X170166708Y-77238446D01*
X170185180Y-77273005D01*
X170196555Y-77310501D01*
X170201000Y-77355638D01*
X170201000Y-77994362D01*
X170196555Y-78039499D01*
X170185180Y-78076995D01*
X170166708Y-78111554D01*
X170141847Y-78141847D01*
X170111554Y-78166708D01*
X170076995Y-78185180D01*
X170039499Y-78196555D01*
X169994362Y-78201000D01*
X169255638Y-78201000D01*
X169210501Y-78196555D01*
X169173005Y-78185180D01*
X169138446Y-78166708D01*
X169108153Y-78141847D01*
X169083292Y-78111554D01*
X169064820Y-78076995D01*
X169053445Y-78039499D01*
X169049000Y-77994362D01*
X169049000Y-77355638D01*
X169053445Y-77310501D01*
X169064820Y-77273005D01*
X169083292Y-77238446D01*
X169108153Y-77208153D01*
X169138446Y-77183292D01*
X169173005Y-77164820D01*
X169210501Y-77153445D01*
X169255638Y-77149000D01*
X169994362Y-77149000D01*
X170039499Y-77153445D01*
X170039499Y-77153445D01*
G37*
G36*
X168851000Y-70202265D02*
G01*
X168853402Y-70226651D01*
X168860515Y-70250100D01*
X168872066Y-70271711D01*
X168887611Y-70290653D01*
X168906553Y-70306198D01*
X168928164Y-70317749D01*
X168951613Y-70324862D01*
X168975999Y-70327264D01*
X169000385Y-70324862D01*
X169023834Y-70317749D01*
X169045445Y-70306198D01*
X169064387Y-70290653D01*
X169079932Y-70271711D01*
X169086233Y-70261198D01*
X169109644Y-70217400D01*
X169178499Y-70133499D01*
X169212448Y-70105638D01*
X169262400Y-70064643D01*
X169330945Y-70028005D01*
X169358121Y-70013479D01*
X169461985Y-69981973D01*
X169542933Y-69974000D01*
X169597067Y-69974000D01*
X169678015Y-69981973D01*
X169781879Y-70013479D01*
X169809055Y-70028005D01*
X169877600Y-70064643D01*
X169961501Y-70133499D01*
X170030357Y-70217400D01*
X170066995Y-70285945D01*
X170081521Y-70313121D01*
X170113027Y-70416985D01*
X170123666Y-70525000D01*
X170113027Y-70633015D01*
X170081521Y-70736879D01*
X170081191Y-70737496D01*
X170030357Y-70832600D01*
X169961501Y-70916501D01*
X169877600Y-70985357D01*
X169818946Y-71016708D01*
X169781879Y-71036521D01*
X169769131Y-71040388D01*
X169746504Y-71049760D01*
X169726130Y-71063374D01*
X169708803Y-71080701D01*
X169695189Y-71101075D01*
X169685812Y-71123714D01*
X169681031Y-71147747D01*
X169681031Y-71172251D01*
X169685811Y-71196285D01*
X169695188Y-71218924D01*
X169708802Y-71239298D01*
X169726129Y-71256625D01*
X169746503Y-71270239D01*
X169769131Y-71279612D01*
X169781879Y-71283479D01*
X169808344Y-71297625D01*
X169877600Y-71334643D01*
X169961501Y-71403499D01*
X170030357Y-71487400D01*
X170066995Y-71555945D01*
X170081521Y-71583121D01*
X170113027Y-71686985D01*
X170123666Y-71795000D01*
X170113027Y-71903015D01*
X170081521Y-72006879D01*
X170081519Y-72006882D01*
X170030357Y-72102600D01*
X169961501Y-72186501D01*
X169877600Y-72255357D01*
X169809055Y-72291995D01*
X169781879Y-72306521D01*
X169769131Y-72310388D01*
X169746504Y-72319760D01*
X169726130Y-72333374D01*
X169708803Y-72350701D01*
X169695189Y-72371075D01*
X169685812Y-72393714D01*
X169681031Y-72417747D01*
X169681031Y-72442251D01*
X169685811Y-72466285D01*
X169695188Y-72488924D01*
X169708802Y-72509298D01*
X169726129Y-72526625D01*
X169746503Y-72540239D01*
X169769131Y-72549612D01*
X169781879Y-72553479D01*
X169809055Y-72568005D01*
X169877600Y-72604643D01*
X169961501Y-72673499D01*
X170030357Y-72757400D01*
X170066995Y-72825945D01*
X170081521Y-72853121D01*
X170113027Y-72956985D01*
X170123666Y-73065000D01*
X170113027Y-73173015D01*
X170081521Y-73276879D01*
X170081519Y-73276882D01*
X170030357Y-73372600D01*
X169961501Y-73456501D01*
X169877600Y-73525357D01*
X169809055Y-73561995D01*
X169781879Y-73576521D01*
X169769131Y-73580388D01*
X169746504Y-73589760D01*
X169726130Y-73603374D01*
X169708803Y-73620701D01*
X169695189Y-73641075D01*
X169685812Y-73663714D01*
X169681031Y-73687747D01*
X169681031Y-73712251D01*
X169685811Y-73736285D01*
X169695188Y-73758924D01*
X169708802Y-73779298D01*
X169726129Y-73796625D01*
X169746503Y-73810239D01*
X169769131Y-73819612D01*
X169781879Y-73823479D01*
X169809055Y-73838005D01*
X169877600Y-73874643D01*
X169961501Y-73943499D01*
X170030357Y-74027400D01*
X170066995Y-74095945D01*
X170081521Y-74123121D01*
X170113027Y-74226985D01*
X170123666Y-74335000D01*
X170113027Y-74443015D01*
X170081521Y-74546879D01*
X170081519Y-74546882D01*
X170030357Y-74642600D01*
X169961501Y-74726501D01*
X169877600Y-74795357D01*
X169809055Y-74831995D01*
X169781879Y-74846521D01*
X169769131Y-74850388D01*
X169746504Y-74859760D01*
X169726130Y-74873374D01*
X169708803Y-74890701D01*
X169695189Y-74911075D01*
X169685812Y-74933714D01*
X169681031Y-74957747D01*
X169681031Y-74982251D01*
X169685811Y-75006285D01*
X169695188Y-75028924D01*
X169708802Y-75049298D01*
X169726129Y-75066625D01*
X169746503Y-75080239D01*
X169769131Y-75089612D01*
X169781879Y-75093479D01*
X169809055Y-75108005D01*
X169877600Y-75144643D01*
X169961501Y-75213499D01*
X170030357Y-75297400D01*
X170066995Y-75365945D01*
X170081521Y-75393121D01*
X170113027Y-75496985D01*
X170123666Y-75605000D01*
X170113027Y-75713015D01*
X170081521Y-75816879D01*
X170081519Y-75816882D01*
X170030357Y-75912600D01*
X169961501Y-75996501D01*
X169877600Y-76065357D01*
X169809055Y-76101995D01*
X169781879Y-76116521D01*
X169678015Y-76148027D01*
X169597067Y-76156000D01*
X169542933Y-76156000D01*
X169461985Y-76148027D01*
X169358121Y-76116521D01*
X169330945Y-76101995D01*
X169262400Y-76065357D01*
X169178499Y-75996501D01*
X169109643Y-75912600D01*
X169058481Y-75816882D01*
X169058479Y-75816879D01*
X169054612Y-75804131D01*
X169045240Y-75781504D01*
X169031626Y-75761130D01*
X169014299Y-75743803D01*
X168993925Y-75730189D01*
X168971286Y-75720812D01*
X168947253Y-75716031D01*
X168922749Y-75716031D01*
X168898715Y-75720811D01*
X168876076Y-75730188D01*
X168855702Y-75743802D01*
X168838375Y-75761129D01*
X168824761Y-75781503D01*
X168815388Y-75804131D01*
X168811521Y-75816879D01*
X168811519Y-75816882D01*
X168760357Y-75912600D01*
X168691501Y-75996501D01*
X168607600Y-76065357D01*
X168539055Y-76101995D01*
X168511879Y-76116521D01*
X168408015Y-76148027D01*
X168327067Y-76156000D01*
X168272933Y-76156000D01*
X168191985Y-76148027D01*
X168088121Y-76116521D01*
X168060945Y-76101995D01*
X167992400Y-76065357D01*
X167908499Y-75996501D01*
X167839643Y-75912600D01*
X167788481Y-75816882D01*
X167788479Y-75816879D01*
X167756973Y-75713015D01*
X167746334Y-75605000D01*
X167756973Y-75496985D01*
X167788479Y-75393121D01*
X167803005Y-75365945D01*
X167839643Y-75297400D01*
X167908499Y-75213499D01*
X167992400Y-75144643D01*
X168060945Y-75108005D01*
X168088121Y-75093479D01*
X168100869Y-75089612D01*
X168123496Y-75080240D01*
X168143870Y-75066626D01*
X168161197Y-75049299D01*
X168174811Y-75028925D01*
X168184188Y-75006286D01*
X168188969Y-74982253D01*
X168188969Y-74957749D01*
X168188969Y-74957747D01*
X168411031Y-74957747D01*
X168411031Y-74982251D01*
X168415811Y-75006285D01*
X168425188Y-75028924D01*
X168438802Y-75049298D01*
X168456129Y-75066625D01*
X168476503Y-75080239D01*
X168499131Y-75089612D01*
X168511879Y-75093479D01*
X168539055Y-75108005D01*
X168607600Y-75144643D01*
X168691501Y-75213499D01*
X168760357Y-75297400D01*
X168796995Y-75365945D01*
X168811521Y-75393121D01*
X168815388Y-75405869D01*
X168824760Y-75428496D01*
X168838374Y-75448870D01*
X168855701Y-75466197D01*
X168876075Y-75479811D01*
X168898714Y-75489188D01*
X168922747Y-75493969D01*
X168947251Y-75493969D01*
X168971285Y-75489189D01*
X168993924Y-75479812D01*
X169014298Y-75466198D01*
X169031625Y-75448871D01*
X169045239Y-75428497D01*
X169054612Y-75405869D01*
X169058479Y-75393121D01*
X169073005Y-75365945D01*
X169109643Y-75297400D01*
X169178499Y-75213499D01*
X169262400Y-75144643D01*
X169330945Y-75108005D01*
X169358121Y-75093479D01*
X169370869Y-75089612D01*
X169393496Y-75080240D01*
X169413870Y-75066626D01*
X169431197Y-75049299D01*
X169444811Y-75028925D01*
X169454188Y-75006286D01*
X169458969Y-74982253D01*
X169458969Y-74957749D01*
X169454189Y-74933715D01*
X169444812Y-74911076D01*
X169431198Y-74890702D01*
X169413871Y-74873375D01*
X169393497Y-74859761D01*
X169370869Y-74850388D01*
X169358121Y-74846521D01*
X169330945Y-74831995D01*
X169262400Y-74795357D01*
X169178499Y-74726501D01*
X169109643Y-74642600D01*
X169058481Y-74546882D01*
X169058479Y-74546879D01*
X169054612Y-74534131D01*
X169045240Y-74511504D01*
X169031626Y-74491130D01*
X169014299Y-74473803D01*
X168993925Y-74460189D01*
X168971286Y-74450812D01*
X168947253Y-74446031D01*
X168922749Y-74446031D01*
X168898715Y-74450811D01*
X168876076Y-74460188D01*
X168855702Y-74473802D01*
X168838375Y-74491129D01*
X168824761Y-74511503D01*
X168815388Y-74534131D01*
X168811521Y-74546879D01*
X168811519Y-74546882D01*
X168760357Y-74642600D01*
X168691501Y-74726501D01*
X168607600Y-74795357D01*
X168539055Y-74831995D01*
X168511879Y-74846521D01*
X168499131Y-74850388D01*
X168476504Y-74859760D01*
X168456130Y-74873374D01*
X168438803Y-74890701D01*
X168425189Y-74911075D01*
X168415812Y-74933714D01*
X168411031Y-74957747D01*
X168188969Y-74957747D01*
X168184189Y-74933715D01*
X168174812Y-74911076D01*
X168161198Y-74890702D01*
X168143871Y-74873375D01*
X168123497Y-74859761D01*
X168100869Y-74850388D01*
X168088121Y-74846521D01*
X168060945Y-74831995D01*
X167992400Y-74795357D01*
X167908499Y-74726501D01*
X167839643Y-74642600D01*
X167788481Y-74546882D01*
X167788479Y-74546879D01*
X167756973Y-74443015D01*
X167746334Y-74335000D01*
X167756973Y-74226985D01*
X167788479Y-74123121D01*
X167803005Y-74095945D01*
X167839643Y-74027400D01*
X167908499Y-73943499D01*
X167992400Y-73874643D01*
X168060945Y-73838005D01*
X168088121Y-73823479D01*
X168100869Y-73819612D01*
X168123496Y-73810240D01*
X168143870Y-73796626D01*
X168161197Y-73779299D01*
X168174811Y-73758925D01*
X168184188Y-73736286D01*
X168188969Y-73712253D01*
X168188969Y-73687749D01*
X168188969Y-73687747D01*
X168411031Y-73687747D01*
X168411031Y-73712251D01*
X168415811Y-73736285D01*
X168425188Y-73758924D01*
X168438802Y-73779298D01*
X168456129Y-73796625D01*
X168476503Y-73810239D01*
X168499131Y-73819612D01*
X168511879Y-73823479D01*
X168539055Y-73838005D01*
X168607600Y-73874643D01*
X168691501Y-73943499D01*
X168760357Y-74027400D01*
X168796995Y-74095945D01*
X168811521Y-74123121D01*
X168815388Y-74135869D01*
X168824760Y-74158496D01*
X168838374Y-74178870D01*
X168855701Y-74196197D01*
X168876075Y-74209811D01*
X168898714Y-74219188D01*
X168922747Y-74223969D01*
X168947251Y-74223969D01*
X168971285Y-74219189D01*
X168993924Y-74209812D01*
X169014298Y-74196198D01*
X169031625Y-74178871D01*
X169045239Y-74158497D01*
X169054612Y-74135869D01*
X169058479Y-74123121D01*
X169073005Y-74095945D01*
X169109643Y-74027400D01*
X169178499Y-73943499D01*
X169262400Y-73874643D01*
X169330945Y-73838005D01*
X169358121Y-73823479D01*
X169370869Y-73819612D01*
X169393496Y-73810240D01*
X169413870Y-73796626D01*
X169431197Y-73779299D01*
X169444811Y-73758925D01*
X169454188Y-73736286D01*
X169458969Y-73712253D01*
X169458969Y-73687749D01*
X169454189Y-73663715D01*
X169444812Y-73641076D01*
X169431198Y-73620702D01*
X169413871Y-73603375D01*
X169393497Y-73589761D01*
X169370869Y-73580388D01*
X169358121Y-73576521D01*
X169330945Y-73561995D01*
X169262400Y-73525357D01*
X169178499Y-73456501D01*
X169109643Y-73372600D01*
X169058481Y-73276882D01*
X169058479Y-73276879D01*
X169054612Y-73264131D01*
X169045240Y-73241504D01*
X169031626Y-73221130D01*
X169014299Y-73203803D01*
X168993925Y-73190189D01*
X168971286Y-73180812D01*
X168947253Y-73176031D01*
X168922749Y-73176031D01*
X168898715Y-73180811D01*
X168876076Y-73190188D01*
X168855702Y-73203802D01*
X168838375Y-73221129D01*
X168824761Y-73241503D01*
X168815388Y-73264131D01*
X168811521Y-73276879D01*
X168811519Y-73276882D01*
X168760357Y-73372600D01*
X168691501Y-73456501D01*
X168607600Y-73525357D01*
X168539055Y-73561995D01*
X168511879Y-73576521D01*
X168499131Y-73580388D01*
X168476504Y-73589760D01*
X168456130Y-73603374D01*
X168438803Y-73620701D01*
X168425189Y-73641075D01*
X168415812Y-73663714D01*
X168411031Y-73687747D01*
X168188969Y-73687747D01*
X168184189Y-73663715D01*
X168174812Y-73641076D01*
X168161198Y-73620702D01*
X168143871Y-73603375D01*
X168123497Y-73589761D01*
X168100869Y-73580388D01*
X168088121Y-73576521D01*
X168060945Y-73561995D01*
X167992400Y-73525357D01*
X167908499Y-73456501D01*
X167839643Y-73372600D01*
X167788481Y-73276882D01*
X167788479Y-73276879D01*
X167756973Y-73173015D01*
X167746334Y-73065000D01*
X167756973Y-72956985D01*
X167788479Y-72853121D01*
X167803005Y-72825945D01*
X167839643Y-72757400D01*
X167908499Y-72673499D01*
X167992400Y-72604643D01*
X168060945Y-72568005D01*
X168088121Y-72553479D01*
X168100869Y-72549612D01*
X168123496Y-72540240D01*
X168143870Y-72526626D01*
X168161197Y-72509299D01*
X168174811Y-72488925D01*
X168184188Y-72466286D01*
X168188969Y-72442253D01*
X168188969Y-72417749D01*
X168188969Y-72417747D01*
X168411031Y-72417747D01*
X168411031Y-72442251D01*
X168415811Y-72466285D01*
X168425188Y-72488924D01*
X168438802Y-72509298D01*
X168456129Y-72526625D01*
X168476503Y-72540239D01*
X168499131Y-72549612D01*
X168511879Y-72553479D01*
X168539055Y-72568005D01*
X168607600Y-72604643D01*
X168691501Y-72673499D01*
X168760357Y-72757400D01*
X168796995Y-72825945D01*
X168811521Y-72853121D01*
X168815388Y-72865869D01*
X168824760Y-72888496D01*
X168838374Y-72908870D01*
X168855701Y-72926197D01*
X168876075Y-72939811D01*
X168898714Y-72949188D01*
X168922747Y-72953969D01*
X168947251Y-72953969D01*
X168971285Y-72949189D01*
X168993924Y-72939812D01*
X169014298Y-72926198D01*
X169031625Y-72908871D01*
X169045239Y-72888497D01*
X169054612Y-72865869D01*
X169058479Y-72853121D01*
X169073005Y-72825945D01*
X169109643Y-72757400D01*
X169178499Y-72673499D01*
X169262400Y-72604643D01*
X169330945Y-72568005D01*
X169358121Y-72553479D01*
X169370869Y-72549612D01*
X169393496Y-72540240D01*
X169413870Y-72526626D01*
X169431197Y-72509299D01*
X169444811Y-72488925D01*
X169454188Y-72466286D01*
X169458969Y-72442253D01*
X169458969Y-72417749D01*
X169454189Y-72393715D01*
X169444812Y-72371076D01*
X169431198Y-72350702D01*
X169413871Y-72333375D01*
X169393497Y-72319761D01*
X169370869Y-72310388D01*
X169358121Y-72306521D01*
X169330945Y-72291995D01*
X169262400Y-72255357D01*
X169178499Y-72186501D01*
X169109643Y-72102600D01*
X169058481Y-72006882D01*
X169058479Y-72006879D01*
X169054612Y-71994131D01*
X169045240Y-71971504D01*
X169031626Y-71951130D01*
X169014299Y-71933803D01*
X168993925Y-71920189D01*
X168971286Y-71910812D01*
X168947253Y-71906031D01*
X168922749Y-71906031D01*
X168898715Y-71910811D01*
X168876076Y-71920188D01*
X168855702Y-71933802D01*
X168838375Y-71951129D01*
X168824761Y-71971503D01*
X168815388Y-71994131D01*
X168811521Y-72006879D01*
X168811519Y-72006882D01*
X168760357Y-72102600D01*
X168691501Y-72186501D01*
X168607600Y-72255357D01*
X168539055Y-72291995D01*
X168511879Y-72306521D01*
X168499131Y-72310388D01*
X168476504Y-72319760D01*
X168456130Y-72333374D01*
X168438803Y-72350701D01*
X168425189Y-72371075D01*
X168415812Y-72393714D01*
X168411031Y-72417747D01*
X168188969Y-72417747D01*
X168184189Y-72393715D01*
X168174812Y-72371076D01*
X168161198Y-72350702D01*
X168143871Y-72333375D01*
X168123497Y-72319761D01*
X168100869Y-72310388D01*
X168088121Y-72306521D01*
X168060945Y-72291995D01*
X167992400Y-72255357D01*
X167908499Y-72186501D01*
X167839643Y-72102600D01*
X167788481Y-72006882D01*
X167788479Y-72006879D01*
X167756973Y-71903015D01*
X167746334Y-71795000D01*
X167756973Y-71686985D01*
X167788479Y-71583121D01*
X167803005Y-71555945D01*
X167839643Y-71487400D01*
X167908499Y-71403499D01*
X167992399Y-71334645D01*
X167992398Y-71334645D01*
X167992400Y-71334644D01*
X168036193Y-71311236D01*
X168056563Y-71297625D01*
X168073890Y-71280298D01*
X168087504Y-71259924D01*
X168096881Y-71237285D01*
X168101662Y-71213252D01*
X168101662Y-71200999D01*
X168497736Y-71200999D01*
X168500138Y-71225385D01*
X168507251Y-71248834D01*
X168518802Y-71270445D01*
X168534347Y-71289387D01*
X168553289Y-71304932D01*
X168563802Y-71311233D01*
X168607600Y-71334644D01*
X168607602Y-71334645D01*
X168607601Y-71334645D01*
X168691501Y-71403499D01*
X168760357Y-71487400D01*
X168796995Y-71555945D01*
X168811521Y-71583121D01*
X168815388Y-71595869D01*
X168824760Y-71618496D01*
X168838374Y-71638870D01*
X168855701Y-71656197D01*
X168876075Y-71669811D01*
X168898714Y-71679188D01*
X168922747Y-71683969D01*
X168947251Y-71683969D01*
X168971285Y-71679189D01*
X168993924Y-71669812D01*
X169014298Y-71656198D01*
X169031625Y-71638871D01*
X169045239Y-71618497D01*
X169054612Y-71595869D01*
X169058479Y-71583121D01*
X169073005Y-71555945D01*
X169109643Y-71487400D01*
X169178499Y-71403499D01*
X169262400Y-71334643D01*
X169331656Y-71297625D01*
X169358121Y-71283479D01*
X169370869Y-71279612D01*
X169393496Y-71270240D01*
X169413870Y-71256626D01*
X169431197Y-71239299D01*
X169444811Y-71218925D01*
X169454188Y-71196286D01*
X169458969Y-71172253D01*
X169458969Y-71147749D01*
X169454189Y-71123715D01*
X169444812Y-71101076D01*
X169431198Y-71080702D01*
X169413871Y-71063375D01*
X169393497Y-71049761D01*
X169370869Y-71040388D01*
X169358121Y-71036521D01*
X169321054Y-71016708D01*
X169262400Y-70985357D01*
X169178499Y-70916501D01*
X169109645Y-70832601D01*
X169109644Y-70832600D01*
X169086236Y-70788807D01*
X169072625Y-70768437D01*
X169055298Y-70751110D01*
X169034924Y-70737496D01*
X169012285Y-70728119D01*
X168988252Y-70723338D01*
X168963748Y-70723338D01*
X168939714Y-70728118D01*
X168917076Y-70737495D01*
X168896701Y-70751109D01*
X168879374Y-70768436D01*
X168865760Y-70788810D01*
X168856383Y-70811449D01*
X168851602Y-70835482D01*
X168851000Y-70847735D01*
X168851000Y-71076000D01*
X168622735Y-71076000D01*
X168598349Y-71078402D01*
X168574900Y-71085515D01*
X168553289Y-71097066D01*
X168534347Y-71112611D01*
X168518802Y-71131553D01*
X168507251Y-71153164D01*
X168500138Y-71176613D01*
X168497736Y-71200999D01*
X168101662Y-71200999D01*
X168101662Y-71188748D01*
X168096882Y-71164714D01*
X168087505Y-71142076D01*
X168073891Y-71121701D01*
X168056564Y-71104374D01*
X168036190Y-71090760D01*
X168013551Y-71081383D01*
X167989518Y-71076602D01*
X167977265Y-71076000D01*
X167749000Y-71076000D01*
X167749000Y-69974000D01*
X168851000Y-69974000D01*
X168851000Y-70202265D01*
X168851000Y-70202265D01*
G37*
G36*
X172664499Y-69903445D02*
G01*
X172701995Y-69914820D01*
X172736554Y-69933292D01*
X172766847Y-69958153D01*
X172791708Y-69988446D01*
X172810180Y-70023005D01*
X172821555Y-70060501D01*
X172826000Y-70105638D01*
X172826000Y-70844362D01*
X172821555Y-70889499D01*
X172810180Y-70926995D01*
X172791708Y-70961554D01*
X172766847Y-70991847D01*
X172736554Y-71016708D01*
X172701995Y-71035180D01*
X172664499Y-71046555D01*
X172619362Y-71051000D01*
X171980638Y-71051000D01*
X171935501Y-71046555D01*
X171898005Y-71035180D01*
X171863446Y-71016708D01*
X171833153Y-70991847D01*
X171808292Y-70961554D01*
X171789820Y-70926995D01*
X171778445Y-70889499D01*
X171774000Y-70844362D01*
X171774000Y-70105638D01*
X171778445Y-70060501D01*
X171789820Y-70023005D01*
X171808292Y-69988446D01*
X171833153Y-69958153D01*
X171863446Y-69933292D01*
X171898005Y-69914820D01*
X171935501Y-69903445D01*
X171980638Y-69899000D01*
X172619362Y-69899000D01*
X172664499Y-69903445D01*
X172664499Y-69903445D01*
G37*
G36*
X172664499Y-68153445D02*
G01*
X172701995Y-68164820D01*
X172736554Y-68183292D01*
X172766847Y-68208153D01*
X172791708Y-68238446D01*
X172810180Y-68273005D01*
X172821555Y-68310501D01*
X172826000Y-68355638D01*
X172826000Y-69094362D01*
X172821555Y-69139499D01*
X172810180Y-69176995D01*
X172791708Y-69211554D01*
X172766847Y-69241847D01*
X172736554Y-69266708D01*
X172701995Y-69285180D01*
X172664499Y-69296555D01*
X172619362Y-69301000D01*
X171980638Y-69301000D01*
X171935501Y-69296555D01*
X171898005Y-69285180D01*
X171863446Y-69266708D01*
X171833153Y-69241847D01*
X171808292Y-69211554D01*
X171789820Y-69176995D01*
X171778445Y-69139499D01*
X171774000Y-69094362D01*
X171774000Y-68355638D01*
X171778445Y-68310501D01*
X171789820Y-68273005D01*
X171808292Y-68238446D01*
X171833153Y-68208153D01*
X171863446Y-68183292D01*
X171898005Y-68164820D01*
X171935501Y-68153445D01*
X171980638Y-68149000D01*
X172619362Y-68149000D01*
X172664499Y-68153445D01*
X172664499Y-68153445D01*
G37*
M02*
